<?xml version="1.0" encoding="UTF-8" standalone="no"?><svg xmlns="http://www.w3.org/2000/svg" xmlns:xlink="http://www.w3.org/1999/xlink" contentStyleType="text/css" height="779px" preserveAspectRatio="none" style="width:867px;height:779px;background:#FFFFFF;" version="1.1" viewBox="0 0 867 779" width="867px" zoomAndPan="magnify"><defs/><g><rect height="26.4883" style="stroke:#00000000;stroke-width:1.0;fill:none;" width="375" x="245.5" y="10"/><text fill="#000000" font-family="sans-serif" font-size="14" font-weight="bold" lengthAdjust="spacing" textLength="365" x="250.5" y="28.5352">Proposed SSM Deployment Sequence (Abbreviated)</text><line style="stroke:#181818;stroke-width:0.5;stroke-dasharray:5.0,5.0;" x1="42" x2="42" y1="104.9766" y2="701.1875"/><line style="stroke:#181818;stroke-width:0.5;stroke-dasharray:5.0,5.0;" x1="181.5" x2="181.5" y1="104.9766" y2="701.1875"/><line style="stroke:#181818;stroke-width:0.5;stroke-dasharray:5.0,5.0;" x1="327.5" x2="327.5" y1="104.9766" y2="701.1875"/><line style="stroke:#181818;stroke-width:0.5;stroke-dasharray:5.0,5.0;" x1="535" x2="535" y1="104.9766" y2="701.1875"/><line style="stroke:#181818;stroke-width:0.5;stroke-dasharray:5.0,5.0;" x1="737.5" x2="737.5" y1="104.9766" y2="701.1875"/><rect fill="#E2E2F0" height="30.4883" rx="2.5" ry="2.5" style="stroke:#181818;stroke-width:0.5;" width="74" x="5" y="73.4883"/><text fill="#000000" font-family="sans-serif" font-size="14" lengthAdjust="spacing" textLength="60" x="12" y="94.0234">operator</text><rect fill="#E2E2F0" height="30.4883" rx="2.5" ry="2.5" style="stroke:#181818;stroke-width:0.5;" width="74" x="5" y="700.1875"/><text fill="#000000" font-family="sans-serif" font-size="14" lengthAdjust="spacing" textLength="60" x="12" y="720.7227">operator</text><text fill="#000000" font-family="sans-serif" font-size="14" lengthAdjust="spacing" textLength="45" x="156.5" y="102.0234">github</text><path d="M164,52.4883 C164,42.4883 182,42.4883 182,42.4883 C182,42.4883 200,42.4883 200,52.4883 L200,78.4883 C200,88.4883 182,88.4883 182,88.4883 C182,88.4883 164,88.4883 164,78.4883 L164,52.4883 " fill="#E2E2F0" style="stroke:#181818;stroke-width:1.5;"/><path d="M164,52.4883 C164,62.4883 182,62.4883 182,62.4883 C182,62.4883 200,62.4883 200,52.4883 " fill="none" style="stroke:#181818;stroke-width:1.5;"/><text fill="#000000" font-family="sans-serif" font-size="14" lengthAdjust="spacing" textLength="45" x="156.5" y="713.7227">github</text><path d="M164,726.6758 C164,716.6758 182,716.6758 182,716.6758 C182,716.6758 200,716.6758 200,726.6758 L200,752.6758 C200,762.6758 182,762.6758 182,762.6758 C182,762.6758 164,762.6758 164,752.6758 L164,726.6758 " fill="#E2E2F0" style="stroke:#181818;stroke-width:1.5;"/><path d="M164,726.6758 C164,736.6758 182,736.6758 182,736.6758 C182,736.6758 200,736.6758 200,726.6758 " fill="none" style="stroke:#181818;stroke-width:1.5;"/><rect fill="#E2E2F0" height="30.4883" rx="2.5" ry="2.5" style="stroke:#181818;stroke-width:0.5;" width="63" x="296.5" y="73.4883"/><text fill="#000000" font-family="sans-serif" font-size="14" lengthAdjust="spacing" textLength="49" x="303.5" y="94.0234">jenkins</text><rect fill="#E2E2F0" height="30.4883" rx="2.5" ry="2.5" style="stroke:#181818;stroke-width:0.5;" width="63" x="296.5" y="700.1875"/><text fill="#000000" font-family="sans-serif" font-size="14" lengthAdjust="spacing" textLength="49" x="303.5" y="720.7227">jenkins</text><text fill="#000000" font-family="sans-serif" font-size="14" lengthAdjust="spacing" textLength="114" x="475" y="102.0234">parameter-store</text><path d="M517,52.4883 C517,42.4883 535,42.4883 535,42.4883 C535,42.4883 553,42.4883 553,52.4883 L553,78.4883 C553,88.4883 535,88.4883 535,88.4883 C535,88.4883 517,88.4883 517,78.4883 L517,52.4883 " fill="#E2E2F0" style="stroke:#181818;stroke-width:1.5;"/><path d="M517,52.4883 C517,62.4883 535,62.4883 535,62.4883 C535,62.4883 553,62.4883 553,52.4883 " fill="none" style="stroke:#181818;stroke-width:1.5;"/><text fill="#000000" font-family="sans-serif" font-size="14" lengthAdjust="spacing" textLength="114" x="475" y="713.7227">parameter-store</text><path d="M517,726.6758 C517,716.6758 535,716.6758 535,716.6758 C535,716.6758 553,716.6758 553,726.6758 L553,752.6758 C553,762.6758 535,762.6758 535,762.6758 C535,762.6758 517,762.6758 517,752.6758 L517,726.6758 " fill="#E2E2F0" style="stroke:#181818;stroke-width:1.5;"/><path d="M517,726.6758 C517,736.6758 535,736.6758 535,736.6758 C535,736.6758 553,736.6758 553,726.6758 " fill="none" style="stroke:#181818;stroke-width:1.5;"/><rect fill="#E2E2F0" height="30.4883" rx="2.5" ry="2.5" style="stroke:#181818;stroke-width:0.5;" width="131" x="672.5" y="73.4883"/><text fill="#000000" font-family="sans-serif" font-size="14" lengthAdjust="spacing" textLength="117" x="679.5" y="94.0234">ec2-bfd-services</text><rect fill="#E2E2F0" height="30.4883" rx="2.5" ry="2.5" style="stroke:#181818;stroke-width:0.5;" width="131" x="672.5" y="700.1875"/><text fill="#000000" font-family="sans-serif" font-size="14" lengthAdjust="spacing" textLength="117" x="679.5" y="720.7227">ec2-bfd-services</text><path d="M276,119.9766 L276,159.9766 L586,159.9766 L586,129.9766 L576,119.9766 L276,119.9766 " fill="#FEFFDD" style="stroke:#181818;stroke-width:0.5;"/><path d="M576,119.9766 L576,129.9766 L586,129.9766 L576,119.9766 " fill="#FEFFDD" style="stroke:#181818;stroke-width:0.5;"/><text fill="#000000" font-family="sans-serif" font-size="13" lengthAdjust="spacing" textLength="214" x="282" y="137.5449">additional jenkins config sources:</text><text fill="#000000" font-family="sans-serif" font-size="13" lengthAdjust="spacing" textLength="289" x="282" y="152.8555">credentials plugin, ssm:/bfd/mgmt/jenkins/*</text><polygon fill="#181818" points="170,182.9082,180,186.9082,170,190.9082,174,186.9082" style="stroke:#181818;stroke-width:1.0;"/><line style="stroke:#181818;stroke-width:1.0;" x1="42" x2="176" y1="186.9082" y2="186.9082"/><text fill="#000000" font-family="sans-serif" font-size="13" lengthAdjust="spacing" textLength="116" x="49" y="182.166">Submit change set</text><polygon fill="#181818" points="53,196.9082,43,200.9082,53,204.9082,49,200.9082" style="stroke:#181818;stroke-width:1.0;"/><line style="stroke:#181818;stroke-width:1.0;stroke-dasharray:2.0,2.0;" x1="47" x2="181" y1="200.9082" y2="200.9082"/><polygon fill="#181818" points="316,226.2188,326,230.2188,316,234.2188,320,230.2188" style="stroke:#181818;stroke-width:1.0;"/><line style="stroke:#181818;stroke-width:1.0;" x1="42" x2="322" y1="230.2188" y2="230.2188"/><text fill="#000000" font-family="sans-serif" font-size="13" lengthAdjust="spacing" textLength="125" x="49" y="225.4766">Trigger Deployment</text><polygon fill="#181818" points="193,255.5293,183,259.5293,193,263.5293,189,259.5293" style="stroke:#181818;stroke-width:1.0;"/><line style="stroke:#181818;stroke-width:1.0;" x1="187" x2="327" y1="259.5293" y2="259.5293"/><text fill="#000000" font-family="sans-serif" font-size="13" lengthAdjust="spacing" textLength="122" x="199" y="254.7871">Request change set</text><polygon fill="#181818" points="316,284.8398,326,288.8398,316,292.8398,320,288.8398" style="stroke:#181818;stroke-width:1.0;"/><line style="stroke:#181818;stroke-width:1.0;stroke-dasharray:2.0,2.0;" x1="182" x2="322" y1="288.8398" y2="288.8398"/><text fill="#000000" font-family="sans-serif" font-size="13" lengthAdjust="spacing" textLength="113" x="189" y="284.0977">Return change set</text><line style="stroke:#181818;stroke-width:1.0;" x1="328" x2="370" y1="333.4609" y2="333.4609"/><line style="stroke:#181818;stroke-width:1.0;" x1="370" x2="370" y1="333.4609" y2="346.4609"/><line style="stroke:#181818;stroke-width:1.0;" x1="329" x2="370" y1="346.4609" y2="346.4609"/><polygon fill="#181818" points="339,342.4609,329,346.4609,339,350.4609,335,346.4609" style="stroke:#181818;stroke-width:1.0;"/><text fill="#000000" font-family="sans-serif" font-size="13" lengthAdjust="spacing" textLength="63" x="335" y="313.4082">terraform:</text><text fill="#000000" font-family="sans-serif" font-size="13" lengthAdjust="spacing" textLength="92" x="335" y="328.7188">read yaml files</text><polygon fill="#181818" points="523,387.082,533,391.082,523,395.082,527,391.082" style="stroke:#181818;stroke-width:1.0;"/><line style="stroke:#181818;stroke-width:1.0;" x1="328" x2="529" y1="391.082" y2="391.082"/><text fill="#000000" font-family="sans-serif" font-size="13" lengthAdjust="spacing" textLength="63" x="335" y="371.0293">terraform:</text><text fill="#000000" font-family="sans-serif" font-size="13" lengthAdjust="spacing" textLength="135" x="335" y="386.3398">write ssm parameters</text><polygon fill="#181818" points="339,401.082,329,405.082,339,409.082,335,405.082" style="stroke:#181818;stroke-width:1.0;"/><line style="stroke:#181818;stroke-width:1.0;stroke-dasharray:2.0,2.0;" x1="333" x2="534" y1="405.082" y2="405.082"/><polygon fill="#181818" points="523,445.7031,533,449.7031,523,453.7031,527,449.7031" style="stroke:#181818;stroke-width:1.0;"/><line style="stroke:#181818;stroke-width:1.0;" x1="328" x2="529" y1="449.7031" y2="449.7031"/><text fill="#000000" font-family="sans-serif" font-size="13" lengthAdjust="spacing" textLength="63" x="335" y="429.6504">terraform:</text><text fill="#000000" font-family="sans-serif" font-size="13" lengthAdjust="spacing" textLength="183" x="335" y="444.9609">Request configuration values</text><polygon fill="#181818" points="339,475.0137,329,479.0137,339,483.0137,335,479.0137" style="stroke:#181818;stroke-width:1.0;"/><line style="stroke:#181818;stroke-width:1.0;stroke-dasharray:2.0,2.0;" x1="333" x2="534" y1="479.0137" y2="479.0137"/><text fill="#000000" font-family="sans-serif" font-size="13" lengthAdjust="spacing" textLength="174" x="345" y="474.2715">Return configuration values</text><polygon fill="#181818" points="726,519.6348,736,523.6348,726,527.6348,730,523.6348" style="stroke:#181818;stroke-width:1.0;"/><line style="stroke:#181818;stroke-width:1.0;" x1="328" x2="732" y1="523.6348" y2="523.6348"/><text fill="#000000" font-family="sans-serif" font-size="13" lengthAdjust="spacing" textLength="63" x="335" y="503.582">terraform:</text><text fill="#000000" font-family="sans-serif" font-size="13" lengthAdjust="spacing" textLength="97" x="335" y="518.8926">deploy services</text><polygon fill="#181818" points="546,564.2559,536,568.2559,546,572.2559,542,568.2559" style="stroke:#181818;stroke-width:1.0;"/><line style="stroke:#181818;stroke-width:1.0;" x1="540" x2="737" y1="568.2559" y2="568.2559"/><text fill="#000000" font-family="sans-serif" font-size="13" lengthAdjust="spacing" textLength="49" x="552" y="548.2031">ansible:</text><text fill="#000000" font-family="sans-serif" font-size="13" lengthAdjust="spacing" textLength="179" x="552" y="563.5137">Request confguration values</text><polygon fill="#181818" points="726,593.5664,736,597.5664,726,601.5664,730,597.5664" style="stroke:#181818;stroke-width:1.0;"/><line style="stroke:#181818;stroke-width:1.0;stroke-dasharray:2.0,2.0;" x1="535" x2="732" y1="597.5664" y2="597.5664"/><text fill="#000000" font-family="sans-serif" font-size="13" lengthAdjust="spacing" textLength="174" x="542" y="592.8242">Return configuration values</text><line style="stroke:#181818;stroke-width:1.0;" x1="738" x2="780" y1="642.1875" y2="642.1875"/><line style="stroke:#181818;stroke-width:1.0;" x1="780" x2="780" y1="642.1875" y2="655.1875"/><line style="stroke:#181818;stroke-width:1.0;" x1="739" x2="780" y1="655.1875" y2="655.1875"/><polygon fill="#181818" points="749,651.1875,739,655.1875,749,659.1875,745,655.1875" style="stroke:#181818;stroke-width:1.0;"/><text fill="#000000" font-family="sans-serif" font-size="13" lengthAdjust="spacing" textLength="49" x="745" y="622.1348">ansible:</text><text fill="#000000" font-family="sans-serif" font-size="13" lengthAdjust="spacing" textLength="115" x="745" y="637.4453">configure services</text><polygon fill="#181818" points="339,665.1875,329,669.1875,339,673.1875,335,669.1875" style="stroke:#181818;stroke-width:1.0;"/><line style="stroke:#181818;stroke-width:1.0;stroke-dasharray:2.0,2.0;" x1="333" x2="737" y1="669.1875" y2="669.1875"/><polygon fill="#181818" points="53,679.1875,43,683.1875,53,687.1875,49,683.1875" style="stroke:#181818;stroke-width:1.0;"/><line style="stroke:#181818;stroke-width:1.0;stroke-dasharray:2.0,2.0;" x1="47" x2="327" y1="683.1875" y2="683.1875"/><!--MD5=[bd2295e1653add8453faa3d2fe25abd8]
@startuml
title Proposed SSM Deployment Sequence (Abbreviated)
participant operator
database "github"
participant jenkins
database "parameter-store"
participant "ec2-bfd-services"
note over jenkins,"parameter-store": additional jenkins config sources:\ncredentials plugin, ssm:/bfd/mgmt/jenkins/*
operator -> github: Submit change set
github - -> operator
operator -> jenkins: Trigger Deployment
jenkins -> github: Request change set
github - -> jenkins: Return change set
jenkins -> jenkins: terraform:\nread yaml files
jenkins -> "parameter-store": terraform:\nwrite ssm parameters
"parameter-store" - -> jenkins
jenkins -> "parameter-store": terraform:\nRequest configuration values
"parameter-store" - -> jenkins: Return configuration values
jenkins -> "ec2-bfd-services": terraform:\ndeploy services
"ec2-bfd-services" -> "parameter-store": ansible:\nRequest confguration values
"parameter-store" - -> "ec2-bfd-services": Return configuration values
"ec2-bfd-services" -> "ec2-bfd-services": ansible:\nconfigure services
"ec2-bfd-services" - -> jenkins
jenkins - -> operator
@enduml

PlantUML version 1.2022.6(Tue Jun 21 12:34:49 CDT 2022)
(GPL source distribution)
Java Runtime: OpenJDK Runtime Environment
JVM: OpenJDK 64-Bit Server VM
Default Encoding: UTF-8
Language: en
Country: US
--></g></svg>