<?xml version="1.0" encoding="UTF-8" standalone="no"?><svg xmlns="http://www.w3.org/2000/svg" xmlns:xlink="http://www.w3.org/1999/xlink" contentStyleType="text/css" height="1159px" preserveAspectRatio="none" style="width:692px;height:1159px;background:#FFFFFF;" version="1.1" viewBox="0 0 692 1159" width="692px" zoomAndPan="magnify"><defs/><g><!--MD5=[c2dc1ddc239802de9bd2388d9adbf8a8]
cluster Glue Catalog--><g id="cluster_Glue Catalog"><path d="M89,384 C89,374 207,374 207,374 C207,374 325,374 325,384 L325,476 C325,486 207,486 207,486 C207,486 89,486 89,476 L89,384 " fill="none" style="stroke:#181818;stroke-width:1.0;"/><path d="M89,384 C89,394 207,394 207,394 C207,394 325,394 325,384 " fill="none" style="stroke:#181818;stroke-width:1.0;"/><text fill="#000000" font-family="sans-serif" font-size="14" font-weight="bold" lengthAdjust="spacing" textLength="104" x="155" y="408.9951">Glue Catalog</text></g><!--MD5=[227da6eda29c9985c7a36fc9f1032b07]
cluster Cloud Watch--><g id="cluster_Cloud Watch"><path d="M51.5,6 L154.5,6 A3.75,3.75 0 0 1 157,8.5 L164,28.2969 L283.5,28.2969 A2.5,2.5 0 0 1 286,30.7969 L286,235.5 A2.5,2.5 0 0 1 283.5,238 L51.5,238 A2.5,2.5 0 0 1 49,235.5 L49,8.5 A2.5,2.5 0 0 1 51.5,6 " fill="none" style="stroke:#000000;stroke-width:1.5;"/><line style="stroke:#000000;stroke-width:1.5;" x1="49" x2="164" y1="28.2969" y2="28.2969"/><text fill="#000000" font-family="sans-serif" font-size="14" font-weight="bold" lengthAdjust="spacing" textLength="102" x="53" y="20.9951">Cloud Watch</text></g><!--MD5=[d7bf45cf252ddd919235dd930d9f22c8]
cluster Kinesis Firehose--><g id="cluster_Kinesis Firehose"><path d="M8.5,266 L139.5,266 A3.75,3.75 0 0 1 142,268.5 L149,288.2969 L149.5,288.2969 A2.5,2.5 0 0 1 152,290.7969 L152,343.5 A2.5,2.5 0 0 1 149.5,346 L8.5,346 A2.5,2.5 0 0 1 6,343.5 L6,268.5 A2.5,2.5 0 0 1 8.5,266 " fill="none" style="stroke:#000000;stroke-width:1.5;"/><line style="stroke:#000000;stroke-width:1.5;" x1="6" x2="149" y1="288.2969" y2="288.2969"/><text fill="#000000" font-family="sans-serif" font-size="14" font-weight="bold" lengthAdjust="spacing" textLength="130" x="10" y="280.9951">Kinesis Firehose</text></g><!--MD5=[e53ad54a96ce58eeb988a934486b8fc1]
cluster Historical Ingestion--><g id="cluster_Historical Ingestion"><path d="M178.5,262 L339.5,262 A3.75,3.75 0 0 1 342,264.5 L349,284.2969 L367.5,284.2969 A2.5,2.5 0 0 1 370,286.7969 L370,347.5 A2.5,2.5 0 0 1 367.5,350 L178.5,350 A2.5,2.5 0 0 1 176,347.5 L176,264.5 A2.5,2.5 0 0 1 178.5,262 " fill="none" style="stroke:#000000;stroke-width:1.5;"/><line style="stroke:#000000;stroke-width:1.5;" x1="176" x2="349" y1="284.2969" y2="284.2969"/><text fill="#000000" font-family="sans-serif" font-size="14" font-weight="bold" lengthAdjust="spacing" textLength="160" x="180" y="276.9951">Historical Ingestion</text></g><!--MD5=[501cdee15d0c828b5188844265023616]
cluster Athena Views--><g id="cluster_Athena Views"><path d="M89.5,510 L200.5,510 A3.75,3.75 0 0 1 203,512.5 L210,532.2969 L324.5,532.2969 A2.5,2.5 0 0 1 327,534.7969 L327,816.5 A2.5,2.5 0 0 1 324.5,819 L89.5,819 A2.5,2.5 0 0 1 87,816.5 L87,512.5 A2.5,2.5 0 0 1 89.5,510 " fill="none" style="stroke:#000000;stroke-width:1.5;"/><line style="stroke:#000000;stroke-width:1.5;" x1="87" x2="210" y1="532.2969" y2="532.2969"/><text fill="#000000" font-family="sans-serif" font-size="14" font-weight="bold" lengthAdjust="spacing" textLength="110" x="91" y="524.9951">Athena Views</text></g><!--MD5=[e2689589f96e56aff70fb9b16bd130ca]
cluster QuickSight--><g id="cluster_QuickSight"><path d="M16.5,843 L105.5,843 A3.75,3.75 0 0 1 108,845.5 L115,865.2969 L397.5,865.2969 A2.5,2.5 0 0 1 400,867.7969 L400,1149.5 A2.5,2.5 0 0 1 397.5,1152 L16.5,1152 A2.5,2.5 0 0 1 14,1149.5 L14,845.5 A2.5,2.5 0 0 1 16.5,843 " fill="none" style="stroke:#000000;stroke-width:1.5;"/><line style="stroke:#000000;stroke-width:1.5;" x1="14" x2="115" y1="865.2969" y2="865.2969"/><text fill="#000000" font-family="sans-serif" font-size="14" font-weight="bold" lengthAdjust="spacing" textLength="88" x="18" y="857.9951">QuickSight</text></g><!--MD5=[4e62f7448d207d46cf5b208a71153229]
entity bfd_prod_api_requests--><g id="elem_bfd_prod_api_requests"><rect fill="#F1F1F1" height="46.2969" rx="2.5" ry="2.5" style="stroke:#181818;stroke-width:0.5;" width="204" x="105" y="424"/><path d="M173,424 L173,429 L166,436 L105,436 " fill="none" style="stroke:#181818;stroke-width:0.5;"/><text fill="#000000" font-family="sans-serif" font-size="14" lengthAdjust="spacing" textLength="164" x="120" y="456.9951">bfd_prod_api_requests</text></g><!--MD5=[1200cabd2a84086424de0b397dfd2f71]
entity L--><g id="elem_L"><rect fill="#F1F1F1" height="62.5938" rx="2.5" ry="2.5" style="stroke:#181818;stroke-width:0.5;" width="135" x="99.5" y="41"/><rect fill="#F1F1F1" height="10" style="stroke:#181818;stroke-width:0.5;" width="15" x="214.5" y="46"/><rect fill="#F1F1F1" height="2" style="stroke:#181818;stroke-width:0.5;" width="4" x="212.5" y="48"/><rect fill="#F1F1F1" height="2" style="stroke:#181818;stroke-width:0.5;" width="4" x="212.5" y="52"/><text fill="#000000" font-family="sans-serif" font-size="14" lengthAdjust="spacing" textLength="74" x="118.5" y="73.9951">Log Group</text><text fill="#000000" font-family="sans-serif" font-size="14" lengthAdjust="spacing" textLength="91" x="114.5" y="90.292">(access.json)</text></g><!--MD5=[4a52932e87c05afea63f6d60a0835fd7]
entity Subscription--><g id="elem_Subscription"><ellipse cx="118" cy="193" fill="#F1F1F1" rx="8" ry="8" style="stroke:#181818;stroke-width:0.5;"/><text fill="#000000" font-family="sans-serif" font-size="14" lengthAdjust="spacing" textLength="91" x="72.5" y="222.9951">Subscription</text></g><!--MD5=[4f8ceaf617da225fb01a8e9682419e55]
entity Export--><g id="elem_Export"><ellipse cx="238" cy="193" fill="#F1F1F1" rx="8" ry="8" style="stroke:#181818;stroke-width:0.5;"/><text fill="#000000" font-family="sans-serif" font-size="14" lengthAdjust="spacing" textLength="49" x="213.5" y="222.9951">Export</text></g><g id="elem_Lambda"><ellipse cx="83.1007" cy="315.715" fill="#F1F1F1" rx="52.6007" ry="14.715" style="stroke:#181818;stroke-width:0.5;"/><text fill="#000000" font-family="sans-serif" font-size="14" lengthAdjust="spacing" textLength="57" x="51.6007" y="319.4626">Lambda</text></g><g id="elem_Athena Runbook"><ellipse cx="273.1107" cy="315.5221" fill="#F1F1F1" rx="80.6107" ry="18.5221" style="stroke:#181818;stroke-width:0.5;"/><text fill="#000000" font-family="sans-serif" font-size="14" lengthAdjust="spacing" textLength="120" x="211.6726" y="318.8348">Athena Runbook</text></g><!--MD5=[770389ab9df153645bc6ef28055eb2b5]
entity A--><g id="elem_A"><rect fill="#F1F1F1" height="46.2969" rx="2.5" ry="2.5" style="stroke:#181818;stroke-width:0.5;" width="139" x="137.5" y="545"/><rect fill="#F1F1F1" height="10" style="stroke:#181818;stroke-width:0.5;" width="15" x="256.5" y="550"/><rect fill="#F1F1F1" height="2" style="stroke:#181818;stroke-width:0.5;" width="4" x="254.5" y="552"/><rect fill="#F1F1F1" height="2" style="stroke:#181818;stroke-width:0.5;" width="4" x="254.5" y="556"/><text fill="#000000" font-family="sans-serif" font-size="14" lengthAdjust="spacing" textLength="91" x="156.5" y="577.9951">api_requests</text></g><!--MD5=[b2d39259b6aeabc16b394deeb0238426]
entity B--><g id="elem_B"><rect fill="#F1F1F1" height="46.2969" rx="2.5" ry="2.5" style="stroke:#181818;stroke-width:0.5;" width="208" x="103" y="651"/><rect fill="#F1F1F1" height="10" style="stroke:#181818;stroke-width:0.5;" width="15" x="291" y="656"/><rect fill="#F1F1F1" height="2" style="stroke:#181818;stroke-width:0.5;" width="4" x="289" y="658"/><rect fill="#F1F1F1" height="2" style="stroke:#181818;stroke-width:0.5;" width="4" x="289" y="662"/><text fill="#000000" font-family="sans-serif" font-size="14" lengthAdjust="spacing" textLength="160" x="122" y="683.9951">api_requests_by_bene</text></g><!--MD5=[16fab723be418f7eaf2ea4bd895a8e51]
entity C--><g id="elem_C"><rect fill="#F1F1F1" height="46.2969" rx="2.5" ry="2.5" style="stroke:#181818;stroke-width:0.5;" width="185" x="114.5" y="757"/><rect fill="#F1F1F1" height="10" style="stroke:#181818;stroke-width:0.5;" width="15" x="279.5" y="762"/><rect fill="#F1F1F1" height="2" style="stroke:#181818;stroke-width:0.5;" width="4" x="277.5" y="764"/><rect fill="#F1F1F1" height="2" style="stroke:#181818;stroke-width:0.5;" width="4" x="277.5" y="768"/><text fill="#000000" font-family="sans-serif" font-size="14" lengthAdjust="spacing" textLength="137" x="133.5" y="789.9951">new_benes_by_day</text></g><!--MD5=[88d9ad305a68f353e5364e6b3d57263e]
entity Q_D--><g id="elem_Q_D"><rect fill="#F1F1F1" height="46.2969" rx="2.5" ry="2.5" style="stroke:#181818;stroke-width:0.5;" width="275" x="69.5" y="878"/><rect fill="#F1F1F1" height="10" style="stroke:#181818;stroke-width:0.5;" width="15" x="324.5" y="883"/><rect fill="#F1F1F1" height="2" style="stroke:#181818;stroke-width:0.5;" width="4" x="322.5" y="885"/><rect fill="#F1F1F1" height="2" style="stroke:#181818;stroke-width:0.5;" width="4" x="322.5" y="889"/><text fill="#000000" font-family="sans-serif" font-size="14" lengthAdjust="spacing" textLength="227" x="88.5" y="910.9951">Datasource: new_benes_by_day</text></g><!--MD5=[3c94457090670ed004d4a4f58fc53581]
entity Q_A--><g id="elem_Q_A"><rect fill="#F1F1F1" height="46.2969" rx="2.5" ry="2.5" style="stroke:#181818;stroke-width:0.5;" width="251" x="81.5" y="984"/><rect fill="#F1F1F1" height="10" style="stroke:#181818;stroke-width:0.5;" width="15" x="312.5" y="989"/><rect fill="#F1F1F1" height="2" style="stroke:#181818;stroke-width:0.5;" width="4" x="310.5" y="991"/><rect fill="#F1F1F1" height="2" style="stroke:#181818;stroke-width:0.5;" width="4" x="310.5" y="995"/><text fill="#000000" font-family="sans-serif" font-size="14" lengthAdjust="spacing" textLength="203" x="100.5" y="1016.9951">Analysis: new_benes_by_day</text></g><!--MD5=[9d978571790bab5488add438c9c10355]
entity Q_Dash--><g id="elem_Q_Dash"><rect fill="#F1F1F1" height="46.2969" rx="2.5" ry="2.5" style="stroke:#181818;stroke-width:0.5;" width="354" x="30" y="1090"/><rect fill="#F1F1F1" height="10" style="stroke:#181818;stroke-width:0.5;" width="15" x="364" y="1095"/><rect fill="#F1F1F1" height="2" style="stroke:#181818;stroke-width:0.5;" width="4" x="362" y="1097"/><rect fill="#F1F1F1" height="2" style="stroke:#181818;stroke-width:0.5;" width="4" x="362" y="1101"/><text fill="#000000" font-family="sans-serif" font-size="14" lengthAdjust="spacing" textLength="306" x="49" y="1122.9951">Dashboard: BFD Unique Medicare Enrollees</text></g><g id="elem_GMN16"><path d="M388.5,303 L388.5,311.5 L353.695,315.5 L388.5,319.5 L388.5,328.1328 A0,0 0 0 0 388.5,328.1328 L685.5,328.1328 A0,0 0 0 0 685.5,328.1328 L685.5,313 L675.5,303 L388.5,303 A0,0 0 0 0 388.5,303 " fill="#FEFFDD" style="stroke:#181818;stroke-width:0.5;"/><path d="M675.5,303 L675.5,313 L685.5,313 L675.5,303 " fill="#FEFFDD" style="stroke:#181818;stroke-width:0.5;"/><text fill="#000000" font-family="sans-serif" font-size="13" lengthAdjust="spacing" textLength="276" x="394.5" y="320.0669">how-to-load-cloudwatch-historical-data.md</text></g><!--MD5=[7d62cf6410dc5ab0b027549eac00cede]
link L to Subscription--><g id="link_L_Subscription"><path d="M154.381,104.02 C144.325,128.34 130.744,161.18 123.347,179.07 " fill="none" id="L-to-Subscription" style="stroke:#181818;stroke-width:1.0;"/><polygon fill="#181818" points="121.432,183.7,128.5689,176.9129,123.3435,179.0798,121.1766,173.8545,121.432,183.7" style="stroke:#181818;stroke-width:1.0;"/></g><!--MD5=[13d3850150c6d7eb9c77f8bedc1ebe53]
link L to Export--><g id="link_L_Export"><path d="M185.284,104.02 C199.856,128.34 219.534,161.18 230.253,179.07 " fill="none" id="L-to-Export" style="stroke:#181818;stroke-width:1.0;"/><polygon fill="#181818" points="233.027,183.7,231.8318,173.9239,230.4568,179.4111,224.9696,178.0362,233.027,183.7" style="stroke:#181818;stroke-width:1.0;"/></g><!--MD5=[d16f50ddac0cf00942490094dbc94bc8]
link Export to Athena Runbook--><g id="link_Export_Athena Runbook"><path d="M240.406,202.282 C245.698,220.503 258.506,264.601 266.4,291.776 " fill="none" id="Export-to-Athena Runbook" style="stroke:#181818;stroke-width:1.0;"/><polygon fill="#181818" points="267.813,296.643,269.1445,286.8846,266.4187,291.8414,261.4619,289.1155,267.813,296.643" style="stroke:#181818;stroke-width:1.0;"/></g><!--MD5=[ee110002ac0c7394e0977cc6937885f7]
link Athena Runbook to bfd_prod_api_requests--><g id="link_Athena Runbook_bfd_prod_api_requests"><path d="M264.099,333.965 C252.969,355.803 233.798,393.419 220.769,418.983 " fill="none" id="Athena Runbook-to-bfd_prod_api_requests" style="stroke:#181818;stroke-width:1.0;"/><polygon fill="#181818" points="218.412,423.609,226.0624,417.4065,220.6823,419.1541,218.9346,413.774,218.412,423.609" style="stroke:#181818;stroke-width:1.0;"/></g><!--MD5=[81a849ca3791a4a54d46d7afc6f4aea5]
link Subscription to Lambda--><g id="link_Subscription_Lambda"><path d="M115.594,202.282 C110.034,221.425 96.179,269.127 88.4423,295.763 " fill="none" id="Subscription-to-Lambda" style="stroke:#181818;stroke-width:1.0;"/><polygon fill="#181818" points="86.9809,300.794,93.332,293.2665,88.3752,295.9924,85.6494,291.0356,86.9809,300.794" style="stroke:#181818;stroke-width:1.0;"/></g><!--MD5=[eecc729c223341a75b709677f91de913]
link Lambda to bfd_prod_api_requests--><g id="link_Lambda_bfd_prod_api_requests"><path d="M95.803,329.871 C116.092,351.059 155.996,392.734 182.073,419.967 " fill="none" id="Lambda-to-bfd_prod_api_requests" style="stroke:#181818;stroke-width:1.0;"/><polygon fill="#181818" points="185.816,423.876,182.48,414.6093,182.3577,420.2649,176.7022,420.1426,185.816,423.876" style="stroke:#181818;stroke-width:1.0;"/></g><!--MD5=[2fc037fbbb0ad597b229c3a436edb95d]
link bfd_prod_api_requests to A--><g id="link_bfd_prod_api_requests_A"><path d="M207,470.104 C207,489.685 207,518.351 207,539.426 " fill="none" id="bfd_prod_api_requests-to-A" style="stroke:#181818;stroke-width:1.0;"/><polygon fill="#181818" points="207,544.61,211,535.61,207,539.61,203,535.61,207,544.61" style="stroke:#181818;stroke-width:1.0;"/></g><!--MD5=[5e2eec62a50b26b6b0db6c12e4ee289c]
link A to B--><g id="link_A_B"><path d="M207,591.056 C207,607.05 207,628.778 207,645.842 " fill="none" id="A-to-B" style="stroke:#181818;stroke-width:1.0;"/><polygon fill="#181818" points="207,650.976,211,641.976,207,645.976,203,641.976,207,650.976" style="stroke:#181818;stroke-width:1.0;"/></g><!--MD5=[cd25d8247324207f828a4db9f58ed69d]
link B to C--><g id="link_B_C"><path d="M207,697.056 C207,713.05 207,734.778 207,751.842 " fill="none" id="B-to-C" style="stroke:#181818;stroke-width:1.0;"/><polygon fill="#181818" points="207,756.976,211,747.976,207,751.976,203,747.976,207,756.976" style="stroke:#181818;stroke-width:1.0;"/></g><!--MD5=[54d0bee9b7a34f0f3e3720918110200e]
link C to Q_D--><g id="link_C_Q_D"><path d="M207,803.104 C207,822.685 207,851.351 207,872.426 " fill="none" id="C-to-Q_D" style="stroke:#181818;stroke-width:1.0;"/><polygon fill="#181818" points="207,877.61,211,868.61,207,872.61,203,868.61,207,877.61" style="stroke:#181818;stroke-width:1.0;"/></g><!--MD5=[244c0a601c52fd40920ae6d144ad1776]
link Q_D to Q_A--><g id="link_Q_D_Q_A"><path d="M207,924.056 C207,940.05 207,961.778 207,978.842 " fill="none" id="Q_D-to-Q_A" style="stroke:#181818;stroke-width:1.0;"/><polygon fill="#181818" points="207,983.976,211,974.976,207,978.976,203,974.976,207,983.976" style="stroke:#181818;stroke-width:1.0;"/></g><!--MD5=[32c257be00d5b89eaeb699abf53bb7a3]
link Q_A to Q_Dash--><g id="link_Q_A_Q_Dash"><path d="M207,1030.056 C207,1046.05 207,1067.778 207,1084.8418 " fill="none" id="Q_A-to-Q_Dash" style="stroke:#181818;stroke-width:1.0;"/><polygon fill="#181818" points="207,1089.9761,211,1080.9761,207,1084.9761,203,1080.9761,207,1089.9761" style="stroke:#181818;stroke-width:1.0;"/></g><!--MD5=[86dbbf41665eff592fc7d87072c7c9d8]
@startuml
database "Glue Catalog" {
  frame "bfd_prod_api_requests" as bfd_prod_api_requests {
  }
}

package "Cloud Watch" {
  [ Log Group\n(access.json) ] as L
  L - -> () Subscription
  L - -> () Export
}

package "Kinesis Firehose" {
  (Lambda)
}

package "Historical Ingestion" {
  (Athena Runbook)
}

Export - -> "Athena Runbook"
"Athena Runbook" - -> bfd_prod_api_requests

note right of "Athena Runbook"
  how-to-load-cloudwatch-historical-data.md
end note

Subscription - -> (Lambda)
Lambda - -> bfd_prod_api_requests

package "Athena Views" {
  [ api_requests ] as A
  bfd_prod_api_requests - -> A
  [ api_requests_by_bene ] as B
  A - -> B
  [ new_benes_by_day ] as C
  B - -> C
}

package "QuickSight" {
  [ Datasource: new_benes_by_day ] as Q_D
  C - -> Q_D
  [ Analysis: new_benes_by_day ] as Q_A
  Q_D - -> Q_A
  [ Dashboard: BFD Unique Medicare Enrollees ] as Q_Dash
  Q_A - -> Q_Dash
}
@enduml

PlantUML version 1.2022.13beta2(Unknown compile time)
(GPL source distribution)
Java Runtime: Java(TM) SE Runtime Environment
JVM: Java HotSpot(TM) 64-Bit Server VM
Default Encoding: UTF-8
Language: en
Country: US
--></g></svg>