<?xml version="1.0" encoding="UTF-8" standalone="no"?>
<!DOCTYPE svg PUBLIC "-//W3C//DTD SVG 1.1//EN"
 "http://www.w3.org/Graphics/SVG/1.1/DTD/svg11.dtd">
<!-- Generated by graphviz version 9.0.0 (20230911.1827)
 -->
<!-- Title: BFD FHIR Service &#45; Production VPC Pages: 1 -->
<svg width="1612pt" height="1861pt"
 viewBox="0.00 0.00 1612.00 1860.85" xmlns="http://www.w3.org/2000/svg" xmlns:xlink="http://www.w3.org/1999/xlink">
<g id="graph0" class="graph" transform="scale(1 1) rotate(0) translate(144 1716.85)">
<title>BFD FHIR Service &#45; Production VPC</title>
<polygon fill="white" stroke="none" points="-144,144 -144,-1716.85 1468,-1716.85 1468,144 -144,144"/>
<text text-anchor="middle" x="662" y="-5.5" font-family="Sans-Serif" font-size="15.00" fill="#2d3436">BFD FHIR Service &#45; Production VPC</text>
<g id="clust1" class="cluster">
<title>cluster_bfd&#45;prod&#45;vpc</title>
<path fill="#e5f5fd" stroke="#aeb6be" d="M596,-31.75C596,-31.75 1304,-31.75 1304,-31.75 1310,-31.75 1316,-37.75 1316,-43.75 1316,-43.75 1316,-1552.85 1316,-1552.85 1316,-1558.85 1310,-1564.85 1304,-1564.85 1304,-1564.85 596,-1564.85 596,-1564.85 590,-1564.85 584,-1558.85 584,-1552.85 584,-1552.85 584,-43.75 584,-43.75 584,-37.75 590,-31.75 596,-31.75"/>
<text text-anchor="middle" x="625.38" y="-1549.45" font-family="Sans-Serif" font-size="12.00" fill="#2d3436">bfd&#45;prod&#45;vpc</text>
</g>
<g id="clust2" class="cluster">
<title>cluster_DMZ Layer</title>
<path fill="#ebf3e7" stroke="#aeb6be" d="M886,-1289.05C886,-1289.05 1014,-1289.05 1014,-1289.05 1020,-1289.05 1026,-1295.05 1026,-1301.05 1026,-1301.05 1026,-1524.1 1026,-1524.1 1026,-1530.1 1020,-1536.1 1014,-1536.1 1014,-1536.1 886,-1536.1 886,-1536.1 880,-1536.1 874,-1530.1 874,-1524.1 874,-1524.1 874,-1301.05 874,-1301.05 874,-1295.05 880,-1289.05 886,-1289.05"/>
<text text-anchor="middle" x="911.62" y="-1520.7" font-family="Sans-Serif" font-size="12.00" fill="#2d3436">DMZ Layer</text>
</g>
<g id="clust3" class="cluster">
<title>cluster_bfd&#45;prod&#45;az(1,2,3)&#45;dmz</title>
<path fill="#ece8f6" stroke="#aeb6be" d="M894,-1297.05C894,-1297.05 1006,-1297.05 1006,-1297.05 1012,-1297.05 1018,-1303.05 1018,-1309.05 1018,-1309.05 1018,-1495.35 1018,-1495.35 1018,-1501.35 1012,-1507.35 1006,-1507.35 1006,-1507.35 894,-1507.35 894,-1507.35 888,-1507.35 882,-1501.35 882,-1495.35 882,-1495.35 882,-1309.05 882,-1309.05 882,-1303.05 888,-1297.05 894,-1297.05"/>
<text text-anchor="middle" x="950.38" y="-1491.95" font-family="Sans-Serif" font-size="12.00" fill="#2d3436">bfd&#45;prod&#45;az(1,2,3)&#45;dmz</text>
</g>
<g id="clust4" class="cluster">
<title>cluster_Public Subnet</title>
<path fill="#fdf7e3" stroke="#aeb6be" d="M904,-1305.05C904,-1305.05 996,-1305.05 996,-1305.05 1002,-1305.05 1008,-1311.05 1008,-1317.05 1008,-1317.05 1008,-1466.6 1008,-1466.6 1008,-1472.6 1002,-1478.6 996,-1478.6 996,-1478.6 904,-1478.6 904,-1478.6 898,-1478.6 892,-1472.6 892,-1466.6 892,-1466.6 892,-1317.05 892,-1317.05 892,-1311.05 898,-1305.05 904,-1305.05"/>
<text text-anchor="middle" x="937.5" y="-1463.2" font-family="Sans-Serif" font-size="12.00" fill="#2d3436">Public Subnet</text>
</g>
<g id="clust5" class="cluster">
<title>cluster_Application Layer</title>
<path fill="#ebf3e7" stroke="#aeb6be" d="M744,-1034C744,-1034 1156,-1034 1156,-1034 1162,-1034 1168,-1040 1168,-1046 1168,-1046 1168,-1269.05 1168,-1269.05 1168,-1275.05 1162,-1281.05 1156,-1281.05 1156,-1281.05 744,-1281.05 744,-1281.05 738,-1281.05 732,-1275.05 732,-1269.05 732,-1269.05 732,-1046 732,-1046 732,-1040 738,-1034 744,-1034"/>
<text text-anchor="middle" x="786.5" y="-1265.65" font-family="Sans-Serif" font-size="12.00" fill="#2d3436">Application Layer</text>
</g>
<g id="clust6" class="cluster">
<title>cluster_brd&#45;prod&#45;az1&#45;app</title>
<path fill="#ece8f6" stroke="#aeb6be" d="M1040,-1042C1040,-1042 1148,-1042 1148,-1042 1154,-1042 1160,-1048 1160,-1054 1160,-1054 1160,-1240.3 1160,-1240.3 1160,-1246.3 1154,-1252.3 1148,-1252.3 1148,-1252.3 1040,-1252.3 1040,-1252.3 1034,-1252.3 1028,-1246.3 1028,-1240.3 1028,-1240.3 1028,-1054 1028,-1054 1028,-1048 1034,-1042 1040,-1042"/>
<text text-anchor="middle" x="1082.12" y="-1236.9" font-family="Sans-Serif" font-size="12.00" fill="#2d3436">brd&#45;prod&#45;az1&#45;app</text>
</g>
<g id="clust7" class="cluster">
<title>cluster_Private Subnet</title>
<path fill="#fdf7e3" stroke="#aeb6be" d="M1048,-1050C1048,-1050 1140,-1050 1140,-1050 1146,-1050 1152,-1056 1152,-1062 1152,-1062 1152,-1211.55 1152,-1211.55 1152,-1217.55 1146,-1223.55 1140,-1223.55 1140,-1223.55 1048,-1223.55 1048,-1223.55 1042,-1223.55 1036,-1217.55 1036,-1211.55 1036,-1211.55 1036,-1062 1036,-1062 1036,-1056 1042,-1050 1048,-1050"/>
<text text-anchor="middle" x="1083.38" y="-1208.15" font-family="Sans-Serif" font-size="12.00" fill="#2d3436">Private Subnet</text>
</g>
<g id="clust8" class="cluster">
<title>cluster_brd&#45;prod&#45;az2&#45;app</title>
<path fill="#ece8f6" stroke="#aeb6be" d="M896,-1042C896,-1042 1004,-1042 1004,-1042 1010,-1042 1016,-1048 1016,-1054 1016,-1054 1016,-1240.3 1016,-1240.3 1016,-1246.3 1010,-1252.3 1004,-1252.3 1004,-1252.3 896,-1252.3 896,-1252.3 890,-1252.3 884,-1246.3 884,-1240.3 884,-1240.3 884,-1054 884,-1054 884,-1048 890,-1042 896,-1042"/>
<text text-anchor="middle" x="938.12" y="-1236.9" font-family="Sans-Serif" font-size="12.00" fill="#2d3436">brd&#45;prod&#45;az2&#45;app</text>
</g>
<g id="clust9" class="cluster">
<title>cluster_Private Subnet</title>
<path fill="#fdf7e3" stroke="#aeb6be" d="M904,-1050C904,-1050 996,-1050 996,-1050 1002,-1050 1008,-1056 1008,-1062 1008,-1062 1008,-1211.55 1008,-1211.55 1008,-1217.55 1002,-1223.55 996,-1223.55 996,-1223.55 904,-1223.55 904,-1223.55 898,-1223.55 892,-1217.55 892,-1211.55 892,-1211.55 892,-1062 892,-1062 892,-1056 898,-1050 904,-1050"/>
<text text-anchor="middle" x="939.38" y="-1208.15" font-family="Sans-Serif" font-size="12.00" fill="#2d3436">Private Subnet</text>
</g>
<g id="clust10" class="cluster">
<title>cluster_brd&#45;prod&#45;az3&#45;app</title>
<path fill="#ece8f6" stroke="#aeb6be" d="M752,-1042C752,-1042 860,-1042 860,-1042 866,-1042 872,-1048 872,-1054 872,-1054 872,-1240.3 872,-1240.3 872,-1246.3 866,-1252.3 860,-1252.3 860,-1252.3 752,-1252.3 752,-1252.3 746,-1252.3 740,-1246.3 740,-1240.3 740,-1240.3 740,-1054 740,-1054 740,-1048 746,-1042 752,-1042"/>
<text text-anchor="middle" x="794.12" y="-1236.9" font-family="Sans-Serif" font-size="12.00" fill="#2d3436">brd&#45;prod&#45;az3&#45;app</text>
</g>
<g id="clust11" class="cluster">
<title>cluster_Private Subnet</title>
<path fill="#fdf7e3" stroke="#aeb6be" d="M760,-1050C760,-1050 852,-1050 852,-1050 858,-1050 864,-1056 864,-1062 864,-1062 864,-1211.55 864,-1211.55 864,-1217.55 858,-1223.55 852,-1223.55 852,-1223.55 760,-1223.55 760,-1223.55 754,-1223.55 748,-1217.55 748,-1211.55 748,-1211.55 748,-1062 748,-1062 748,-1056 754,-1050 760,-1050"/>
<text text-anchor="middle" x="795.38" y="-1208.15" font-family="Sans-Serif" font-size="12.00" fill="#2d3436">Private Subnet</text>
</g>
<g id="clust12" class="cluster">
<title>cluster_Data Layer</title>
<path fill="#ebf3e7" stroke="#aeb6be" d="M604,-397.35C604,-397.35 1296,-397.35 1296,-397.35 1302,-397.35 1308,-403.35 1308,-409.35 1308,-409.35 1308,-1014 1308,-1014 1308,-1020 1302,-1026 1296,-1026 1296,-1026 604,-1026 604,-1026 598,-1026 592,-1020 592,-1014 592,-1014 592,-409.35 592,-409.35 592,-403.35 598,-397.35 604,-397.35"/>
<text text-anchor="middle" x="629.25" y="-1010.6" font-family="Sans-Serif" font-size="12.00" fill="#2d3436">Data Layer</text>
</g>
<g id="clust13" class="cluster">
<title>cluster_bfd&#45;prod&#45;az1&#45;data</title>
<path fill="#ece8f6" stroke="#aeb6be" d="M1180,-786.95C1180,-786.95 1288,-786.95 1288,-786.95 1294,-786.95 1300,-792.95 1300,-798.95 1300,-798.95 1300,-985.25 1300,-985.25 1300,-991.25 1294,-997.25 1288,-997.25 1288,-997.25 1180,-997.25 1180,-997.25 1174,-997.25 1168,-991.25 1168,-985.25 1168,-985.25 1168,-798.95 1168,-798.95 1168,-792.95 1174,-786.95 1180,-786.95"/>
<text text-anchor="middle" x="1223.25" y="-981.85" font-family="Sans-Serif" font-size="12.00" fill="#2d3436">bfd&#45;prod&#45;az1&#45;data</text>
</g>
<g id="clust14" class="cluster">
<title>cluster_Private Subnet</title>
<path fill="#fdf7e3" stroke="#aeb6be" d="M1188,-794.95C1188,-794.95 1280,-794.95 1280,-794.95 1286,-794.95 1292,-800.95 1292,-806.95 1292,-806.95 1292,-956.5 1292,-956.5 1292,-962.5 1286,-968.5 1280,-968.5 1280,-968.5 1188,-968.5 1188,-968.5 1182,-968.5 1176,-962.5 1176,-956.5 1176,-956.5 1176,-806.95 1176,-806.95 1176,-800.95 1182,-794.95 1188,-794.95"/>
<text text-anchor="middle" x="1223.38" y="-953.1" font-family="Sans-Serif" font-size="12.00" fill="#2d3436">Private Subnet</text>
</g>
<g id="clust15" class="cluster">
<title>cluster_bfd&#45;prod&#45;az2&#45;data</title>
<path fill="#ece8f6" stroke="#aeb6be" d="M752,-405.35C752,-405.35 1148,-405.35 1148,-405.35 1154,-405.35 1160,-411.35 1160,-417.35 1160,-417.35 1160,-985.25 1160,-985.25 1160,-991.25 1154,-997.25 1148,-997.25 1148,-997.25 752,-997.25 752,-997.25 746,-997.25 740,-991.25 740,-985.25 740,-985.25 740,-417.35 740,-417.35 740,-411.35 746,-405.35 752,-405.35"/>
<text text-anchor="middle" x="795.25" y="-981.85" font-family="Sans-Serif" font-size="12.00" fill="#2d3436">bfd&#45;prod&#45;az2&#45;data</text>
</g>
<g id="clust16" class="cluster">
<title>cluster_Private Subnet</title>
<path fill="#fdf7e3" stroke="#aeb6be" d="M760,-413.35C760,-413.35 1140,-413.35 1140,-413.35 1146,-413.35 1152,-419.35 1152,-425.35 1152,-425.35 1152,-956.5 1152,-956.5 1152,-962.5 1146,-968.5 1140,-968.5 1140,-968.5 760,-968.5 760,-968.5 754,-968.5 748,-962.5 748,-956.5 748,-956.5 748,-425.35 748,-425.35 748,-419.35 754,-413.35 760,-413.35"/>
<text text-anchor="middle" x="795.38" y="-953.1" font-family="Sans-Serif" font-size="12.00" fill="#2d3436">Private Subnet</text>
</g>
<g id="clust17" class="cluster">
<title>cluster_bfd&#45;prod&#45;az3&#45;data</title>
<path fill="#ece8f6" stroke="#aeb6be" d="M612,-786.95C612,-786.95 720,-786.95 720,-786.95 726,-786.95 732,-792.95 732,-798.95 732,-798.95 732,-985.25 732,-985.25 732,-991.25 726,-997.25 720,-997.25 720,-997.25 612,-997.25 612,-997.25 606,-997.25 600,-991.25 600,-985.25 600,-985.25 600,-798.95 600,-798.95 600,-792.95 606,-786.95 612,-786.95"/>
<text text-anchor="middle" x="655.25" y="-981.85" font-family="Sans-Serif" font-size="12.00" fill="#2d3436">bfd&#45;prod&#45;az3&#45;data</text>
</g>
<g id="clust18" class="cluster">
<title>cluster_Private Subnet</title>
<path fill="#fdf7e3" stroke="#aeb6be" d="M620,-794.95C620,-794.95 712,-794.95 712,-794.95 718,-794.95 724,-800.95 724,-806.95 724,-806.95 724,-956.5 724,-956.5 724,-962.5 718,-968.5 712,-968.5 712,-968.5 620,-968.5 620,-968.5 614,-968.5 608,-962.5 608,-956.5 608,-956.5 608,-806.95 608,-806.95 608,-800.95 614,-794.95 620,-794.95"/>
<text text-anchor="middle" x="655.38" y="-953.1" font-family="Sans-Serif" font-size="12.00" fill="#2d3436">Private Subnet</text>
</g>
<!-- 87f3d5e0837a463b8314bac01a793e88 -->
<g id="node1" class="node">
<title>87f3d5e0837a463b8314bac01a793e88</title>
<text text-anchor="start" x="1.5" y="-1440.2" font-family="Sans-Serif" font-size="13.00" fill="#2d3436">legend: </text>
<text text-anchor="start" x="1.5" y="-1426.7" font-family="Sans-Serif" font-size="13.00" fill="#2d3436">AZs &#45; BFD does not exercise the assignment of resources per AZ. </text>
<text text-anchor="start" x="1.5" y="-1413.2" font-family="Sans-Serif" font-size="13.00" fill="#2d3436">Colocation of pipeline/migrator workloads reside with master aurora node </text>
<text text-anchor="start" x="1.5" y="-1399.7" font-family="Sans-Serif" font-size="13.00" fill="#2d3436">AutoScaling Group Cluster is actually nested inside each application AZ.</text>
<text text-anchor="start" x="1.5" y="-1386.2" font-family="Sans-Serif" font-size="13.00" fill="#2d3436">Due to limitations of diagram app, ASG is not displayed. Note Instances in App Layer are in ASG.</text>
<text text-anchor="start" x="1.5" y="-1372.7" font-family="Sans-Serif" font-size="13.00" fill="#2d3436">&#45;&#45;&#45;&#45;&#45;&#45;&#45;&#45;&#45;&#45;&#45;&#45;&#45;&#45;</text>
<text text-anchor="start" x="1.5" y="-1359.2" font-family="Sans-Serif" font-size="13.00" fill="#2d3436">Data Sources</text>
<text text-anchor="start" x="1.5" y="-1345.7" font-family="Sans-Serif" font-size="13.00" fill="#2d3436">CCW Pipeline Instance is triggered via lambda script when RIF files arrive in s3 bucket.</text>
<text text-anchor="start" x="1.5" y="-1332.2" font-family="Sans-Serif" font-size="13.00" fill="#2d3436">RDA Pipeline runs 24x7</text>
</g>
<!-- 5e2a0965774447b6a94a8ddaa0dd5be5 -->
<g id="node2" class="node">
<title>5e2a0965774447b6a94a8ddaa0dd5be5</title>
<image xlink:href="/opt/homebrew/lib/python3.11/site-packages/resources/aws/storage/simple-storage-service-s3.png" width="100.8px" height="100.8px" preserveAspectRatio="xMinYMin meet" x="755.6" y="-158.55"/>
<text text-anchor="middle" x="806" y="-40.9" font-family="Sans-Serif" font-size="13.00" fill="#2d3436">bfd&#45;prod&#45;etl</text>
</g>
<!-- 135b1f59fe454d0fa5b29fb6f0d2f312 -->
<g id="node3" class="node">
<title>135b1f59fe454d0fa5b29fb6f0d2f312</title>
<image xlink:href="/opt/homebrew/lib/python3.11/site-packages/resources/aws/compute/lambda.png" width="100.8px" height="100.8px" preserveAspectRatio="xMinYMin meet" x="755.6" y="-349.35"/>
<text text-anchor="middle" x="806" y="-231.7" font-family="Sans-Serif" font-size="13.00" fill="#2d3436">bfd&#45;prod&#45;pipeline&#45;scheduler</text>
</g>
<!-- 135b1f59fe454d0fa5b29fb6f0d2f312&#45;&gt;5e2a0965774447b6a94a8ddaa0dd5be5 -->
<g id="edge12" class="edge">
<title>135b1f59fe454d0fa5b29fb6f0d2f312&#45;&gt;5e2a0965774447b6a94a8ddaa0dd5be5</title>
<path fill="none" stroke="#7b8894" d="M806,-219.09C806,-219.09 806,-176.34 806,-176.34"/>
<polygon fill="#7b8894" stroke="#7b8894" points="802.5,-219.09 806,-229.09 809.5,-219.09 802.5,-219.09"/>
</g>
<!-- 34575c50601040f7bb1ef7986d00c554 -->
<g id="node4" class="node">
<title>34575c50601040f7bb1ef7986d00c554</title>
<image xlink:href="/opt/homebrew/lib/python3.11/site-packages/resources/aws/network/elastic-load-balancing.png" width="100.8px" height="100.8px" preserveAspectRatio="xMinYMin meet" x="899.6" y="-1431.85"/>
<text text-anchor="middle" x="950" y="-1314.2" font-family="Sans-Serif" font-size="13.00" fill="#2d3436">Prod ELB</text>
</g>
<!-- 8a73948abc1f480c90b436877c843643 -->
<g id="node5" class="node">
<title>8a73948abc1f480c90b436877c843643</title>
<image xlink:href="/opt/homebrew/lib/python3.11/site-packages/resources/aws/compute/ec2.png" width="100.8px" height="100.8px" preserveAspectRatio="xMinYMin meet" x="1043.6" y="-1176.8"/>
<text text-anchor="middle" x="1094" y="-1059.15" font-family="Sans-Serif" font-size="13.00" fill="#2d3436">bfd&#45;prod&#45;fhir&#45;ap1</text>
</g>
<!-- 34575c50601040f7bb1ef7986d00c554&#45;&gt;8a73948abc1f480c90b436877c843643 -->
<g id="edge1" class="edge">
<title>34575c50601040f7bb1ef7986d00c554&#45;&gt;8a73948abc1f480c90b436877c843643</title>
<path fill="none" stroke="#7b8894" d="M1000.36,-1380.75C1041.89,-1380.75 1094,-1380.75 1094,-1380.75 1094,-1380.75 1094,-1206.07 1094,-1206.07"/>
<polygon fill="#7b8894" stroke="#7b8894" points="1097.5,-1206.07 1094,-1196.07 1090.5,-1206.07 1097.5,-1206.07"/>
</g>
<!-- 1b68fb5604fa411e83025f3215cb0097 -->
<g id="node6" class="node">
<title>1b68fb5604fa411e83025f3215cb0097</title>
<image xlink:href="/opt/homebrew/lib/python3.11/site-packages/resources/aws/compute/ec2.png" width="100.8px" height="100.8px" preserveAspectRatio="xMinYMin meet" x="899.6" y="-1176.8"/>
<text text-anchor="middle" x="950" y="-1059.15" font-family="Sans-Serif" font-size="13.00" fill="#2d3436">bfd&#45;prod&#45;fhir&#45;ap2</text>
</g>
<!-- 34575c50601040f7bb1ef7986d00c554&#45;&gt;1b68fb5604fa411e83025f3215cb0097 -->
<g id="edge4" class="edge">
<title>34575c50601040f7bb1ef7986d00c554&#45;&gt;1b68fb5604fa411e83025f3215cb0097</title>
<path fill="none" stroke="#7b8894" d="M950,-1313.1C950,-1313.1 950,-1206.01 950,-1206.01"/>
<polygon fill="#7b8894" stroke="#7b8894" points="953.5,-1206.01 950,-1196.01 946.5,-1206.01 953.5,-1206.01"/>
</g>
<!-- 32d0f93df677419fad1a336689ab6066 -->
<g id="node7" class="node">
<title>32d0f93df677419fad1a336689ab6066</title>
<image xlink:href="/opt/homebrew/lib/python3.11/site-packages/resources/aws/compute/ec2.png" width="100.8px" height="100.8px" preserveAspectRatio="xMinYMin meet" x="755.6" y="-1176.8"/>
<text text-anchor="middle" x="806" y="-1059.15" font-family="Sans-Serif" font-size="13.00" fill="#2d3436">bfd&#45;prod&#45;fhir&#45;ap3</text>
</g>
<!-- 34575c50601040f7bb1ef7986d00c554&#45;&gt;32d0f93df677419fad1a336689ab6066 -->
<g id="edge7" class="edge">
<title>34575c50601040f7bb1ef7986d00c554&#45;&gt;32d0f93df677419fad1a336689ab6066</title>
<path fill="none" stroke="#7b8894" d="M899.64,-1321.75C858.11,-1321.75 806,-1321.75 806,-1321.75 806,-1321.75 806,-1206.24 806,-1206.24"/>
<polygon fill="#7b8894" stroke="#7b8894" points="809.5,-1206.24 806,-1196.24 802.5,-1206.24 809.5,-1206.24"/>
</g>
<!-- b5f3587795ac46e884797591d8803db0 -->
<g id="node8" class="node">
<title>b5f3587795ac46e884797591d8803db0</title>
<image xlink:href="/opt/homebrew/lib/python3.11/site-packages/resources/aws/database/aurora.png" width="100.8px" height="100.8px" preserveAspectRatio="xMinYMin meet" x="1183.6" y="-921.75"/>
<text text-anchor="middle" x="1234" y="-804.1" font-family="Sans-Serif" font-size="13.00" fill="#2d3436">bfd&#45;prod&#45;replica1</text>
</g>
<!-- 8a73948abc1f480c90b436877c843643&#45;&gt;b5f3587795ac46e884797591d8803db0 -->
<g id="edge2" class="edge">
<title>8a73948abc1f480c90b436877c843643&#45;&gt;b5f3587795ac46e884797591d8803db0</title>
<path fill="none" stroke="#7b8894" d="M1144.15,-1125.75C1184.32,-1125.75 1234,-1125.75 1234,-1125.75 1234,-1125.75 1234,-951.04 1234,-951.04"/>
<polygon fill="#7b8894" stroke="#7b8894" points="1237.5,-951.04 1234,-941.04 1230.5,-951.04 1237.5,-951.04"/>
</g>
<!-- 04801d6b76074fd682dc04f1061a9450 -->
<g id="node9" class="node">
<title>04801d6b76074fd682dc04f1061a9450</title>
<image xlink:href="/opt/homebrew/lib/python3.11/site-packages/resources/aws/database/aurora.png" width="100.8px" height="100.8px" preserveAspectRatio="xMinYMin meet" x="899.6" y="-921.75"/>
<text text-anchor="middle" x="950" y="-804.1" font-family="Sans-Serif" font-size="13.00" fill="#2d3436">bfd&#45;prod&#45;replica2</text>
</g>
<!-- 1b68fb5604fa411e83025f3215cb0097&#45;&gt;04801d6b76074fd682dc04f1061a9450 -->
<g id="edge5" class="edge">
<title>1b68fb5604fa411e83025f3215cb0097&#45;&gt;04801d6b76074fd682dc04f1061a9450</title>
<path fill="none" stroke="#7b8894" d="M950,-1058.05C950,-1058.05 950,-950.96 950,-950.96"/>
<polygon fill="#7b8894" stroke="#7b8894" points="953.5,-950.96 950,-940.96 946.5,-950.96 953.5,-950.96"/>
</g>
<!-- 606f985d9d4e44d38910b9741b0a6f0c -->
<g id="node14" class="node">
<title>606f985d9d4e44d38910b9741b0a6f0c</title>
<image xlink:href="/opt/homebrew/lib/python3.11/site-packages/resources/aws/database/aurora.png" width="100.8px" height="100.8px" preserveAspectRatio="xMinYMin meet" x="615.6" y="-921.75"/>
<text text-anchor="middle" x="666" y="-804.1" font-family="Sans-Serif" font-size="13.00" fill="#2d3436">bfd&#45;prod&#45;replica3</text>
</g>
<!-- 32d0f93df677419fad1a336689ab6066&#45;&gt;606f985d9d4e44d38910b9741b0a6f0c -->
<g id="edge8" class="edge">
<title>32d0f93df677419fad1a336689ab6066&#45;&gt;606f985d9d4e44d38910b9741b0a6f0c</title>
<path fill="none" stroke="#7b8894" d="M789.2,-1058.23C789.2,-982.49 789.2,-870.75 789.2,-870.75 789.2,-870.75 727.62,-870.75 727.62,-870.75"/>
<polygon fill="#7b8894" stroke="#7b8894" points="727.62,-867.25 717.62,-870.75 727.62,-874.25 727.62,-867.25"/>
</g>
<!-- 710cb1038ee5405792a8caa39cb87db6 -->
<g id="node10" class="node">
<title>710cb1038ee5405792a8caa39cb87db6</title>
<image xlink:href="/opt/homebrew/lib/python3.11/site-packages/resources/aws/database/aurora.png" width="100.8px" height="100.8px" preserveAspectRatio="xMinYMin meet" x="899.6" y="-730.95"/>
<text text-anchor="middle" x="950" y="-613.3" font-family="Sans-Serif" font-size="13.00" fill="#2d3436">bfd&#45;prod&#45;master</text>
</g>
<!-- b5f3587795ac46e884797591d8803db0&#45;&gt;710cb1038ee5405792a8caa39cb87db6 -->
<g id="edge3" class="edge">
<title>b5f3587795ac46e884797591d8803db0&#45;&gt;710cb1038ee5405792a8caa39cb87db6</title>
<path fill="none" stroke="#7b8894" d="M1234,-803.26C1234,-756.47 1234,-702.75 1234,-702.75 1234,-702.75 1011.63,-702.75 1011.63,-702.75"/>
<polygon fill="#7b8894" stroke="#7b8894" points="1011.63,-699.25 1001.63,-702.75 1011.63,-706.25 1011.63,-699.25"/>
</g>
<!-- 04801d6b76074fd682dc04f1061a9450&#45;&gt;710cb1038ee5405792a8caa39cb87db6 -->
<g id="edge6" class="edge">
<title>04801d6b76074fd682dc04f1061a9450&#45;&gt;710cb1038ee5405792a8caa39cb87db6</title>
<path fill="none" stroke="#7b8894" d="M950,-803.01C950,-803.01 950,-760.25 950,-760.25"/>
<polygon fill="#7b8894" stroke="#7b8894" points="953.5,-760.25 950,-750.25 946.5,-760.25 953.5,-760.25"/>
</g>
<!-- 5aece8eefb2d4af9b1128d4ad93f9bc1 -->
<g id="node11" class="node">
<title>5aece8eefb2d4af9b1128d4ad93f9bc1</title>
<image xlink:href="/opt/homebrew/lib/python3.11/site-packages/resources/aws/compute/ec2.png" width="100.8px" height="100.8px" preserveAspectRatio="xMinYMin meet" x="755.6" y="-540.15"/>
<text text-anchor="middle" x="806" y="-422.5" font-family="Sans-Serif" font-size="13.00" fill="#2d3436">CCW bfd&#45;prod&#45;etl1</text>
</g>
<!-- 710cb1038ee5405792a8caa39cb87db6&#45;&gt;5aece8eefb2d4af9b1128d4ad93f9bc1 -->
<g id="edge10" class="edge">
<title>710cb1038ee5405792a8caa39cb87db6&#45;&gt;5aece8eefb2d4af9b1128d4ad93f9bc1</title>
<path fill="none" stroke="#7b8894" d="M888.21,-657.75C888.21,-657.75 822.8,-657.75 822.8,-657.75 822.8,-657.75 822.8,-604.59 822.8,-558.08"/>
<polygon fill="#7b8894" stroke="#7b8894" points="888.21,-661.25 898.21,-657.75 888.21,-654.25 888.21,-661.25"/>
</g>
<!-- 2f82dea7c1d043c5b07fef8236c3c17f -->
<g id="node12" class="node">
<title>2f82dea7c1d043c5b07fef8236c3c17f</title>
<image xlink:href="/opt/homebrew/lib/python3.11/site-packages/resources/aws/compute/ec2.png" width="100.8px" height="100.8px" preserveAspectRatio="xMinYMin meet" x="899.6" y="-540.15"/>
<text text-anchor="middle" x="950" y="-422.5" font-family="Sans-Serif" font-size="13.00" fill="#2d3436">RDA bfd&#45;prod&#45;etl1</text>
</g>
<!-- 710cb1038ee5405792a8caa39cb87db6&#45;&gt;2f82dea7c1d043c5b07fef8236c3c17f -->
<g id="edge13" class="edge">
<title>710cb1038ee5405792a8caa39cb87db6&#45;&gt;2f82dea7c1d043c5b07fef8236c3c17f</title>
<path fill="none" stroke="#7b8894" d="M950,-600.69C950,-600.69 950,-557.94 950,-557.94"/>
<polygon fill="#7b8894" stroke="#7b8894" points="946.5,-600.69 950,-610.69 953.5,-600.69 946.5,-600.69"/>
</g>
<!-- a08b0ae1962c49c48ed3977b58e7234f -->
<g id="node13" class="node">
<title>a08b0ae1962c49c48ed3977b58e7234f</title>
<image xlink:href="/opt/homebrew/lib/python3.11/site-packages/resources/aws/compute/ec2.png" width="100.8px" height="100.8px" preserveAspectRatio="xMinYMin meet" x="1043.6" y="-540.15"/>
<text text-anchor="middle" x="1094" y="-422.5" font-family="Sans-Serif" font-size="13.00" fill="#2d3436">DB Migrator</text>
</g>
<!-- 710cb1038ee5405792a8caa39cb87db6&#45;&gt;a08b0ae1962c49c48ed3977b58e7234f -->
<g id="edge14" class="edge">
<title>710cb1038ee5405792a8caa39cb87db6&#45;&gt;a08b0ae1962c49c48ed3977b58e7234f</title>
<path fill="none" stroke="#7b8894" d="M1011.88,-657.75C1011.88,-657.75 1094,-657.75 1094,-657.75 1094,-657.75 1094,-604.59 1094,-558.08"/>
<polygon fill="#7b8894" stroke="#7b8894" points="1011.88,-654.25 1001.88,-657.75 1011.88,-661.25 1011.88,-654.25"/>
</g>
<!-- 5aece8eefb2d4af9b1128d4ad93f9bc1&#45;&gt;135b1f59fe454d0fa5b29fb6f0d2f312 -->
<g id="edge11" class="edge">
<title>5aece8eefb2d4af9b1128d4ad93f9bc1&#45;&gt;135b1f59fe454d0fa5b29fb6f0d2f312</title>
<path fill="none" stroke="#7b8894" d="M806,-409.89C806,-409.89 806,-367.14 806,-367.14"/>
<polygon fill="#7b8894" stroke="#7b8894" points="802.5,-409.89 806,-419.89 809.5,-409.89 802.5,-409.89"/>
</g>
<!-- 606f985d9d4e44d38910b9741b0a6f0c&#45;&gt;710cb1038ee5405792a8caa39cb87db6 -->
<g id="edge9" class="edge">
<title>606f985d9d4e44d38910b9741b0a6f0c&#45;&gt;710cb1038ee5405792a8caa39cb87db6</title>
<path fill="none" stroke="#7b8894" d="M666,-803.26C666,-756.47 666,-702.75 666,-702.75 666,-702.75 888.37,-702.75 888.37,-702.75"/>
<polygon fill="#7b8894" stroke="#7b8894" points="888.37,-706.25 898.37,-702.75 888.37,-699.25 888.37,-706.25"/>
</g>
</g>
</svg>
