<?xml version="1.0" encoding="UTF-8" standalone="no"?>
<!DOCTYPE svg PUBLIC "-//W3C//DTD SVG 1.1//EN"
 "http://www.w3.org/Graphics/SVG/1.1/DTD/svg11.dtd">
<!-- Generated by graphviz version 9.0.0 (20230911.1827)
 -->
<!-- Title: BFD High Level View &#45; Infrastructure Pages: 1 -->
<svg width="1615pt" height="1281pt"
 viewBox="0.00 0.00 1615.00 1280.50" xmlns="http://www.w3.org/2000/svg" xmlns:xlink="http://www.w3.org/1999/xlink">
<g id="graph0" class="graph" transform="scale(1 1) rotate(0) translate(144 1136.5)">
<title>BFD High Level View &#45; Infrastructure</title>
<polygon fill="white" stroke="none" points="-144,144 -144,-1136.5 1471,-1136.5 1471,144 -144,144"/>
<text text-anchor="middle" x="663.5" y="-5.5" font-family="Sans-Serif" font-size="15.00" fill="#2d3436">BFD High Level View &#45; Infrastructure</text>
<g id="clust1" class="cluster">
<title>cluster_CMS AWS</title>
<path fill="#e5f5fd" stroke="#aeb6be" d="M355,-31.75C355,-31.75 1307,-31.75 1307,-31.75 1313,-31.75 1319,-37.75 1319,-43.75 1319,-43.75 1319,-781.7 1319,-781.7 1319,-787.7 1313,-793.7 1307,-793.7 1307,-793.7 355,-793.7 355,-793.7 349,-793.7 343,-787.7 343,-781.7 343,-781.7 343,-43.75 343,-43.75 343,-37.75 349,-31.75 355,-31.75"/>
<text text-anchor="middle" x="379.5" y="-778.3" font-family="Sans-Serif" font-size="12.00" fill="#2d3436">CMS AWS</text>
</g>
<g id="clust2" class="cluster">
<title>cluster_BFD Prod VPC</title>
<path fill="#ebf3e7" stroke="#aeb6be" d="M471,-39.75C471,-39.75 1299,-39.75 1299,-39.75 1305,-39.75 1311,-45.75 1311,-51.75 1311,-51.75 1311,-590.9 1311,-590.9 1311,-596.9 1305,-602.9 1299,-602.9 1299,-602.9 471,-602.9 471,-602.9 465,-602.9 459,-596.9 459,-590.9 459,-590.9 459,-51.75 459,-51.75 459,-45.75 465,-39.75 471,-39.75"/>
<text text-anchor="middle" x="507.88" y="-587.5" font-family="Sans-Serif" font-size="12.00" fill="#2d3436">BFD Prod VPC</text>
</g>
<g id="clust3" class="cluster">
<title>cluster_AZ1</title>
<path fill="#ece8f6" stroke="#aeb6be" d="M1055,-47.75C1055,-47.75 1147,-47.75 1147,-47.75 1153,-47.75 1159,-53.75 1159,-59.75 1159,-59.75 1159,-400.1 1159,-400.1 1159,-406.1 1153,-412.1 1147,-412.1 1147,-412.1 1055,-412.1 1055,-412.1 1049,-412.1 1043,-406.1 1043,-400.1 1043,-400.1 1043,-59.75 1043,-59.75 1043,-53.75 1049,-47.75 1055,-47.75"/>
<text text-anchor="middle" x="1062.25" y="-396.7" font-family="Sans-Serif" font-size="12.00" fill="#2d3436">AZ1</text>
</g>
<g id="clust4" class="cluster">
<title>cluster_AZ2</title>
<path fill="#ece8f6" stroke="#aeb6be" d="M1199,-47.75C1199,-47.75 1291,-47.75 1291,-47.75 1297,-47.75 1303,-53.75 1303,-59.75 1303,-59.75 1303,-400.1 1303,-400.1 1303,-406.1 1297,-412.1 1291,-412.1 1291,-412.1 1199,-412.1 1199,-412.1 1193,-412.1 1187,-406.1 1187,-400.1 1187,-400.1 1187,-59.75 1187,-59.75 1187,-53.75 1193,-47.75 1199,-47.75"/>
<text text-anchor="middle" x="1206.25" y="-396.7" font-family="Sans-Serif" font-size="12.00" fill="#2d3436">AZ2</text>
</g>
<g id="clust5" class="cluster">
<title>cluster_AZ3</title>
<path fill="#ece8f6" stroke="#aeb6be" d="M479,-47.75C479,-47.75 1003,-47.75 1003,-47.75 1009,-47.75 1015,-53.75 1015,-59.75 1015,-59.75 1015,-400.1 1015,-400.1 1015,-406.1 1009,-412.1 1003,-412.1 1003,-412.1 479,-412.1 479,-412.1 473,-412.1 467,-406.1 467,-400.1 467,-400.1 467,-59.75 467,-59.75 467,-53.75 473,-47.75 479,-47.75"/>
<text text-anchor="middle" x="486.25" y="-396.7" font-family="Sans-Serif" font-size="12.00" fill="#2d3436">AZ3</text>
</g>
<g id="clust6" class="cluster">
<title>cluster_CCW</title>
<path fill="#e5f5fd" stroke="#aeb6be" d="M623,-810.95C623,-810.95 715,-810.95 715,-810.95 721,-810.95 727,-816.95 727,-822.95 727,-822.95 727,-972.5 727,-972.5 727,-978.5 721,-984.5 715,-984.5 715,-984.5 623,-984.5 623,-984.5 617,-984.5 611,-978.5 611,-972.5 611,-972.5 611,-822.95 611,-822.95 611,-816.95 617,-810.95 623,-810.95"/>
<text text-anchor="middle" x="633.62" y="-969.1" font-family="Sans-Serif" font-size="12.00" fill="#2d3436">CCW</text>
</g>
<!-- b597ca48ea6e490b89f092834b85fc8b -->
<g id="node1" class="node">
<title>b597ca48ea6e490b89f092834b85fc8b</title>
<text text-anchor="start" x="8" y="-892.1" font-family="Sans-Serif" font-size="13.00" fill="#2d3436">legend: </text>
<text text-anchor="start" x="8" y="-878.6" font-family="Sans-Serif" font-size="13.00" fill="#2d3436">prod&#45;sbx.bfd.cms.gov &#45; External Facing(DMZ Subnets) requires mTLS </text>
<text text-anchor="start" x="8" y="-865.1" font-family="Sans-Serif" font-size="13.00" fill="#2d3436">prod.bfd.cms.gov/test.bfd.cms.gov &#45; Internal Facing (App Subnets) requires mTLS </text>
<text text-anchor="start" x="8" y="-851.6" font-family="Sans-Serif" font-size="13.00" fill="#2d3436">AZs &#45; BFD does not exercise the assignment of resources per AZ. </text>
<text text-anchor="start" x="8" y="-838.1" font-family="Sans-Serif" font-size="13.00" fill="#2d3436">Colocation of pipeline/migrator workloads reside with writer aurora node </text>
</g>
<!-- 4e9362bb8edc415d8045c0d90cffa33a -->
<g id="node2" class="node">
<title>4e9362bb8edc415d8045c0d90cffa33a</title>
<image xlink:href="/opt/homebrew/lib/python3.11/site-packages/resources/aws/storage/simple-storage-service-s3.png" width="100.8px" height="100.8px" preserveAspectRatio="xMinYMin meet" x="618.6" y="-746.95"/>
<text text-anchor="middle" x="669" y="-629.3" font-family="Sans-Serif" font-size="13.00" fill="#2d3436">CCW Data Ingest</text>
</g>
<!-- 80c32413537b44ebbe184f98aaff4ccd -->
<g id="node9" class="node">
<title>80c32413537b44ebbe184f98aaff4ccd</title>
<image xlink:href="/opt/homebrew/lib/python3.11/site-packages/resources/aws/compute/lambda.png" width="100.8px" height="100.8px" preserveAspectRatio="xMinYMin meet" x="618.6" y="-556.15"/>
<text text-anchor="middle" x="669" y="-438.5" font-family="Sans-Serif" font-size="13.00" fill="#2d3436">bfd&#45;prod&#45;pipeline&#45;scheduler</text>
</g>
<!-- 4e9362bb8edc415d8045c0d90cffa33a&#45;&gt;80c32413537b44ebbe184f98aaff4ccd -->
<g id="edge8" class="edge">
<title>4e9362bb8edc415d8045c0d90cffa33a&#45;&gt;80c32413537b44ebbe184f98aaff4ccd</title>
<path fill="none" stroke="#7b8894" d="M669,-628.21C669,-628.21 669,-585.45 669,-585.45"/>
<polygon fill="#7b8894" stroke="#7b8894" points="672.5,-585.45 669,-575.45 665.5,-585.45 672.5,-585.45"/>
</g>
<!-- ec2edf46eb384f3492fda09976766ca8 -->
<g id="node3" class="node">
<title>ec2edf46eb384f3492fda09976766ca8</title>
<image xlink:href="/opt/homebrew/lib/python3.11/site-packages/resources/aws/network/vpc-peering.png" width="100.8px" height="100.8px" preserveAspectRatio="xMinYMin meet" x="1058.6" y="-746.95"/>
<text text-anchor="middle" x="1109" y="-629.3" font-family="Sans-Serif" font-size="13.00" fill="#2d3436">BB2 API</text>
</g>
<!-- 971154ae501047a497a87766b872c06f -->
<g id="node8" class="node">
<title>971154ae501047a497a87766b872c06f</title>
<image xlink:href="/opt/homebrew/lib/python3.11/site-packages/resources/aws/network/elastic-load-balancing.png" width="100.8px" height="100.8px" preserveAspectRatio="xMinYMin meet" x="1050.6" y="-556.15"/>
<text text-anchor="middle" x="1101" y="-438.5" font-family="Sans-Serif" font-size="13.00" fill="#2d3436">Prod ELB</text>
</g>
<!-- ec2edf46eb384f3492fda09976766ca8&#45;&gt;971154ae501047a497a87766b872c06f -->
<g id="edge12" class="edge">
<title>ec2edf46eb384f3492fda09976766ca8&#45;&gt;971154ae501047a497a87766b872c06f</title>
<path fill="none" stroke="#7b8894" d="M1105,-628.21C1105,-628.21 1105,-585.45 1105,-585.45"/>
<polygon fill="#7b8894" stroke="#7b8894" points="1108.5,-585.45 1105,-575.45 1101.5,-585.45 1108.5,-585.45"/>
</g>
<!-- 38998a65c81349bf99b73359364f4dd8 -->
<g id="node4" class="node">
<title>38998a65c81349bf99b73359364f4dd8</title>
<image xlink:href="/opt/homebrew/lib/python3.11/site-packages/resources/aws/network/vpc-peering.png" width="100.8px" height="100.8px" preserveAspectRatio="xMinYMin meet" x="914.6" y="-746.95"/>
<text text-anchor="middle" x="965" y="-629.3" font-family="Sans-Serif" font-size="13.00" fill="#2d3436">BCDA API</text>
</g>
<!-- 38998a65c81349bf99b73359364f4dd8&#45;&gt;971154ae501047a497a87766b872c06f -->
<g id="edge13" class="edge">
<title>38998a65c81349bf99b73359364f4dd8&#45;&gt;971154ae501047a497a87766b872c06f</title>
<path fill="none" stroke="#7b8894" d="M1011.4,-628.23C1011.4,-585.98 1011.4,-539.75 1011.4,-539.75 1011.4,-539.75 1039.19,-539.75 1039.19,-539.75"/>
<polygon fill="#7b8894" stroke="#7b8894" points="1039.19,-543.25 1049.19,-539.75 1039.19,-536.25 1039.19,-543.25"/>
</g>
<!-- 21ff01a88b954d1497230fb0a31466f6 -->
<g id="node5" class="node">
<title>21ff01a88b954d1497230fb0a31466f6</title>
<image xlink:href="/opt/homebrew/lib/python3.11/site-packages/resources/aws/network/vpc-peering.png" width="100.8px" height="100.8px" preserveAspectRatio="xMinYMin meet" x="770.6" y="-746.95"/>
<text text-anchor="middle" x="821" y="-629.3" font-family="Sans-Serif" font-size="13.00" fill="#2d3436">AB2D API</text>
</g>
<!-- 21ff01a88b954d1497230fb0a31466f6&#45;&gt;971154ae501047a497a87766b872c06f -->
<g id="edge14" class="edge">
<title>21ff01a88b954d1497230fb0a31466f6&#45;&gt;971154ae501047a497a87766b872c06f</title>
<path fill="none" stroke="#7b8894" d="M867.4,-628.21C867.4,-573.46 867.4,-505.75 867.4,-505.75 867.4,-505.75 1039.37,-505.75 1039.37,-505.75"/>
<polygon fill="#7b8894" stroke="#7b8894" points="1039.37,-509.25 1049.37,-505.75 1039.37,-502.25 1039.37,-509.25"/>
</g>
<!-- f7a9f42f979e400b8113365b6c2738ff -->
<g id="node6" class="node">
<title>f7a9f42f979e400b8113365b6c2738ff</title>
<image xlink:href="/opt/homebrew/lib/python3.11/site-packages/resources/aws/network/vpc-peering.png" width="100.8px" height="100.8px" preserveAspectRatio="xMinYMin meet" x="1202.6" y="-746.95"/>
<text text-anchor="middle" x="1253" y="-629.3" font-family="Sans-Serif" font-size="13.00" fill="#2d3436">DPC API</text>
</g>
<!-- f7a9f42f979e400b8113365b6c2738ff&#45;&gt;971154ae501047a497a87766b872c06f -->
<g id="edge15" class="edge">
<title>f7a9f42f979e400b8113365b6c2738ff&#45;&gt;971154ae501047a497a87766b872c06f</title>
<path fill="none" stroke="#7b8894" d="M1249,-628.38C1249,-581.53 1249,-527.75 1249,-527.75 1249,-527.75 1162.62,-527.75 1162.62,-527.75"/>
<polygon fill="#7b8894" stroke="#7b8894" points="1162.62,-524.25 1152.62,-527.75 1162.62,-531.25 1162.62,-524.25"/>
</g>
<!-- b49d114aefb44bd3859219bfc0f9843d -->
<g id="node7" class="node">
<title>b49d114aefb44bd3859219bfc0f9843d</title>
<image xlink:href="/opt/homebrew/lib/python3.11/site-packages/resources/aws/network/vpc-peering.png" width="100.8px" height="100.8px" preserveAspectRatio="xMinYMin meet" x="350.6" y="-556.15"/>
<text text-anchor="middle" x="401" y="-438.5" font-family="Sans-Serif" font-size="13.00" fill="#2d3436">MPSM RDA API</text>
</g>
<!-- 6d253b774b304b20b401470a74807032 -->
<g id="node19" class="node">
<title>6d253b774b304b20b401470a74807032</title>
<image xlink:href="/opt/homebrew/lib/python3.11/site-packages/resources/aws/compute/ec2.png" width="100.8px" height="100.8px" preserveAspectRatio="xMinYMin meet" x="474.6" y="-365.35"/>
<text text-anchor="middle" x="525" y="-247.7" font-family="Sans-Serif" font-size="13.00" fill="#2d3436">RDA Data Pipeline</text>
</g>
<!-- b49d114aefb44bd3859219bfc0f9843d&#45;&gt;6d253b774b304b20b401470a74807032 -->
<g id="edge16" class="edge">
<title>b49d114aefb44bd3859219bfc0f9843d&#45;&gt;6d253b774b304b20b401470a74807032</title>
<path fill="none" stroke="#7b8894" d="M451.08,-505.75C485.49,-505.75 525,-505.75 525,-505.75 525,-505.75 525,-394.81 525,-394.81"/>
<polygon fill="#7b8894" stroke="#7b8894" points="528.5,-394.81 525,-384.81 521.5,-394.81 528.5,-394.81"/>
</g>
<!-- 9bc2dfd216914f3882f8bd38294206be -->
<g id="node10" class="node">
<title>9bc2dfd216914f3882f8bd38294206be</title>
<image xlink:href="/opt/homebrew/lib/python3.11/site-packages/resources/aws/compute/ec2.png" width="100.8px" height="100.8px" preserveAspectRatio="xMinYMin meet" x="1050.6" y="-365.35"/>
<text text-anchor="middle" x="1101" y="-247.7" font-family="Sans-Serif" font-size="13.00" fill="#2d3436">FHIR Server AZ1</text>
</g>
<!-- 971154ae501047a497a87766b872c06f&#45;&gt;9bc2dfd216914f3882f8bd38294206be -->
<g id="edge1" class="edge">
<title>971154ae501047a497a87766b872c06f&#45;&gt;9bc2dfd216914f3882f8bd38294206be</title>
<path fill="none" stroke="#7b8894" d="M1101,-437.41C1101,-437.41 1101,-394.65 1101,-394.65"/>
<polygon fill="#7b8894" stroke="#7b8894" points="1104.5,-394.65 1101,-384.65 1097.5,-394.65 1104.5,-394.65"/>
</g>
<!-- f8951055f0ee46b0924859d71cfee99b -->
<g id="node12" class="node">
<title>f8951055f0ee46b0924859d71cfee99b</title>
<image xlink:href="/opt/homebrew/lib/python3.11/site-packages/resources/aws/compute/ec2.png" width="100.8px" height="100.8px" preserveAspectRatio="xMinYMin meet" x="1194.6" y="-365.35"/>
<text text-anchor="middle" x="1245" y="-247.7" font-family="Sans-Serif" font-size="13.00" fill="#2d3436">FHIR Server AZ2</text>
</g>
<!-- 971154ae501047a497a87766b872c06f&#45;&gt;f8951055f0ee46b0924859d71cfee99b -->
<g id="edge3" class="edge">
<title>971154ae501047a497a87766b872c06f&#45;&gt;f8951055f0ee46b0924859d71cfee99b</title>
<path fill="none" stroke="#7b8894" d="M1151.23,-482.75C1175.14,-482.75 1198.6,-482.75 1198.6,-482.75 1198.6,-482.75 1198.6,-394.71 1198.6,-394.71"/>
<polygon fill="#7b8894" stroke="#7b8894" points="1202.1,-394.71 1198.6,-384.71 1195.1,-394.71 1202.1,-394.71"/>
</g>
<!-- 31ac92ee78874dc99476f67854e4794b -->
<g id="node14" class="node">
<title>31ac92ee78874dc99476f67854e4794b</title>
<image xlink:href="/opt/homebrew/lib/python3.11/site-packages/resources/aws/compute/ec2.png" width="100.8px" height="100.8px" preserveAspectRatio="xMinYMin meet" x="906.6" y="-365.35"/>
<text text-anchor="middle" x="957" y="-247.7" font-family="Sans-Serif" font-size="13.00" fill="#2d3436">FHIR Server AZ3</text>
</g>
<!-- 971154ae501047a497a87766b872c06f&#45;&gt;31ac92ee78874dc99476f67854e4794b -->
<g id="edge5" class="edge">
<title>971154ae501047a497a87766b872c06f&#45;&gt;31ac92ee78874dc99476f67854e4794b</title>
<path fill="none" stroke="#7b8894" d="M1050.85,-470.75C1010.68,-470.75 961,-470.75 961,-470.75 961,-470.75 961,-394.8 961,-394.8"/>
<polygon fill="#7b8894" stroke="#7b8894" points="964.5,-394.8 961,-384.8 957.5,-394.8 964.5,-394.8"/>
</g>
<!-- a251890e32fa42cdbb97ac2f260a141b -->
<g id="node18" class="node">
<title>a251890e32fa42cdbb97ac2f260a141b</title>
<image xlink:href="/opt/homebrew/lib/python3.11/site-packages/resources/aws/compute/ec2.png" width="100.8px" height="100.8px" preserveAspectRatio="xMinYMin meet" x="618.6" y="-365.35"/>
<text text-anchor="middle" x="669" y="-247.7" font-family="Sans-Serif" font-size="13.00" fill="#2d3436">CCW Data Pipeline</text>
</g>
<!-- 80c32413537b44ebbe184f98aaff4ccd&#45;&gt;a251890e32fa42cdbb97ac2f260a141b -->
<g id="edge9" class="edge">
<title>80c32413537b44ebbe184f98aaff4ccd&#45;&gt;a251890e32fa42cdbb97ac2f260a141b</title>
<path fill="none" stroke="#7b8894" d="M669,-437.41C669,-437.41 669,-394.65 669,-394.65"/>
<polygon fill="#7b8894" stroke="#7b8894" points="672.5,-394.65 669,-384.65 665.5,-394.65 672.5,-394.65"/>
</g>
<!-- 60962f9b65324a8f8956a9787f5506d7 -->
<g id="node11" class="node">
<title>60962f9b65324a8f8956a9787f5506d7</title>
<image xlink:href="/opt/homebrew/lib/python3.11/site-packages/resources/aws/database/aurora.png" width="100.8px" height="100.8px" preserveAspectRatio="xMinYMin meet" x="1050.6" y="-174.55"/>
<text text-anchor="middle" x="1101" y="-56.9" font-family="Sans-Serif" font-size="13.00" fill="#2d3436">Postgres Reader 1</text>
</g>
<!-- 9bc2dfd216914f3882f8bd38294206be&#45;&gt;60962f9b65324a8f8956a9787f5506d7 -->
<g id="edge2" class="edge">
<title>9bc2dfd216914f3882f8bd38294206be&#45;&gt;60962f9b65324a8f8956a9787f5506d7</title>
<path fill="none" stroke="#7b8894" d="M1101,-246.61C1101,-246.61 1101,-203.85 1101,-203.85"/>
<polygon fill="#7b8894" stroke="#7b8894" points="1104.5,-203.85 1101,-193.85 1097.5,-203.85 1104.5,-203.85"/>
</g>
<!-- 0bc953899d3343a89bc3a8b6b4971783 -->
<g id="node13" class="node">
<title>0bc953899d3343a89bc3a8b6b4971783</title>
<image xlink:href="/opt/homebrew/lib/python3.11/site-packages/resources/aws/database/aurora.png" width="100.8px" height="100.8px" preserveAspectRatio="xMinYMin meet" x="1194.6" y="-174.55"/>
<text text-anchor="middle" x="1245" y="-56.9" font-family="Sans-Serif" font-size="13.00" fill="#2d3436">Postgres Reader 2</text>
</g>
<!-- f8951055f0ee46b0924859d71cfee99b&#45;&gt;0bc953899d3343a89bc3a8b6b4971783 -->
<g id="edge4" class="edge">
<title>f8951055f0ee46b0924859d71cfee99b&#45;&gt;0bc953899d3343a89bc3a8b6b4971783</title>
<path fill="none" stroke="#7b8894" d="M1245,-246.61C1245,-246.61 1245,-203.85 1245,-203.85"/>
<polygon fill="#7b8894" stroke="#7b8894" points="1248.5,-203.85 1245,-193.85 1241.5,-203.85 1248.5,-203.85"/>
</g>
<!-- db46e51354294ed2a37ce28b9d683dc1 -->
<g id="node15" class="node">
<title>db46e51354294ed2a37ce28b9d683dc1</title>
<image xlink:href="/opt/homebrew/lib/python3.11/site-packages/resources/aws/database/aurora.png" width="100.8px" height="100.8px" preserveAspectRatio="xMinYMin meet" x="906.6" y="-174.55"/>
<text text-anchor="middle" x="957" y="-56.9" font-family="Sans-Serif" font-size="13.00" fill="#2d3436">Postgres Reader 3</text>
</g>
<!-- 31ac92ee78874dc99476f67854e4794b&#45;&gt;db46e51354294ed2a37ce28b9d683dc1 -->
<g id="edge6" class="edge">
<title>31ac92ee78874dc99476f67854e4794b&#45;&gt;db46e51354294ed2a37ce28b9d683dc1</title>
<path fill="none" stroke="#7b8894" d="M957,-246.61C957,-246.61 957,-203.85 957,-203.85"/>
<polygon fill="#7b8894" stroke="#7b8894" points="960.5,-203.85 957,-193.85 953.5,-203.85 960.5,-203.85"/>
</g>
<!-- dd6adc2909b14315b19befc036e6a7be -->
<g id="node16" class="node">
<title>dd6adc2909b14315b19befc036e6a7be</title>
<image xlink:href="/opt/homebrew/lib/python3.11/site-packages/resources/aws/database/aurora.png" width="100.8px" height="100.8px" preserveAspectRatio="xMinYMin meet" x="618.6" y="-174.55"/>
<text text-anchor="middle" x="669" y="-56.9" font-family="Sans-Serif" font-size="13.00" fill="#2d3436">Postgres Writer</text>
</g>
<!-- d6e3679373ac4251b1e00dbd8e5bac88 -->
<g id="node17" class="node">
<title>d6e3679373ac4251b1e00dbd8e5bac88</title>
<image xlink:href="/opt/homebrew/lib/python3.11/site-packages/resources/aws/compute/ec2.png" width="100.8px" height="100.8px" preserveAspectRatio="xMinYMin meet" x="762.6" y="-365.35"/>
<text text-anchor="middle" x="813" y="-247.7" font-family="Sans-Serif" font-size="13.00" fill="#2d3436">DB Migrator</text>
</g>
<!-- d6e3679373ac4251b1e00dbd8e5bac88&#45;&gt;dd6adc2909b14315b19befc036e6a7be -->
<g id="edge11" class="edge">
<title>d6e3679373ac4251b1e00dbd8e5bac88&#45;&gt;dd6adc2909b14315b19befc036e6a7be</title>
<path fill="none" stroke="#7b8894" d="M813,-246.73C813,-191.82 813,-123.75 813,-123.75 813,-123.75 730.88,-123.75 730.88,-123.75"/>
<polygon fill="#7b8894" stroke="#7b8894" points="730.88,-120.25 720.88,-123.75 730.88,-127.25 730.88,-120.25"/>
</g>
<!-- a251890e32fa42cdbb97ac2f260a141b&#45;&gt;dd6adc2909b14315b19befc036e6a7be -->
<g id="edge10" class="edge">
<title>a251890e32fa42cdbb97ac2f260a141b&#45;&gt;dd6adc2909b14315b19befc036e6a7be</title>
<path fill="none" stroke="#7b8894" d="M669,-246.61C669,-246.61 669,-203.85 669,-203.85"/>
<polygon fill="#7b8894" stroke="#7b8894" points="672.5,-203.85 669,-193.85 665.5,-203.85 672.5,-203.85"/>
</g>
<!-- 6d253b774b304b20b401470a74807032&#45;&gt;dd6adc2909b14315b19befc036e6a7be -->
<g id="edge17" class="edge">
<title>6d253b774b304b20b401470a74807032&#45;&gt;dd6adc2909b14315b19befc036e6a7be</title>
<path fill="none" stroke="#7b8894" d="M525,-246.73C525,-191.82 525,-123.75 525,-123.75 525,-123.75 607.12,-123.75 607.12,-123.75"/>
<polygon fill="#7b8894" stroke="#7b8894" points="607.12,-127.25 617.12,-123.75 607.12,-120.25 607.12,-127.25"/>
</g>
<!-- c3c0d59fbe4b418786d4a9a73ca9357b -->
<g id="node20" class="node">
<title>c3c0d59fbe4b418786d4a9a73ca9357b</title>
<image xlink:href="/opt/homebrew/lib/python3.11/site-packages/resources/generic/place/datacenter.png" width="100.8px" height="100.8px" preserveAspectRatio="xMinYMin meet" x="618.6" y="-937.75"/>
<text text-anchor="middle" x="669" y="-820.1" font-family="Sans-Serif" font-size="13.00" fill="#2d3436">CCW ETL Process</text>
</g>
<!-- c3c0d59fbe4b418786d4a9a73ca9357b&#45;&gt;4e9362bb8edc415d8045c0d90cffa33a -->
<g id="edge7" class="edge">
<title>c3c0d59fbe4b418786d4a9a73ca9357b&#45;&gt;4e9362bb8edc415d8045c0d90cffa33a</title>
<path fill="none" stroke="#7b8894" d="M669,-819.01C669,-819.01 669,-776.25 669,-776.25"/>
<polygon fill="#7b8894" stroke="#7b8894" points="672.5,-776.25 669,-766.25 665.5,-776.25 672.5,-776.25"/>
</g>
</g>
</svg>
