<?xml version="1.0" encoding="us-ascii" standalone="no"?><svg xmlns="http://www.w3.org/2000/svg" xmlns:xlink="http://www.w3.org/1999/xlink" contentStyleType="text/css" height="962px" preserveAspectRatio="none" style="width:2094px;height:962px;background:#FFFFFF;" version="1.1" viewBox="0 0 2094 962" width="2094px" zoomAndPan="magnify"><defs/><g><text fill="#000000" font-family="sans-serif" font-size="14" font-weight="bold" lengthAdjust="spacing" textLength="473" x="812.25" y="28.5352">BFD-Pipeline-CCW Ingestion of Beneficiary/Claim Data Sequence</text><rect fill="#FFFFFF" height="406.0371" style="stroke:#181818;stroke-width:1.0;" width="10" x="1745.5" y="423.7031"/><rect fill="none" height="467.9688" style="stroke:#000000;stroke-width:1.5;" width="1581" x="507.5" y="369.7715"/><line style="stroke:#181818;stroke-width:0.5;stroke-dasharray:5.0,5.0;" x1="124" x2="124" y1="104.9766" y2="884.0508"/><line style="stroke:#181818;stroke-width:0.5;stroke-dasharray:5.0,5.0;" x1="535.5" x2="535.5" y1="104.9766" y2="884.0508"/><line style="stroke:#181818;stroke-width:0.5;stroke-dasharray:5.0,5.0;" x1="904" x2="904" y1="104.9766" y2="884.0508"/><line style="stroke:#181818;stroke-width:0.5;stroke-dasharray:5.0,5.0;" x1="1192.5" x2="1192.5" y1="104.9766" y2="884.0508"/><line style="stroke:#181818;stroke-width:0.5;stroke-dasharray:5.0,5.0;" x1="1501.5" x2="1501.5" y1="104.9766" y2="884.0508"/><line style="stroke:#181818;stroke-width:0.5;stroke-dasharray:5.0,5.0;" x1="1750.5" x2="1750.5" y1="104.9766" y2="884.0508"/><line style="stroke:#181818;stroke-width:0.5;stroke-dasharray:5.0,5.0;" x1="1989.5" x2="1989.5" y1="104.9766" y2="884.0508"/><line style="stroke:#181818;stroke-width:0.5;stroke-dasharray:5.0,5.0;" x1="2050.5" x2="2050.5" y1="104.9766" y2="884.0508"/><rect fill="#E2E2F0" height="30.4883" rx="2.5" ry="2.5" style="stroke:#181818;stroke-width:0.5;" width="39" x="105" y="73.4883"/><text fill="#000000" font-family="sans-serif" font-size="14" lengthAdjust="spacing" textLength="25" x="112" y="94.0234">ccw</text><rect fill="#E2E2F0" height="30.4883" rx="2.5" ry="2.5" style="stroke:#181818;stroke-width:0.5;" width="39" x="105" y="883.0508"/><text fill="#000000" font-family="sans-serif" font-size="14" lengthAdjust="spacing" textLength="25" x="112" y="903.5859">ccw</text><text fill="#000000" font-family="sans-serif" font-size="14" lengthAdjust="spacing" textLength="16" x="524.5" y="102.0234">s3</text><path d="M517.5,52.4883 C517.5,42.4883 535.5,42.4883 535.5,42.4883 C535.5,42.4883 553.5,42.4883 553.5,52.4883 L553.5,78.4883 C553.5,88.4883 535.5,88.4883 535.5,88.4883 C535.5,88.4883 517.5,88.4883 517.5,78.4883 L517.5,52.4883 " fill="#E2E2F0" style="stroke:#181818;stroke-width:1.5;"/><path d="M517.5,52.4883 C517.5,62.4883 535.5,62.4883 535.5,62.4883 C535.5,62.4883 553.5,62.4883 553.5,52.4883 " fill="none" style="stroke:#181818;stroke-width:1.5;"/><text fill="#000000" font-family="sans-serif" font-size="14" lengthAdjust="spacing" textLength="16" x="524.5" y="896.5859">s3</text><path d="M517.5,909.5391 C517.5,899.5391 535.5,899.5391 535.5,899.5391 C535.5,899.5391 553.5,899.5391 553.5,909.5391 L553.5,935.5391 C553.5,945.5391 535.5,945.5391 535.5,945.5391 C535.5,945.5391 517.5,945.5391 517.5,935.5391 L517.5,909.5391 " fill="#E2E2F0" style="stroke:#181818;stroke-width:1.5;"/><path d="M517.5,909.5391 C517.5,919.5391 535.5,919.5391 535.5,919.5391 C535.5,919.5391 553.5,919.5391 553.5,909.5391 " fill="none" style="stroke:#181818;stroke-width:1.5;"/><rect fill="#E2E2F0" height="30.4883" rx="2.5" ry="2.5" style="stroke:#181818;stroke-width:0.5;" width="65" x="872" y="73.4883"/><text fill="#000000" font-family="sans-serif" font-size="14" lengthAdjust="spacing" textLength="51" x="879" y="94.0234">lambda</text><rect fill="#E2E2F0" height="30.4883" rx="2.5" ry="2.5" style="stroke:#181818;stroke-width:0.5;" width="65" x="872" y="883.0508"/><text fill="#000000" font-family="sans-serif" font-size="14" lengthAdjust="spacing" textLength="51" x="879" y="903.5859">lambda</text><rect fill="#E2E2F0" height="30.4883" rx="2.5" ry="2.5" style="stroke:#181818;stroke-width:0.5;" width="38" x="1173.5" y="73.4883"/><text fill="#000000" font-family="sans-serif" font-size="14" lengthAdjust="spacing" textLength="24" x="1180.5" y="94.0234">asg</text><rect fill="#E2E2F0" height="30.4883" rx="2.5" ry="2.5" style="stroke:#181818;stroke-width:0.5;" width="38" x="1173.5" y="883.0508"/><text fill="#000000" font-family="sans-serif" font-size="14" lengthAdjust="spacing" textLength="24" x="1180.5" y="903.5859">asg</text><rect fill="#E2E2F0" height="30.4883" rx="2.5" ry="2.5" style="stroke:#181818;stroke-width:0.5;" width="100" x="1451.5" y="73.4883"/><text fill="#000000" font-family="sans-serif" font-size="14" lengthAdjust="spacing" textLength="86" x="1458.5" y="94.0234">bfd-pipeline</text><rect fill="#E2E2F0" height="30.4883" rx="2.5" ry="2.5" style="stroke:#181818;stroke-width:0.5;" width="100" x="1451.5" y="883.0508"/><text fill="#000000" font-family="sans-serif" font-size="14" lengthAdjust="spacing" textLength="86" x="1458.5" y="903.5859">bfd-pipeline</text><rect fill="#E2E2F0" height="30.4883" rx="2.5" ry="2.5" style="stroke:#181818;stroke-width:0.5;" width="60" x="1720.5" y="73.4883"/><text fill="#000000" font-family="sans-serif" font-size="14" lengthAdjust="spacing" textLength="46" x="1727.5" y="94.0234">splunk</text><rect fill="#E2E2F0" height="30.4883" rx="2.5" ry="2.5" style="stroke:#181818;stroke-width:0.5;" width="60" x="1720.5" y="883.0508"/><text fill="#000000" font-family="sans-serif" font-size="14" lengthAdjust="spacing" textLength="46" x="1727.5" y="903.5859">splunk</text><rect fill="#E2E2F0" height="30.4883" rx="2.5" ry="2.5" style="stroke:#181818;stroke-width:0.5;" width="48" x="1965.5" y="73.4883"/><text fill="#000000" font-family="sans-serif" font-size="14" lengthAdjust="spacing" textLength="34" x="1972.5" y="94.0234">slack</text><rect fill="#E2E2F0" height="30.4883" rx="2.5" ry="2.5" style="stroke:#181818;stroke-width:0.5;" width="48" x="1965.5" y="883.0508"/><text fill="#000000" font-family="sans-serif" font-size="14" lengthAdjust="spacing" textLength="34" x="1972.5" y="903.5859">slack</text><text fill="#000000" font-family="sans-serif" font-size="14" lengthAdjust="spacing" textLength="49" x="2023.5" y="102.0234">bfd-db</text><path d="M2033,52.4883 C2033,42.4883 2051,42.4883 2051,42.4883 C2051,42.4883 2069,42.4883 2069,52.4883 L2069,78.4883 C2069,88.4883 2051,88.4883 2051,88.4883 C2051,88.4883 2033,88.4883 2033,78.4883 L2033,52.4883 " fill="#E2E2F0" style="stroke:#181818;stroke-width:1.5;"/><path d="M2033,52.4883 C2033,62.4883 2051,62.4883 2051,62.4883 C2051,62.4883 2069,62.4883 2069,52.4883 " fill="none" style="stroke:#181818;stroke-width:1.5;"/><text fill="#000000" font-family="sans-serif" font-size="14" lengthAdjust="spacing" textLength="49" x="2023.5" y="896.5859">bfd-db</text><path d="M2033,909.5391 C2033,899.5391 2051,899.5391 2051,899.5391 C2051,899.5391 2069,899.5391 2069,909.5391 L2069,935.5391 C2069,945.5391 2051,945.5391 2051,945.5391 C2051,945.5391 2033,945.5391 2033,935.5391 L2033,909.5391 " fill="#E2E2F0" style="stroke:#181818;stroke-width:1.5;"/><path d="M2033,909.5391 C2033,919.5391 2051,919.5391 2051,919.5391 C2051,919.5391 2069,919.5391 2069,909.5391 " fill="none" style="stroke:#181818;stroke-width:1.5;"/><rect fill="#FFFFFF" height="406.0371" style="stroke:#181818;stroke-width:1.0;" width="10" x="1745.5" y="423.7031"/><path d="M5,119.9766 L5,159.9766 L245,159.9766 L245,129.9766 L235,119.9766 L5,119.9766 " fill="#FEFFDD" style="stroke:#181818;stroke-width:0.5;"/><path d="M235,119.9766 L235,129.9766 L245,129.9766 L235,119.9766 " fill="#FEFFDD" style="stroke:#181818;stroke-width:0.5;"/><text fill="#000000" font-family="sans-serif" font-size="13" lengthAdjust="spacing" textLength="60" x="11" y="137.5449">Schedule:</text><text fill="#000000" font-family="sans-serif" font-size="13" lengthAdjust="spacing" textLength="215" x="15" y="152.8555">Every Friday - check #bfd-notices</text><path d="M1574,170.5977 L1574,210.5977 L1927,210.5977 L1927,180.5977 L1917,170.5977 L1574,170.5977 " fill="#FEFFDD" style="stroke:#181818;stroke-width:0.5;"/><path d="M1917,170.5977 L1917,180.5977 L1927,180.5977 L1917,170.5977 " fill="#FEFFDD" style="stroke:#181818;stroke-width:0.5;"/><text fill="#000000" font-family="sans-serif" font-size="13" lengthAdjust="spacing" textLength="184" x="1580" y="188.166">Specific Splunk Components:</text><text fill="#000000" font-family="sans-serif" font-size="13" lengthAdjust="spacing" textLength="328" x="1584" y="203.4766">forwarders/indexers/search heads/ui/configuration</text><polygon fill="#181818" points="523.5,248.8398,533.5,252.8398,523.5,256.8398,527.5,252.8398" style="stroke:#181818;stroke-width:1.0;"/><line style="stroke:#181818;stroke-width:1.0;" x1="124.5" x2="529.5" y1="252.8398" y2="252.8398"/><text fill="#000000" font-family="sans-serif" font-size="13" lengthAdjust="spacing" textLength="383" x="131.5" y="232.7871">Delivery of RIF and manifest files to 'bfd-prod-etl' S3 bucket</text><text fill="#000000" font-family="sans-serif" font-size="13" lengthAdjust="spacing" textLength="240" x="135.5" y="248.0977">under 'Incoming/&lt;timestamp&gt;' prefix</text><polygon fill="#181818" points="135.5,262.8398,125.5,266.8398,135.5,270.8398,131.5,266.8398" style="stroke:#181818;stroke-width:1.0;"/><line style="stroke:#181818;stroke-width:1.0;stroke-dasharray:2.0,2.0;" x1="129.5" x2="534.5" y1="266.8398" y2="266.8398"/><polygon fill="#181818" points="892.5,292.1504,902.5,296.1504,892.5,300.1504,896.5,296.1504" style="stroke:#181818;stroke-width:1.0;"/><line style="stroke:#181818;stroke-width:1.0;" x1="535.5" x2="898.5" y1="296.1504" y2="296.1504"/><text fill="#000000" font-family="sans-serif" font-size="13" lengthAdjust="spacing" textLength="345" x="542.5" y="291.4082">ETL/RIF Loader process triggered via event notification</text><polygon fill="#181818" points="1180.5,321.4609,1190.5,325.4609,1180.5,329.4609,1184.5,325.4609" style="stroke:#181818;stroke-width:1.0;"/><line style="stroke:#181818;stroke-width:1.0;" x1="904.5" x2="1186.5" y1="325.4609" y2="325.4609"/><text fill="#000000" font-family="sans-serif" font-size="13" lengthAdjust="spacing" textLength="264" x="911.5" y="320.7188">Scale out  bfd-pipeline AutoScaling group</text><polygon fill="#181818" points="1489.5,350.7715,1499.5,354.7715,1489.5,358.7715,1493.5,354.7715" style="stroke:#181818;stroke-width:1.0;"/><line style="stroke:#181818;stroke-width:1.0;" x1="1192.5" x2="1495.5" y1="354.7715" y2="354.7715"/><text fill="#000000" font-family="sans-serif" font-size="13" lengthAdjust="spacing" textLength="285" x="1199.5" y="350.0293">Increase number of instances of bfd-pipeline</text><path d="M507.5,369.7715 L577.5,369.7715 L577.5,377.082 L567.5,387.082 L507.5,387.082 L507.5,369.7715 " fill="#EEEEEE" style="stroke:#000000;stroke-width:1.5;"/><rect fill="none" height="467.9688" style="stroke:#000000;stroke-width:1.5;" width="1581" x="507.5" y="369.7715"/><text fill="#000000" font-family="sans-serif" font-size="13" font-weight="bold" lengthAdjust="spacing" textLength="25" x="522.5" y="383.3398">ETL</text><polygon fill="#181818" points="1512.5,419.7031,1502.5,423.7031,1512.5,427.7031,1508.5,423.7031" style="stroke:#181818;stroke-width:1.0;"/><polygon fill="#181818" points="1733.5,419.7031,1743.5,423.7031,1733.5,427.7031,1737.5,423.7031" style="stroke:#181818;stroke-width:1.0;"/><line style="stroke:#181818;stroke-width:1.0;" x1="1506.5" x2="1739.5" y1="423.7031" y2="423.7031"/><text fill="#000000" font-family="sans-serif" font-size="13" lengthAdjust="spacing" textLength="177" x="1518.5" y="403.6504">bfd-pipeline logs forwarded</text><text fill="#000000" font-family="sans-serif" font-size="13" lengthAdjust="spacing" textLength="197" x="1522.5" y="418.9609">to splunk via splunk-forwarder</text><polygon fill="#181818" points="546.5,449.0137,536.5,453.0137,546.5,457.0137,542.5,453.0137" style="stroke:#181818;stroke-width:1.0;"/><line style="stroke:#181818;stroke-width:1.0;" x1="540.5" x2="1500.5" y1="453.0137" y2="453.0137"/><text fill="#000000" font-family="sans-serif" font-size="13" lengthAdjust="spacing" textLength="140" x="552.5" y="448.2715">query for new RIF data</text><polygon fill="#181818" points="1489.5,478.3242,1499.5,482.3242,1489.5,486.3242,1493.5,482.3242" style="stroke:#181818;stroke-width:1.0;"/><line style="stroke:#181818;stroke-width:1.0;stroke-dasharray:2.0,2.0;" x1="535.5" x2="1495.5" y1="482.3242" y2="482.3242"/><text fill="#000000" font-family="sans-serif" font-size="13" lengthAdjust="spacing" textLength="99" x="542.5" y="477.582">data discovered</text><line style="stroke:#181818;stroke-width:1.0;" x1="1755.5" x2="1797.5" y1="511.6348" y2="511.6348"/><line style="stroke:#181818;stroke-width:1.0;" x1="1797.5" x2="1797.5" y1="511.6348" y2="524.6348"/><line style="stroke:#181818;stroke-width:1.0;" x1="1756.5" x2="1797.5" y1="524.6348" y2="524.6348"/><polygon fill="#181818" points="1766.5,520.6348,1756.5,524.6348,1766.5,528.6348,1762.5,524.6348" style="stroke:#181818;stroke-width:1.0;"/><text fill="#000000" font-family="sans-serif" font-size="13" lengthAdjust="spacing" textLength="215" x="1762.5" y="506.8926">data discovery messages detected</text><polygon fill="#181818" points="1977.5,565.2559,1987.5,569.2559,1977.5,573.2559,1981.5,569.2559" style="stroke:#181818;stroke-width:1.0;"/><line style="stroke:#181818;stroke-width:1.0;" x1="1755.5" x2="1983.5" y1="569.2559" y2="569.2559"/><text fill="#000000" font-family="sans-serif" font-size="13" lengthAdjust="spacing" textLength="165" x="1762.5" y="549.2031">data discovery status sent</text><text fill="#000000" font-family="sans-serif" font-size="13" lengthAdjust="spacing" textLength="153" x="1766.5" y="564.5137">to #bfd-notices channel</text><polygon fill="#181818" points="546.5,594.5664,536.5,598.5664,546.5,602.5664,542.5,598.5664" style="stroke:#181818;stroke-width:1.0;"/><line style="stroke:#181818;stroke-width:1.0;" x1="540.5" x2="1500.5" y1="598.5664" y2="598.5664"/><text fill="#000000" font-family="sans-serif" font-size="13" lengthAdjust="spacing" textLength="164" x="552.5" y="593.8242">request manifest, RIF files</text><polygon fill="#181818" points="1489.5,623.877,1499.5,627.877,1489.5,631.877,1493.5,627.877" style="stroke:#181818;stroke-width:1.0;"/><line style="stroke:#181818;stroke-width:1.0;stroke-dasharray:2.0,2.0;" x1="535.5" x2="1495.5" y1="627.877" y2="627.877"/><text fill="#000000" font-family="sans-serif" font-size="13" lengthAdjust="spacing" textLength="183" x="542.5" y="623.1348">delivery of manifest, RIF files</text><polygon fill="#181818" points="2039,653.1875,2049,657.1875,2039,661.1875,2043,657.1875" style="stroke:#181818;stroke-width:1.0;"/><line style="stroke:#181818;stroke-width:1.0;" x1="1501.5" x2="2045" y1="657.1875" y2="657.1875"/><text fill="#000000" font-family="sans-serif" font-size="13" lengthAdjust="spacing" textLength="225" x="1508.5" y="652.4453">DB operations applied for resources</text><polygon fill="#181818" points="1512.5,667.1875,1502.5,671.1875,1512.5,675.1875,1508.5,671.1875" style="stroke:#181818;stroke-width:1.0;"/><line style="stroke:#181818;stroke-width:1.0;stroke-dasharray:2.0,2.0;" x1="1506.5" x2="2050" y1="671.1875" y2="671.1875"/><line style="stroke:#181818;stroke-width:1.0;" x1="1501.5" x2="1543.5" y1="700.498" y2="700.498"/><line style="stroke:#181818;stroke-width:1.0;" x1="1543.5" x2="1543.5" y1="700.498" y2="713.498"/><line style="stroke:#181818;stroke-width:1.0;" x1="1502.5" x2="1543.5" y1="713.498" y2="713.498"/><polygon fill="#181818" points="1512.5,709.498,1502.5,713.498,1512.5,717.498,1508.5,713.498" style="stroke:#181818;stroke-width:1.0;"/><text fill="#000000" font-family="sans-serif" font-size="13" lengthAdjust="spacing" textLength="235" x="1508.5" y="695.7559">Process complete, load status logged</text><polygon fill="#181818" points="546.5,738.8086,536.5,742.8086,546.5,746.8086,542.5,742.8086" style="stroke:#181818;stroke-width:1.0;"/><line style="stroke:#181818;stroke-width:1.0;" x1="540.5" x2="1500.5" y1="742.8086" y2="742.8086"/><text fill="#000000" font-family="sans-serif" font-size="13" lengthAdjust="spacing" textLength="389" x="552.5" y="738.0664">move completed RIFs, manifests to 'Done/&lt;timestamp' prefix</text><line style="stroke:#181818;stroke-width:1.0;" x1="1755.5" x2="1797.5" y1="772.1191" y2="772.1191"/><line style="stroke:#181818;stroke-width:1.0;" x1="1797.5" x2="1797.5" y1="772.1191" y2="785.1191"/><line style="stroke:#181818;stroke-width:1.0;" x1="1756.5" x2="1797.5" y1="785.1191" y2="785.1191"/><polygon fill="#181818" points="1766.5,781.1191,1756.5,785.1191,1766.5,789.1191,1762.5,785.1191" style="stroke:#181818;stroke-width:1.0;"/><text fill="#000000" font-family="sans-serif" font-size="13" lengthAdjust="spacing" textLength="182" x="1762.5" y="767.377">data load messages detected</text><polygon fill="#181818" points="1977.5,825.7402,1987.5,829.7402,1977.5,833.7402,1981.5,829.7402" style="stroke:#181818;stroke-width:1.0;"/><line style="stroke:#181818;stroke-width:1.0;" x1="1750.5" x2="1983.5" y1="829.7402" y2="829.7402"/><text fill="#000000" font-family="sans-serif" font-size="13" lengthAdjust="spacing" textLength="132" x="1757.5" y="809.6875">data load status sent</text><text fill="#000000" font-family="sans-serif" font-size="13" lengthAdjust="spacing" textLength="153" x="1761.5" y="824.998">to #bfd-notices channel</text><polygon fill="#181818" points="1203.5,862.0508,1193.5,866.0508,1203.5,870.0508,1199.5,866.0508" style="stroke:#181818;stroke-width:1.0;"/><line style="stroke:#181818;stroke-width:1.0;" x1="1197.5" x2="1500.5" y1="866.0508" y2="866.0508"/><text fill="#000000" font-family="sans-serif" font-size="13" lengthAdjust="spacing" textLength="195" x="1209.5" y="861.3086">Scale In bfd-pipeline instances</text><!--SRC=[ZLHBR-8m4BxdLuow1owDEFI6gafRQ2Ma7gfbfRtiPR0dmIAnlRO3vT_lZ0CqeQ3Tcx4pZ-z5CgaXU7vTbE_6KsCibVFvBrZQcc8opeAhu9aiLKOP38Vfl47JmW8Jmeh-T6GL5Hv3ucUFDe5I-yAwHE1s5EJN35PgGxfhQ0Q_BRpmzG5UWz5uW1BuIMtXsxhI9LSPHH4ApStN60dYmwZrNOFjMkFT-19ZVN4ZpVmHpFWf-gQpsy5-_GMlw4aPXiW7kO2vQxspP5FCIrSkx35e2d5ghAOFEKJ2e3Qm8THnsfcfShOoTHTGM1jFRL1jFr7b_VJwhc1oe7nYb3DOyBAP66Rxn_8Lq6feqPgAHO3AD4nBSZ39o8BJ9QLc0gi7M7TgIqbMx7Yl09EbLQurjfu-9jDoCRR-QG8-i7uVHNo0aWUAH79yEZCwWvUVRrCP_EPG-l0GbeA71bFN54Z3pY3GZXa1qOcfwd6UEkHk8eN8ZUmeroM0eHBmlKjEtdWxg8FhV94BSkL8iXcxJmKIhcpNhdaTPiLO1cF57_nZr1UAt4qW5ED6y2Zq7YKUrJIkZcTLjV37zFPVPgJziJphNg1APeTicwE5BWOTPUGyi8PS1PRsMKXH_SJx9Kfv0ssY4YkIBexp1pkFlZW02ngHSmcQ4gaqBX6JVQbWpb8N8OfkFSXHrDG6hQNc1feW-MR_dOnudn5bDzw4DF3njRAlWqvfu0myW_FKvoS2UjyObaR831HT5zIfdh- -ClnMxy5sxqTNSqHymnJUimzGdqXYJzHCwNKkMkRpNAS5KRm_8-p3kU0_Z47iFbDtNTOy-dyL7UxvBp4rNPgLx3LOexWkxJWWvxZz1G00]--></g></svg>