<?xml version="1.0" encoding="UTF-8" standalone="no"?><svg xmlns="http://www.w3.org/2000/svg" xmlns:xlink="http://www.w3.org/1999/xlink" contentStyleType="text/css" height="435px" preserveAspectRatio="none" style="width:1117px;height:435px;background:#FFFFFF;" version="1.1" viewBox="0 0 1117 435" width="1117px" zoomAndPan="magnify"><defs/><g><rect fill="none" height="26.4883" id="_title" style="stroke:none;stroke-width:1.0;" width="346" x="384" y="10"/><text fill="#000000" font-family="sans-serif" font-size="14" font-weight="bold" lengthAdjust="spacing" textLength="336" x="389" y="28.5352">BFD-Server FHIR Resource Digestion Sequence</text><line style="stroke:#181818;stroke-width:0.5;stroke-dasharray:5.0,5.0;" x1="30" x2="30" y1="104.9766" y2="357.4609"/><line style="stroke:#181818;stroke-width:0.5;stroke-dasharray:5.0,5.0;" x1="519" x2="519" y1="104.9766" y2="357.4609"/><line style="stroke:#181818;stroke-width:0.5;stroke-dasharray:5.0,5.0;" x1="1082" x2="1082" y1="104.9766" y2="357.4609"/><rect fill="#E2E2F0" height="30.4883" rx="2.5" ry="2.5" style="stroke:#181818;stroke-width:0.5;" width="51" x="5" y="73.4883"/><text fill="#000000" font-family="sans-serif" font-size="14" lengthAdjust="spacing" textLength="37" x="12" y="94.0234">client</text><rect fill="#E2E2F0" height="30.4883" rx="2.5" ry="2.5" style="stroke:#181818;stroke-width:0.5;" width="51" x="5" y="356.4609"/><text fill="#000000" font-family="sans-serif" font-size="14" lengthAdjust="spacing" textLength="37" x="12" y="376.9961">client</text><rect fill="#E2E2F0" height="30.4883" rx="2.5" ry="2.5" style="stroke:#181818;stroke-width:0.5;" width="87" x="476" y="73.4883"/><text fill="#000000" font-family="sans-serif" font-size="14" lengthAdjust="spacing" textLength="73" x="483" y="94.0234">bfd-server</text><rect fill="#E2E2F0" height="30.4883" rx="2.5" ry="2.5" style="stroke:#181818;stroke-width:0.5;" width="87" x="476" y="356.4609"/><text fill="#000000" font-family="sans-serif" font-size="14" lengthAdjust="spacing" textLength="73" x="483" y="376.9961">bfd-server</text><text fill="#000000" font-family="sans-serif" font-size="14" lengthAdjust="spacing" textLength="49" x="1055" y="102.0234">bfd-db</text><path d="M1064.5,52.4883 C1064.5,42.4883 1082.5,42.4883 1082.5,42.4883 C1082.5,42.4883 1100.5,42.4883 1100.5,52.4883 L1100.5,78.4883 C1100.5,88.4883 1082.5,88.4883 1082.5,88.4883 C1082.5,88.4883 1064.5,88.4883 1064.5,78.4883 L1064.5,52.4883 " fill="#E2E2F0" style="stroke:#181818;stroke-width:1.5;"/><path d="M1064.5,52.4883 C1064.5,62.4883 1082.5,62.4883 1082.5,62.4883 C1082.5,62.4883 1100.5,62.4883 1100.5,52.4883 " fill="none" style="stroke:#181818;stroke-width:1.5;"/><text fill="#000000" font-family="sans-serif" font-size="14" lengthAdjust="spacing" textLength="49" x="1055" y="369.9961">bfd-db</text><path d="M1064.5,382.9492 C1064.5,372.9492 1082.5,372.9492 1082.5,372.9492 C1082.5,372.9492 1100.5,372.9492 1100.5,382.9492 L1100.5,408.9492 C1100.5,418.9492 1082.5,418.9492 1082.5,418.9492 C1082.5,418.9492 1064.5,418.9492 1064.5,408.9492 L1064.5,382.9492 " fill="#E2E2F0" style="stroke:#181818;stroke-width:1.5;"/><path d="M1064.5,382.9492 C1064.5,392.9492 1082.5,392.9492 1082.5,392.9492 C1082.5,392.9492 1100.5,392.9492 1100.5,382.9492 " fill="none" style="stroke:#181818;stroke-width:1.5;"/><polygon fill="#181818" points="507.5,147.5977,517.5,151.5977,507.5,155.5977,511.5,151.5977" style="stroke:#181818;stroke-width:1.0;"/><line style="stroke:#181818;stroke-width:1.0;" x1="30.5" x2="513.5" y1="151.5977" y2="151.5977"/><text fill="#000000" font-family="sans-serif" font-size="13" lengthAdjust="spacing" textLength="188" x="37.5" y="131.5449">Endpoint for a resource called</text><text fill="#000000" font-family="sans-serif" font-size="13" lengthAdjust="spacing" textLength="223" x="41.5" y="146.8555">e.g. '/v2/fhir/ExplanationOfBenefit'</text><line style="stroke:#181818;stroke-width:1.0;" x1="519.5" x2="561.5" y1="196.2188" y2="196.2188"/><line style="stroke:#181818;stroke-width:1.0;" x1="561.5" x2="561.5" y1="196.2188" y2="209.2188"/><line style="stroke:#181818;stroke-width:1.0;" x1="520.5" x2="561.5" y1="209.2188" y2="209.2188"/><polygon fill="#181818" points="530.5,205.2188,520.5,209.2188,530.5,213.2188,526.5,209.2188" style="stroke:#181818;stroke-width:1.0;"/><text fill="#000000" font-family="sans-serif" font-size="13" lengthAdjust="spacing" textLength="316" x="526.5" y="176.166">Resource provider 'read' OR 'search' method called</text><text fill="#000000" font-family="sans-serif" font-size="13" lengthAdjust="spacing" textLength="268" x="530.5" y="191.4766">(Depending on params; See OpenAPI Docs)</text><polygon fill="#181818" points="1070.5,234.5293,1080.5,238.5293,1070.5,242.5293,1074.5,238.5293" style="stroke:#181818;stroke-width:1.0;"/><line style="stroke:#181818;stroke-width:1.0;" x1="519.5" x2="1076.5" y1="238.5293" y2="238.5293"/><text fill="#000000" font-family="sans-serif" font-size="13" lengthAdjust="spacing" textLength="539" x="526.5" y="233.7871">A single resource (for read) or collection of resources (for search) queried from the db</text><polygon fill="#181818" points="530.5,248.5293,520.5,252.5293,530.5,256.5293,526.5,252.5293" style="stroke:#181818;stroke-width:1.0;"/><line style="stroke:#181818;stroke-width:1.0;stroke-dasharray:2.0,2.0;" x1="524.5" x2="1081.5" y1="252.5293" y2="252.5293"/><line style="stroke:#181818;stroke-width:1.0;" x1="519.5" x2="561.5" y1="297.1504" y2="297.1504"/><line style="stroke:#181818;stroke-width:1.0;" x1="561.5" x2="561.5" y1="297.1504" y2="310.1504"/><line style="stroke:#181818;stroke-width:1.0;" x1="520.5" x2="561.5" y1="310.1504" y2="310.1504"/><polygon fill="#181818" points="530.5,306.1504,520.5,310.1504,530.5,314.1504,526.5,310.1504" style="stroke:#181818;stroke-width:1.0;"/><text fill="#000000" font-family="sans-serif" font-size="13" lengthAdjust="spacing" textLength="443" x="526.5" y="277.0977">Transformer method for resource is retrieved and invoked to generate:</text><text fill="#000000" font-family="sans-serif" font-size="13" lengthAdjust="spacing" textLength="380" x="530.5" y="292.4082">a single FHIR resource (for read) or a FHIR bundle(for search)</text><polygon fill="#181818" points="41.5,335.4609,31.5,339.4609,41.5,343.4609,37.5,339.4609" style="stroke:#181818;stroke-width:1.0;"/><line style="stroke:#181818;stroke-width:1.0;" x1="35.5" x2="518.5" y1="339.4609" y2="339.4609"/><text fill="#000000" font-family="sans-serif" font-size="13" lengthAdjust="spacing" textLength="465" x="47.5" y="334.7188">Serialized FHIR data (Plus a pointer if returning bundle) sent as a response</text><!--MD5=[ed1730fc4b641741e102c63c22275061]
@startuml
title BFD-Server FHIR Resource Digestion Sequence
participant client
participant "bfd-server"
database "bfd-db"
client -> "bfd-server": Endpoint for a resource called \n e.g. '/v2/fhir/ExplanationOfBenefit' 
"bfd-server" -> "bfd-server": Resource provider 'read' OR 'search' method called \n (Depending on params; See OpenAPI Docs)
"bfd-server" -> "bfd-db": A single resource (for read) or collection of resources (for search) queried from the db
"bfd-db" - -> "bfd-server"
"bfd-server" -> "bfd-server": Transformer method for resource is retrieved and invoked to generate: \n a single FHIR resource (for read) or a FHIR bundle(for search)
"bfd-server" -> client: Serialized FHIR data (Plus a pointer if returning bundle) sent as a response
@enduml

PlantUML version 1.2022.7(Mon Aug 22 10:01:30 PDT 2022)
(GPL source distribution)
Java Runtime: Java(TM) SE Runtime Environment
JVM: Java HotSpot(TM) 64-Bit Server VM
Default Encoding: UTF-8
Language: en
Country: US
--></g></svg>