<?xml version="1.0" encoding="UTF-8" standalone="no"?><svg xmlns="http://www.w3.org/2000/svg" xmlns:xlink="http://www.w3.org/1999/xlink" contentStyleType="text/css" height="823px" preserveAspectRatio="none" style="width:1441px;height:823px;background:#FFFFFF;" version="1.1" viewBox="0 0 1441 823" width="1441px" zoomAndPan="magnify"><defs/><g><rect fill="none" height="26.4883" id="_title" style="stroke:none;stroke-width:1.0;" width="483" x="480.75" y="10"/><text fill="#000000" font-family="sans-serif" font-size="14" font-weight="bold" lengthAdjust="spacing" textLength="473" x="485.75" y="28.5352">BFD-Pipeline-CCW Ingestion of Beneficiary/Claim Data Sequence</text><rect fill="#FFFFFF" height="406.0371" style="stroke:#181818;stroke-width:1.0;" width="10" x="1092.5" y="314.4609"/><rect fill="none" height="467.9688" style="stroke:#000000;stroke-width:1.5;" width="1028" x="407.5" y="260.5293"/><line style="stroke:#181818;stroke-width:0.5;stroke-dasharray:5.0,5.0;" x1="24" x2="24" y1="104.9766" y2="745.498"/><line style="stroke:#181818;stroke-width:0.5;stroke-dasharray:5.0,5.0;" x1="435.5" x2="435.5" y1="104.9766" y2="745.498"/><line style="stroke:#181818;stroke-width:0.5;stroke-dasharray:5.0,5.0;" x1="848.5" x2="848.5" y1="104.9766" y2="745.498"/><line style="stroke:#181818;stroke-width:0.5;stroke-dasharray:5.0,5.0;" x1="1097.5" x2="1097.5" y1="104.9766" y2="745.498"/><line style="stroke:#181818;stroke-width:0.5;stroke-dasharray:5.0,5.0;" x1="1336.5" x2="1336.5" y1="104.9766" y2="745.498"/><line style="stroke:#181818;stroke-width:0.5;stroke-dasharray:5.0,5.0;" x1="1397.5" x2="1397.5" y1="104.9766" y2="745.498"/><rect fill="#E2E2F0" height="30.4883" rx="2.5" ry="2.5" style="stroke:#181818;stroke-width:0.5;" width="39" x="5" y="73.4883"/><text fill="#000000" font-family="sans-serif" font-size="14" lengthAdjust="spacing" textLength="25" x="12" y="94.0234">ccw</text><rect fill="#E2E2F0" height="30.4883" rx="2.5" ry="2.5" style="stroke:#181818;stroke-width:0.5;" width="39" x="5" y="744.498"/><text fill="#000000" font-family="sans-serif" font-size="14" lengthAdjust="spacing" textLength="25" x="12" y="765.0332">ccw</text><text fill="#000000" font-family="sans-serif" font-size="14" lengthAdjust="spacing" textLength="16" x="424.5" y="102.0234">s3</text><path d="M417.5,52.4883 C417.5,42.4883 435.5,42.4883 435.5,42.4883 C435.5,42.4883 453.5,42.4883 453.5,52.4883 L453.5,78.4883 C453.5,88.4883 435.5,88.4883 435.5,88.4883 C435.5,88.4883 417.5,88.4883 417.5,78.4883 L417.5,52.4883 " fill="#E2E2F0" style="stroke:#181818;stroke-width:1.5;"/><path d="M417.5,52.4883 C417.5,62.4883 435.5,62.4883 435.5,62.4883 C435.5,62.4883 453.5,62.4883 453.5,52.4883 " fill="none" style="stroke:#181818;stroke-width:1.5;"/><text fill="#000000" font-family="sans-serif" font-size="14" lengthAdjust="spacing" textLength="16" x="424.5" y="758.0332">s3</text><path d="M417.5,770.9863 C417.5,760.9863 435.5,760.9863 435.5,760.9863 C435.5,760.9863 453.5,760.9863 453.5,770.9863 L453.5,796.9863 C453.5,806.9863 435.5,806.9863 435.5,806.9863 C435.5,806.9863 417.5,806.9863 417.5,796.9863 L417.5,770.9863 " fill="#E2E2F0" style="stroke:#181818;stroke-width:1.5;"/><path d="M417.5,770.9863 C417.5,780.9863 435.5,780.9863 435.5,780.9863 C435.5,780.9863 453.5,780.9863 453.5,770.9863 " fill="none" style="stroke:#181818;stroke-width:1.5;"/><rect fill="#E2E2F0" height="30.4883" rx="2.5" ry="2.5" style="stroke:#181818;stroke-width:0.5;" width="100" x="798.5" y="73.4883"/><text fill="#000000" font-family="sans-serif" font-size="14" lengthAdjust="spacing" textLength="86" x="805.5" y="94.0234">bfd-pipeline</text><rect fill="#E2E2F0" height="30.4883" rx="2.5" ry="2.5" style="stroke:#181818;stroke-width:0.5;" width="100" x="798.5" y="744.498"/><text fill="#000000" font-family="sans-serif" font-size="14" lengthAdjust="spacing" textLength="86" x="805.5" y="765.0332">bfd-pipeline</text><rect fill="#E2E2F0" height="30.4883" rx="2.5" ry="2.5" style="stroke:#181818;stroke-width:0.5;" width="60" x="1067.5" y="73.4883"/><text fill="#000000" font-family="sans-serif" font-size="14" lengthAdjust="spacing" textLength="46" x="1074.5" y="94.0234">splunk</text><rect fill="#E2E2F0" height="30.4883" rx="2.5" ry="2.5" style="stroke:#181818;stroke-width:0.5;" width="60" x="1067.5" y="744.498"/><text fill="#000000" font-family="sans-serif" font-size="14" lengthAdjust="spacing" textLength="46" x="1074.5" y="765.0332">splunk</text><rect fill="#E2E2F0" height="30.4883" rx="2.5" ry="2.5" style="stroke:#181818;stroke-width:0.5;" width="48" x="1312.5" y="73.4883"/><text fill="#000000" font-family="sans-serif" font-size="14" lengthAdjust="spacing" textLength="34" x="1319.5" y="94.0234">slack</text><rect fill="#E2E2F0" height="30.4883" rx="2.5" ry="2.5" style="stroke:#181818;stroke-width:0.5;" width="48" x="1312.5" y="744.498"/><text fill="#000000" font-family="sans-serif" font-size="14" lengthAdjust="spacing" textLength="34" x="1319.5" y="765.0332">slack</text><text fill="#000000" font-family="sans-serif" font-size="14" lengthAdjust="spacing" textLength="49" x="1370.5" y="102.0234">bfd-db</text><path d="M1380,52.4883 C1380,42.4883 1398,42.4883 1398,42.4883 C1398,42.4883 1416,42.4883 1416,52.4883 L1416,78.4883 C1416,88.4883 1398,88.4883 1398,88.4883 C1398,88.4883 1380,88.4883 1380,78.4883 L1380,52.4883 " fill="#E2E2F0" style="stroke:#181818;stroke-width:1.5;"/><path d="M1380,52.4883 C1380,62.4883 1398,62.4883 1398,62.4883 C1398,62.4883 1416,62.4883 1416,52.4883 " fill="none" style="stroke:#181818;stroke-width:1.5;"/><text fill="#000000" font-family="sans-serif" font-size="14" lengthAdjust="spacing" textLength="49" x="1370.5" y="758.0332">bfd-db</text><path d="M1380,770.9863 C1380,760.9863 1398,760.9863 1398,760.9863 C1398,760.9863 1416,760.9863 1416,770.9863 L1416,796.9863 C1416,806.9863 1398,806.9863 1398,806.9863 C1398,806.9863 1380,806.9863 1380,796.9863 L1380,770.9863 " fill="#E2E2F0" style="stroke:#181818;stroke-width:1.5;"/><path d="M1380,770.9863 C1380,780.9863 1398,780.9863 1398,780.9863 C1398,780.9863 1416,780.9863 1416,770.9863 " fill="none" style="stroke:#181818;stroke-width:1.5;"/><rect fill="#FFFFFF" height="406.0371" style="stroke:#181818;stroke-width:1.0;" width="10" x="1092.5" y="314.4609"/><path d="M921,119.9766 L921,159.9766 L1274,159.9766 L1274,129.9766 L1264,119.9766 L921,119.9766 " fill="#FEFFDD" style="stroke:#181818;stroke-width:0.5;"/><path d="M1264,119.9766 L1264,129.9766 L1274,129.9766 L1264,119.9766 " fill="#FEFFDD" style="stroke:#181818;stroke-width:0.5;"/><text fill="#000000" font-family="sans-serif" font-size="13" lengthAdjust="spacing" textLength="184" x="927" y="137.5449">Specific Splunk Components:</text><text fill="#000000" font-family="sans-serif" font-size="13" lengthAdjust="spacing" textLength="328" x="931" y="152.8555">forwarders/indexers/search heads/ui/configuration</text><polygon fill="#181818" points="423.5,198.2188,433.5,202.2188,423.5,206.2188,427.5,202.2188" style="stroke:#181818;stroke-width:1.0;"/><line style="stroke:#181818;stroke-width:1.0;" x1="24.5" x2="429.5" y1="202.2188" y2="202.2188"/><text fill="#000000" font-family="sans-serif" font-size="13" lengthAdjust="spacing" textLength="383" x="31.5" y="182.166">Delivery of RIF and manifest files to 'bfd-prod-etl' S3 bucket</text><text fill="#000000" font-family="sans-serif" font-size="13" lengthAdjust="spacing" textLength="240" x="35.5" y="197.4766">under 'Incoming/&lt;timestamp&gt;' prefix</text><polygon fill="#181818" points="35.5,212.2188,25.5,216.2188,35.5,220.2188,31.5,216.2188" style="stroke:#181818;stroke-width:1.0;"/><line style="stroke:#181818;stroke-width:1.0;stroke-dasharray:2.0,2.0;" x1="29.5" x2="434.5" y1="216.2188" y2="216.2188"/><polygon fill="#181818" points="836.5,241.5293,846.5,245.5293,836.5,249.5293,840.5,245.5293" style="stroke:#181818;stroke-width:1.0;"/><line style="stroke:#181818;stroke-width:1.0;" x1="435.5" x2="842.5" y1="245.5293" y2="245.5293"/><text fill="#000000" font-family="sans-serif" font-size="13" lengthAdjust="spacing" textLength="345" x="442.5" y="240.7871">ETL/RIF Loader process triggered via event notification</text><path d="M407.5,260.5293 L477.5,260.5293 L477.5,267.8398 L467.5,277.8398 L407.5,277.8398 L407.5,260.5293 " fill="#EEEEEE" style="stroke:#000000;stroke-width:1.5;"/><rect fill="none" height="467.9688" style="stroke:#000000;stroke-width:1.5;" width="1028" x="407.5" y="260.5293"/><text fill="#000000" font-family="sans-serif" font-size="13" font-weight="bold" lengthAdjust="spacing" textLength="25" x="422.5" y="274.0977">ETL</text><polygon fill="#181818" points="859.5,310.4609,849.5,314.4609,859.5,318.4609,855.5,314.4609" style="stroke:#181818;stroke-width:1.0;"/><polygon fill="#181818" points="1080.5,310.4609,1090.5,314.4609,1080.5,318.4609,1084.5,314.4609" style="stroke:#181818;stroke-width:1.0;"/><line style="stroke:#181818;stroke-width:1.0;" x1="853.5" x2="1086.5" y1="314.4609" y2="314.4609"/><text fill="#000000" font-family="sans-serif" font-size="13" lengthAdjust="spacing" textLength="177" x="865.5" y="294.4082">bfd-pipeline logs forwarded</text><text fill="#000000" font-family="sans-serif" font-size="13" lengthAdjust="spacing" textLength="197" x="869.5" y="309.7188">to splunk via splunk-forwarder</text><polygon fill="#181818" points="446.5,339.7715,436.5,343.7715,446.5,347.7715,442.5,343.7715" style="stroke:#181818;stroke-width:1.0;"/><line style="stroke:#181818;stroke-width:1.0;" x1="440.5" x2="847.5" y1="343.7715" y2="343.7715"/><text fill="#000000" font-family="sans-serif" font-size="13" lengthAdjust="spacing" textLength="140" x="452.5" y="339.0293">query for new RIF data</text><polygon fill="#181818" points="836.5,369.082,846.5,373.082,836.5,377.082,840.5,373.082" style="stroke:#181818;stroke-width:1.0;"/><line style="stroke:#181818;stroke-width:1.0;stroke-dasharray:2.0,2.0;" x1="435.5" x2="842.5" y1="373.082" y2="373.082"/><text fill="#000000" font-family="sans-serif" font-size="13" lengthAdjust="spacing" textLength="99" x="442.5" y="368.3398">data discovered</text><line style="stroke:#181818;stroke-width:1.0;" x1="1102.5" x2="1144.5" y1="402.3926" y2="402.3926"/><line style="stroke:#181818;stroke-width:1.0;" x1="1144.5" x2="1144.5" y1="402.3926" y2="415.3926"/><line style="stroke:#181818;stroke-width:1.0;" x1="1103.5" x2="1144.5" y1="415.3926" y2="415.3926"/><polygon fill="#181818" points="1113.5,411.3926,1103.5,415.3926,1113.5,419.3926,1109.5,415.3926" style="stroke:#181818;stroke-width:1.0;"/><text fill="#000000" font-family="sans-serif" font-size="13" lengthAdjust="spacing" textLength="215" x="1109.5" y="397.6504">data discovery messages detected</text><polygon fill="#181818" points="1324.5,456.0137,1334.5,460.0137,1324.5,464.0137,1328.5,460.0137" style="stroke:#181818;stroke-width:1.0;"/><line style="stroke:#181818;stroke-width:1.0;" x1="1102.5" x2="1330.5" y1="460.0137" y2="460.0137"/><text fill="#000000" font-family="sans-serif" font-size="13" lengthAdjust="spacing" textLength="165" x="1109.5" y="439.9609">data discovery status sent</text><text fill="#000000" font-family="sans-serif" font-size="13" lengthAdjust="spacing" textLength="153" x="1113.5" y="455.2715">to #bfd-notices channel</text><polygon fill="#181818" points="446.5,485.3242,436.5,489.3242,446.5,493.3242,442.5,489.3242" style="stroke:#181818;stroke-width:1.0;"/><line style="stroke:#181818;stroke-width:1.0;" x1="440.5" x2="847.5" y1="489.3242" y2="489.3242"/><text fill="#000000" font-family="sans-serif" font-size="13" lengthAdjust="spacing" textLength="164" x="452.5" y="484.582">request manifest, RIF files</text><polygon fill="#181818" points="836.5,514.6348,846.5,518.6348,836.5,522.6348,840.5,518.6348" style="stroke:#181818;stroke-width:1.0;"/><line style="stroke:#181818;stroke-width:1.0;stroke-dasharray:2.0,2.0;" x1="435.5" x2="842.5" y1="518.6348" y2="518.6348"/><text fill="#000000" font-family="sans-serif" font-size="13" lengthAdjust="spacing" textLength="183" x="442.5" y="513.8926">delivery of manifest, RIF files</text><polygon fill="#181818" points="1386,543.9453,1396,547.9453,1386,551.9453,1390,547.9453" style="stroke:#181818;stroke-width:1.0;"/><line style="stroke:#181818;stroke-width:1.0;" x1="848.5" x2="1392" y1="547.9453" y2="547.9453"/><text fill="#000000" font-family="sans-serif" font-size="13" lengthAdjust="spacing" textLength="225" x="855.5" y="543.2031">DB operations applied for resources</text><polygon fill="#181818" points="859.5,557.9453,849.5,561.9453,859.5,565.9453,855.5,561.9453" style="stroke:#181818;stroke-width:1.0;"/><line style="stroke:#181818;stroke-width:1.0;stroke-dasharray:2.0,2.0;" x1="853.5" x2="1397" y1="561.9453" y2="561.9453"/><line style="stroke:#181818;stroke-width:1.0;" x1="848.5" x2="890.5" y1="591.2559" y2="591.2559"/><line style="stroke:#181818;stroke-width:1.0;" x1="890.5" x2="890.5" y1="591.2559" y2="604.2559"/><line style="stroke:#181818;stroke-width:1.0;" x1="849.5" x2="890.5" y1="604.2559" y2="604.2559"/><polygon fill="#181818" points="859.5,600.2559,849.5,604.2559,859.5,608.2559,855.5,604.2559" style="stroke:#181818;stroke-width:1.0;"/><text fill="#000000" font-family="sans-serif" font-size="13" lengthAdjust="spacing" textLength="235" x="855.5" y="586.5137">Process complete, load status logged</text><polygon fill="#181818" points="446.5,629.5664,436.5,633.5664,446.5,637.5664,442.5,633.5664" style="stroke:#181818;stroke-width:1.0;"/><line style="stroke:#181818;stroke-width:1.0;" x1="440.5" x2="847.5" y1="633.5664" y2="633.5664"/><text fill="#000000" font-family="sans-serif" font-size="13" lengthAdjust="spacing" textLength="389" x="452.5" y="628.8242">move completed RIFs, manifests to 'Done/&lt;timestamp' prefix</text><line style="stroke:#181818;stroke-width:1.0;" x1="1102.5" x2="1144.5" y1="662.877" y2="662.877"/><line style="stroke:#181818;stroke-width:1.0;" x1="1144.5" x2="1144.5" y1="662.877" y2="675.877"/><line style="stroke:#181818;stroke-width:1.0;" x1="1103.5" x2="1144.5" y1="675.877" y2="675.877"/><polygon fill="#181818" points="1113.5,671.877,1103.5,675.877,1113.5,679.877,1109.5,675.877" style="stroke:#181818;stroke-width:1.0;"/><text fill="#000000" font-family="sans-serif" font-size="13" lengthAdjust="spacing" textLength="182" x="1109.5" y="658.1348">data load messages detected</text><polygon fill="#181818" points="1324.5,716.498,1334.5,720.498,1324.5,724.498,1328.5,720.498" style="stroke:#181818;stroke-width:1.0;"/><line style="stroke:#181818;stroke-width:1.0;" x1="1097.5" x2="1330.5" y1="720.498" y2="720.498"/><text fill="#000000" font-family="sans-serif" font-size="13" lengthAdjust="spacing" textLength="132" x="1104.5" y="700.4453">data load status sent</text><text fill="#000000" font-family="sans-serif" font-size="13" lengthAdjust="spacing" textLength="153" x="1108.5" y="715.7559">to #bfd-notices channel</text><!--MD5=[ab84c1fbc221fb394e8f31e2531dc7ee]
@startuml
title BFD-Pipeline-CCW Ingestion of Beneficiary/Claim Data Sequence
participant ccw
database s3
participant "bfd-pipeline"
participant splunk
note over splunk: Specific Splunk Components: \n forwarders/indexers/search heads/ui/configuration
participant slack
database "bfd-db"
ccw -> s3: Delivery of RIF and manifest files to 'bfd-prod-etl' S3 bucket \n under 'Incoming/<timestamp>' prefix
s3 - -> ccw
s3 -> "bfd-pipeline": ETL/RIF Loader process triggered via event notification
group ETL
"bfd-pipeline" <-> splunk: bfd-pipeline logs forwarded \n to splunk via splunk-forwarder
activate splunk
"bfd-pipeline" -> s3: query for new RIF data
s3 - -> "bfd-pipeline": data discovered
splunk -> splunk: data discovery messages detected
splunk -> slack: data discovery status sent \n to #bfd-notices channel
"bfd-pipeline" -> s3: request manifest, RIF files
s3 - -> "bfd-pipeline": delivery of manifest, RIF files
"bfd-pipeline" -> "bfd-db": DB operations applied for resources
"bfd-db" - -> "bfd-pipeline"
"bfd-pipeline" -> "bfd-pipeline": Process complete, load status logged
"bfd-pipeline" -> s3: move completed RIFs, manifests to 'Done/<timestamp' prefix
splunk -> splunk: data load messages detected
splunk -> slack: data load status sent \n to #bfd-notices channel
deactivate splunk
end
@enduml

PlantUML version 1.2022.7(Mon Aug 22 10:01:30 PDT 2022)
(GPL source distribution)
Java Runtime: Java(TM) SE Runtime Environment
JVM: Java HotSpot(TM) 64-Bit Server VM
Default Encoding: UTF-8
Language: en
Country: US
--></g></svg>