<?xml version="1.0" encoding="UTF-8" standalone="no"?><svg xmlns="http://www.w3.org/2000/svg" xmlns:xlink="http://www.w3.org/1999/xlink" contentStyleType="text/css" height="1114px" preserveAspectRatio="none" style="width:1410px;height:1114px;background:#FFFFFF;" version="1.1" viewBox="0 0 1410 1114" width="1410px" zoomAndPan="magnify"><defs/><g><rect fill="none" height="26.4883" id="_title" style="stroke:none;stroke-width:1.0;" width="483" x="465.25" y="10"/><text fill="#000000" font-family="sans-serif" font-size="14" font-weight="bold" lengthAdjust="spacing" textLength="473" x="470.25" y="28.5352">BFD-Pipeline-CCW Ingestion of Beneficiary/Claim Data Sequence</text><rect fill="none" height="264.1055" style="stroke:#000000;stroke-width:1.5;" width="875" x="529.5" y="493.0137"/><line style="stroke:#181818;stroke-width:0.5;stroke-dasharray:5.0,5.0;" x1="24" x2="24" y1="104.9766" y2="1035.6035"/><line style="stroke:#181818;stroke-width:0.5;stroke-dasharray:5.0,5.0;" x1="288.5" x2="288.5" y1="104.9766" y2="1035.6035"/><line style="stroke:#181818;stroke-width:0.5;stroke-dasharray:5.0,5.0;" x1="589.5" x2="589.5" y1="104.9766" y2="1035.6035"/><line style="stroke:#181818;stroke-width:0.5;stroke-dasharray:5.0,5.0;" x1="1117.5" x2="1117.5" y1="104.9766" y2="1035.6035"/><line style="stroke:#181818;stroke-width:0.5;stroke-dasharray:5.0,5.0;" x1="1305.5" x2="1305.5" y1="104.9766" y2="1035.6035"/><line style="stroke:#181818;stroke-width:0.5;stroke-dasharray:5.0,5.0;" x1="1366.5" x2="1366.5" y1="104.9766" y2="1035.6035"/><rect fill="#E2E2F0" height="30.4883" rx="2.5" ry="2.5" style="stroke:#181818;stroke-width:0.5;" width="39" x="5" y="73.4883"/><text fill="#000000" font-family="sans-serif" font-size="14" lengthAdjust="spacing" textLength="25" x="12" y="94.0234">ccw</text><rect fill="#E2E2F0" height="30.4883" rx="2.5" ry="2.5" style="stroke:#181818;stroke-width:0.5;" width="39" x="5" y="1034.6035"/><text fill="#000000" font-family="sans-serif" font-size="14" lengthAdjust="spacing" textLength="25" x="12" y="1055.1387">ccw</text><text fill="#000000" font-family="sans-serif" font-size="14" lengthAdjust="spacing" textLength="16" x="277.5" y="102.0234">s3</text><path d="M270.5,52.4883 C270.5,42.4883 288.5,42.4883 288.5,42.4883 C288.5,42.4883 306.5,42.4883 306.5,52.4883 L306.5,78.4883 C306.5,88.4883 288.5,88.4883 288.5,88.4883 C288.5,88.4883 270.5,88.4883 270.5,78.4883 L270.5,52.4883 " fill="#E2E2F0" style="stroke:#181818;stroke-width:1.5;"/><path d="M270.5,52.4883 C270.5,62.4883 288.5,62.4883 288.5,62.4883 C288.5,62.4883 306.5,62.4883 306.5,52.4883 " fill="none" style="stroke:#181818;stroke-width:1.5;"/><text fill="#000000" font-family="sans-serif" font-size="14" lengthAdjust="spacing" textLength="16" x="277.5" y="1048.1387">s3</text><path d="M270.5,1061.0918 C270.5,1051.0918 288.5,1051.0918 288.5,1051.0918 C288.5,1051.0918 306.5,1051.0918 306.5,1061.0918 L306.5,1087.0918 C306.5,1097.0918 288.5,1097.0918 288.5,1097.0918 C288.5,1097.0918 270.5,1097.0918 270.5,1087.0918 L270.5,1061.0918 " fill="#E2E2F0" style="stroke:#181818;stroke-width:1.5;"/><path d="M270.5,1061.0918 C270.5,1071.0918 288.5,1071.0918 288.5,1071.0918 C288.5,1071.0918 306.5,1071.0918 306.5,1061.0918 " fill="none" style="stroke:#181818;stroke-width:1.5;"/><rect fill="#E2E2F0" height="30.4883" rx="2.5" ry="2.5" style="stroke:#181818;stroke-width:0.5;" width="100" x="539.5" y="73.4883"/><text fill="#000000" font-family="sans-serif" font-size="14" lengthAdjust="spacing" textLength="86" x="546.5" y="94.0234">bfd-pipeline</text><rect fill="#E2E2F0" height="30.4883" rx="2.5" ry="2.5" style="stroke:#181818;stroke-width:0.5;" width="100" x="539.5" y="1034.6035"/><text fill="#000000" font-family="sans-serif" font-size="14" lengthAdjust="spacing" textLength="86" x="546.5" y="1055.1387">bfd-pipeline</text><rect fill="#E2E2F0" height="30.4883" rx="2.5" ry="2.5" style="stroke:#181818;stroke-width:0.5;" width="60" x="1087.5" y="73.4883"/><text fill="#000000" font-family="sans-serif" font-size="14" lengthAdjust="spacing" textLength="46" x="1094.5" y="94.0234">splunk</text><rect fill="#E2E2F0" height="30.4883" rx="2.5" ry="2.5" style="stroke:#181818;stroke-width:0.5;" width="60" x="1087.5" y="1034.6035"/><text fill="#000000" font-family="sans-serif" font-size="14" lengthAdjust="spacing" textLength="46" x="1094.5" y="1055.1387">splunk</text><rect fill="#E2E2F0" height="30.4883" rx="2.5" ry="2.5" style="stroke:#181818;stroke-width:0.5;" width="48" x="1281.5" y="73.4883"/><text fill="#000000" font-family="sans-serif" font-size="14" lengthAdjust="spacing" textLength="34" x="1288.5" y="94.0234">slack</text><rect fill="#E2E2F0" height="30.4883" rx="2.5" ry="2.5" style="stroke:#181818;stroke-width:0.5;" width="48" x="1281.5" y="1034.6035"/><text fill="#000000" font-family="sans-serif" font-size="14" lengthAdjust="spacing" textLength="34" x="1288.5" y="1055.1387">slack</text><text fill="#000000" font-family="sans-serif" font-size="14" lengthAdjust="spacing" textLength="49" x="1339.5" y="102.0234">bfd-db</text><path d="M1349,52.4883 C1349,42.4883 1367,42.4883 1367,42.4883 C1367,42.4883 1385,42.4883 1385,52.4883 L1385,78.4883 C1385,88.4883 1367,88.4883 1367,88.4883 C1367,88.4883 1349,88.4883 1349,78.4883 L1349,52.4883 " fill="#E2E2F0" style="stroke:#181818;stroke-width:1.5;"/><path d="M1349,52.4883 C1349,62.4883 1367,62.4883 1367,62.4883 C1367,62.4883 1385,62.4883 1385,52.4883 " fill="none" style="stroke:#181818;stroke-width:1.5;"/><text fill="#000000" font-family="sans-serif" font-size="14" lengthAdjust="spacing" textLength="49" x="1339.5" y="1048.1387">bfd-db</text><path d="M1349,1061.0918 C1349,1051.0918 1367,1051.0918 1367,1051.0918 C1367,1051.0918 1385,1051.0918 1385,1061.0918 L1385,1087.0918 C1385,1097.0918 1367,1097.0918 1367,1097.0918 C1367,1097.0918 1349,1097.0918 1349,1087.0918 L1349,1061.0918 " fill="#E2E2F0" style="stroke:#181818;stroke-width:1.5;"/><path d="M1349,1061.0918 C1349,1071.0918 1367,1071.0918 1367,1071.0918 C1367,1071.0918 1385,1071.0918 1385,1061.0918 " fill="none" style="stroke:#181818;stroke-width:1.5;"/><path d="M941,119.9766 L941,159.9766 L1294,159.9766 L1294,129.9766 L1284,119.9766 L941,119.9766 " fill="#FEFFDD" style="stroke:#181818;stroke-width:0.5;"/><path d="M1284,119.9766 L1284,129.9766 L1294,129.9766 L1284,119.9766 " fill="#FEFFDD" style="stroke:#181818;stroke-width:0.5;"/><text fill="#000000" font-family="sans-serif" font-size="13" lengthAdjust="spacing" textLength="184" x="947" y="137.5449">Specific Splunk Components:</text><text fill="#000000" font-family="sans-serif" font-size="13" lengthAdjust="spacing" textLength="328" x="951" y="152.8555">forwarders/indexers/search heads/ui/configuration</text><polygon fill="#181818" points="276.5,213.5293,286.5,217.5293,276.5,221.5293,280.5,217.5293" style="stroke:#181818;stroke-width:1.0;"/><line style="stroke:#181818;stroke-width:1.0;" x1="24.5" x2="282.5" y1="217.5293" y2="217.5293"/><text fill="#000000" font-family="sans-serif" font-size="13" lengthAdjust="spacing" textLength="161" x="31.5" y="182.166">Timestamped folder with:</text><text fill="#000000" font-family="sans-serif" font-size="13" lengthAdjust="spacing" textLength="232" x="35.5" y="197.4766">RIF files for a resource, manifest.xml</text><text fill="#000000" font-family="sans-serif" font-size="13" lengthAdjust="spacing" textLength="215" x="35.5" y="212.7871">placed in 'bfd-prod-etl' S3 bucket</text><line style="stroke:#181818;stroke-width:1.0;" x1="288.5" x2="330.5" y1="262.1504" y2="262.1504"/><line style="stroke:#181818;stroke-width:1.0;" x1="330.5" x2="330.5" y1="262.1504" y2="275.1504"/><line style="stroke:#181818;stroke-width:1.0;" x1="289.5" x2="330.5" y1="275.1504" y2="275.1504"/><polygon fill="#181818" points="299.5,271.1504,289.5,275.1504,299.5,279.1504,295.5,275.1504" style="stroke:#181818;stroke-width:1.0;"/><text fill="#000000" font-family="sans-serif" font-size="13" lengthAdjust="spacing" textLength="189" x="295.5" y="242.0977">Timestamped folder moved to</text><text fill="#000000" font-family="sans-serif" font-size="13" lengthAdjust="spacing" textLength="170" x="299.5" y="257.4082">'Incoming' folder of bucket</text><polygon fill="#181818" points="577.5,300.4609,587.5,304.4609,577.5,308.4609,581.5,304.4609" style="stroke:#181818;stroke-width:1.0;"/><line style="stroke:#181818;stroke-width:1.0;" x1="288.5" x2="583.5" y1="304.4609" y2="304.4609"/><text fill="#000000" font-family="sans-serif" font-size="13" lengthAdjust="spacing" textLength="277" x="295.5" y="299.7188">New data discovered by pipeline and logged</text><polygon fill="#181818" points="1105.5,329.7715,1115.5,333.7715,1105.5,337.7715,1109.5,333.7715" style="stroke:#181818;stroke-width:1.0;"/><line style="stroke:#181818;stroke-width:1.0;" x1="589.5" x2="1111.5" y1="333.7715" y2="333.7715"/><text fill="#000000" font-family="sans-serif" font-size="13" lengthAdjust="spacing" textLength="504" x="596.5" y="329.0293">Data discovery messages in pipeline logs made available for querying by splunk</text><polygon fill="#181818" points="600.5,359.082,590.5,363.082,600.5,367.082,596.5,363.082" style="stroke:#181818;stroke-width:1.0;"/><line style="stroke:#181818;stroke-width:1.0;" x1="594.5" x2="1116.5" y1="363.082" y2="363.082"/><text fill="#000000" font-family="sans-serif" font-size="13" lengthAdjust="spacing" textLength="286" x="606.5" y="358.3398">Splunk discovers new data from pipeline logs</text><polygon fill="#181818" points="1105.5,373.082,1115.5,377.082,1105.5,381.082,1109.5,377.082" style="stroke:#181818;stroke-width:1.0;"/><line style="stroke:#181818;stroke-width:1.0;stroke-dasharray:2.0,2.0;" x1="589.5" x2="1111.5" y1="377.082" y2="377.082"/><polygon fill="#181818" points="1293.5,417.7031,1303.5,421.7031,1293.5,425.7031,1297.5,421.7031" style="stroke:#181818;stroke-width:1.0;"/><line style="stroke:#181818;stroke-width:1.0;" x1="1117.5" x2="1299.5" y1="421.7031" y2="421.7031"/><text fill="#000000" font-family="sans-serif" font-size="13" lengthAdjust="spacing" textLength="160" x="1124.5" y="401.6504">Data discover status sent</text><text fill="#000000" font-family="sans-serif" font-size="13" lengthAdjust="spacing" textLength="156" x="1128.5" y="416.9609">to #BFD-notices channel</text><polygon fill="#181818" points="600.5,431.7031,590.5,435.7031,600.5,439.7031,596.5,435.7031" style="stroke:#181818;stroke-width:1.0;"/><line style="stroke:#181818;stroke-width:1.0;stroke-dasharray:2.0,2.0;" x1="594.5" x2="1304.5" y1="435.7031" y2="435.7031"/><line style="stroke:#181818;stroke-width:1.0;" x1="589.5" x2="631.5" y1="465.0137" y2="465.0137"/><line style="stroke:#181818;stroke-width:1.0;" x1="631.5" x2="631.5" y1="465.0137" y2="478.0137"/><line style="stroke:#181818;stroke-width:1.0;" x1="590.5" x2="631.5" y1="478.0137" y2="478.0137"/><polygon fill="#181818" points="600.5,474.0137,590.5,478.0137,600.5,482.0137,596.5,478.0137" style="stroke:#181818;stroke-width:1.0;"/><text fill="#000000" font-family="sans-serif" font-size="13" lengthAdjust="spacing" textLength="208" x="596.5" y="460.2715">ETL/RIF Loader process triggered</text><path d="M529.5,493.0137 L599.5,493.0137 L599.5,500.3242 L589.5,510.3242 L529.5,510.3242 L529.5,493.0137 " fill="#EEEEEE" style="stroke:#000000;stroke-width:1.5;"/><rect fill="none" height="264.1055" style="stroke:#000000;stroke-width:1.5;" width="875" x="529.5" y="493.0137"/><text fill="#000000" font-family="sans-serif" font-size="13" font-weight="bold" lengthAdjust="spacing" textLength="25" x="544.5" y="506.582">ETL</text><line style="stroke:#181818;stroke-width:1.0;" x1="589.5" x2="631.5" y1="546.9453" y2="546.9453"/><line style="stroke:#181818;stroke-width:1.0;" x1="631.5" x2="631.5" y1="546.9453" y2="559.9453"/><line style="stroke:#181818;stroke-width:1.0;" x1="590.5" x2="631.5" y1="559.9453" y2="559.9453"/><polygon fill="#181818" points="600.5,555.9453,590.5,559.9453,600.5,563.9453,596.5,559.9453" style="stroke:#181818;stroke-width:1.0;"/><text fill="#000000" font-family="sans-serif" font-size="13" lengthAdjust="spacing" textLength="283" x="596.5" y="526.8926">datasetMonitorListener interface instantiated</text><text fill="#000000" font-family="sans-serif" font-size="13" lengthAdjust="spacing" textLength="241" x="600.5" y="542.2031">in CcwRifLoadJob class to manage ETL</text><line style="stroke:#181818;stroke-width:1.0;" x1="589.5" x2="631.5" y1="635.1875" y2="635.1875"/><line style="stroke:#181818;stroke-width:1.0;" x1="631.5" x2="631.5" y1="635.1875" y2="648.1875"/><line style="stroke:#181818;stroke-width:1.0;" x1="590.5" x2="631.5" y1="648.1875" y2="648.1875"/><polygon fill="#181818" points="600.5,644.1875,590.5,648.1875,600.5,652.1875,596.5,648.1875" style="stroke:#181818;stroke-width:1.0;"/><text fill="#000000" font-family="sans-serif" font-size="13" lengthAdjust="spacing" textLength="231" x="596.5" y="584.5137">ETL process parses manifest.xml file</text><text fill="#000000" font-family="sans-serif" font-size="13" lengthAdjust="spacing" textLength="160" x="600.5" y="599.8242">for specific resource data</text><text fill="#000000" font-family="sans-serif" font-size="13" lengthAdjust="spacing" textLength="178" x="600.5" y="615.1348">and checks for DB operation</text><text fill="#000000" font-family="sans-serif" font-size="13" lengthAdjust="spacing" textLength="258" x="600.5" y="630.4453">denoted  in manifest i.e. INSERT/UPDATE</text><polygon fill="#181818" points="1355,688.8086,1365,692.8086,1355,696.8086,1359,692.8086" style="stroke:#181818;stroke-width:1.0;"/><line style="stroke:#181818;stroke-width:1.0;" x1="589.5" x2="1361" y1="692.8086" y2="692.8086"/><text fill="#000000" font-family="sans-serif" font-size="13" lengthAdjust="spacing" textLength="218" x="596.5" y="672.7559">DB operations applied for resource</text><text fill="#000000" font-family="sans-serif" font-size="13" lengthAdjust="spacing" textLength="288" x="600.5" y="688.0664">based on column and rif layout fhir mappings</text><polygon fill="#181818" points="600.5,702.8086,590.5,706.8086,600.5,710.8086,596.5,706.8086" style="stroke:#181818;stroke-width:1.0;"/><line style="stroke:#181818;stroke-width:1.0;stroke-dasharray:2.0,2.0;" x1="594.5" x2="1366" y1="706.8086" y2="706.8086"/><line style="stroke:#181818;stroke-width:1.0;" x1="589.5" x2="631.5" y1="736.1191" y2="736.1191"/><line style="stroke:#181818;stroke-width:1.0;" x1="631.5" x2="631.5" y1="736.1191" y2="749.1191"/><line style="stroke:#181818;stroke-width:1.0;" x1="590.5" x2="631.5" y1="749.1191" y2="749.1191"/><polygon fill="#181818" points="600.5,745.1191,590.5,749.1191,600.5,753.1191,596.5,749.1191" style="stroke:#181818;stroke-width:1.0;"/><text fill="#000000" font-family="sans-serif" font-size="13" lengthAdjust="spacing" textLength="348" x="596.5" y="731.377">Process marked as 'complete' and load status is logged</text><polygon fill="#181818" points="1105.5,781.4297,1115.5,785.4297,1105.5,789.4297,1109.5,785.4297" style="stroke:#181818;stroke-width:1.0;"/><line style="stroke:#181818;stroke-width:1.0;" x1="589.5" x2="1111.5" y1="785.4297" y2="785.4297"/><text fill="#000000" font-family="sans-serif" font-size="13" lengthAdjust="spacing" textLength="471" x="596.5" y="780.6875">Data load messages in pipeline logs made available for querying by splunk</text><polygon fill="#181818" points="600.5,810.7402,590.5,814.7402,600.5,818.7402,596.5,814.7402" style="stroke:#181818;stroke-width:1.0;"/><line style="stroke:#181818;stroke-width:1.0;" x1="594.5" x2="1116.5" y1="814.7402" y2="814.7402"/><text fill="#000000" font-family="sans-serif" font-size="13" lengthAdjust="spacing" textLength="317" x="606.5" y="809.998">Splunk discovers new data load from pipeline logs</text><polygon fill="#181818" points="1105.5,824.7402,1115.5,828.7402,1105.5,832.7402,1109.5,828.7402" style="stroke:#181818;stroke-width:1.0;"/><line style="stroke:#181818;stroke-width:1.0;stroke-dasharray:2.0,2.0;" x1="589.5" x2="1111.5" y1="828.7402" y2="828.7402"/><polygon fill="#181818" points="1293.5,869.3613,1303.5,873.3613,1293.5,877.3613,1297.5,873.3613" style="stroke:#181818;stroke-width:1.0;"/><line style="stroke:#181818;stroke-width:1.0;" x1="1117.5" x2="1299.5" y1="873.3613" y2="873.3613"/><text fill="#000000" font-family="sans-serif" font-size="13" lengthAdjust="spacing" textLength="104" x="1124.5" y="853.3086">Load status sent</text><text fill="#000000" font-family="sans-serif" font-size="13" lengthAdjust="spacing" textLength="156" x="1128.5" y="868.6191">to #BFD-notices channel</text><polygon fill="#181818" points="299.5,883.3613,289.5,887.3613,299.5,891.3613,295.5,887.3613" style="stroke:#181818;stroke-width:1.0;"/><line style="stroke:#181818;stroke-width:1.0;stroke-dasharray:2.0,2.0;" x1="293.5" x2="1304.5" y1="887.3613" y2="887.3613"/><line style="stroke:#181818;stroke-width:1.0;" x1="288.5" x2="330.5" y1="931.9824" y2="931.9824"/><line style="stroke:#181818;stroke-width:1.0;" x1="330.5" x2="330.5" y1="931.9824" y2="944.9824"/><line style="stroke:#181818;stroke-width:1.0;" x1="289.5" x2="330.5" y1="944.9824" y2="944.9824"/><polygon fill="#181818" points="299.5,940.9824,289.5,944.9824,299.5,948.9824,295.5,944.9824" style="stroke:#181818;stroke-width:1.0;"/><text fill="#000000" font-family="sans-serif" font-size="13" lengthAdjust="spacing" textLength="252" x="295.5" y="911.9297">Timestamped folder for resource moved</text><text fill="#000000" font-family="sans-serif" font-size="13" lengthAdjust="spacing" textLength="224" x="299.5" y="927.2402">from 'Incoming' to the 'Done' folder</text><polygon fill="#181818" points="577.5,985.6035,587.5,989.6035,577.5,993.6035,581.5,989.6035" style="stroke:#181818;stroke-width:1.0;"/><line style="stroke:#181818;stroke-width:1.0;stroke-dasharray:2.0,2.0;" x1="288.5" x2="583.5" y1="989.6035" y2="989.6035"/><text fill="#000000" font-family="sans-serif" font-size="13" lengthAdjust="spacing" textLength="190" x="295.5" y="969.5508">ETL process continues if more</text><text fill="#000000" font-family="sans-serif" font-size="13" lengthAdjust="spacing" textLength="215" x="299.5" y="984.8613">resources still in 'Incoming' folder</text><polygon fill="#181818" points="299.5,999.6035,289.5,1003.6035,299.5,1007.6035,295.5,1003.6035" style="stroke:#181818;stroke-width:1.0;"/><line style="stroke:#181818;stroke-width:1.0;stroke-dasharray:2.0,2.0;" x1="293.5" x2="588.5" y1="1003.6035" y2="1003.6035"/><polygon fill="#181818" points="35.5,1013.6035,25.5,1017.6035,35.5,1021.6035,31.5,1017.6035" style="stroke:#181818;stroke-width:1.0;"/><line style="stroke:#181818;stroke-width:1.0;stroke-dasharray:2.0,2.0;" x1="29.5" x2="287.5" y1="1017.6035" y2="1017.6035"/><!--MD5=[225b75de3a254a3d705c119c39e31a59]
@startuml
title BFD-Pipeline-CCW Ingestion of Beneficiary/Claim Data Sequence
participant ccw
database s3
participant "bfd-pipeline"
participant splunk
note over splunk: Specific Splunk Components: \n forwarders/indexers/search heads/ui/configuration
participant slack
database "bfd-db"
ccw -> s3: Timestamped folder with: \n RIF files for a resource, manifest.xml \n placed in 'bfd-prod-etl' S3 bucket  
s3 -> s3: Timestamped folder moved to \n 'Incoming' folder of bucket
s3 -> "bfd-pipeline": New data discovered by pipeline and logged
"bfd-pipeline" -> splunk: Data discovery messages in pipeline logs made available for querying by splunk
splunk -> "bfd-pipeline": Splunk discovers new data from pipeline logs
"bfd-pipeline" - -> splunk
splunk -> slack: Data discover status sent \n to #BFD-notices channel
slack - -> "bfd-pipeline" 
"bfd-pipeline" -> "bfd-pipeline": ETL/RIF Loader process triggered
group ETL
"bfd-pipeline" -> "bfd-pipeline": datasetMonitorListener interface instantiated \n in CcwRifLoadJob class to manage ETL
"bfd-pipeline" -> "bfd-pipeline": ETL process parses manifest.xml file \n for specific resource data \n and checks for DB operation \n denoted  in manifest i.e. INSERT/UPDATE
"bfd-pipeline" -> "bfd-db": DB operations applied for resource \n based on column and rif layout fhir mappings
"bfd-db" - -> "bfd-pipeline"
"bfd-pipeline" -> "bfd-pipeline": Process marked as 'complete' and load status is logged
end
"bfd-pipeline" -> splunk: Data load messages in pipeline logs made available for querying by splunk
splunk -> "bfd-pipeline": Splunk discovers new data load from pipeline logs
"bfd-pipeline" - -> splunk
splunk -> slack: Load status sent \n to #BFD-notices channel
slack - -> s3
s3 -> s3: Timestamped folder for resource moved \n from 'Incoming' to the 'Done' folder
s3 - -> "bfd-pipeline": ETL process continues if more \n resources still in 'Incoming' folder
"bfd-pipeline" - -> s3
s3- -> ccw
@enduml

PlantUML version 1.2022.7(Mon Aug 22 10:01:30 PDT 2022)
(GPL source distribution)
Java Runtime: Java(TM) SE Runtime Environment
JVM: Java HotSpot(TM) 64-Bit Server VM
Default Encoding: UTF-8
Language: en
Country: US
--></g></svg>