<?xml version="1.0" encoding="us-ascii" standalone="no"?><svg xmlns="http://www.w3.org/2000/svg" xmlns:xlink="http://www.w3.org/1999/xlink" contentStyleType="text/css" height="1050px" preserveAspectRatio="none" style="width:2364px;height:1050px;background:#FFFFFF;" version="1.1" viewBox="0 0 2364 1050" width="2364px" zoomAndPan="magnify"><defs/><g><text fill="#000000" font-family="sans-serif" font-size="14" font-weight="bold" lengthAdjust="spacing" textLength="473" x="947.25" y="28.5352">BFD-Pipeline-CCW Ingestion of Beneficiary/Claim Data Sequence</text><rect fill="#FFFFFF" height="406.0371" style="stroke:#181818;stroke-width:1.0;" width="10" x="2015.5" y="423.7031"/><rect fill="none" height="467.9688" style="stroke:#000000;stroke-width:1.5;" width="1851" x="507.5" y="369.7715"/><line style="stroke:#181818;stroke-width:0.5;stroke-dasharray:5.0,5.0;" x1="124" x2="124" y1="104.9766" y2="971.9824"/><line style="stroke:#181818;stroke-width:0.5;stroke-dasharray:5.0,5.0;" x1="535.5" x2="535.5" y1="104.9766" y2="971.9824"/><line style="stroke:#181818;stroke-width:0.5;stroke-dasharray:5.0,5.0;" x1="953" x2="953" y1="104.9766" y2="971.9824"/><line style="stroke:#181818;stroke-width:0.5;stroke-dasharray:5.0,5.0;" x1="1426.5" x2="1426.5" y1="104.9766" y2="971.9824"/><line style="stroke:#181818;stroke-width:0.5;stroke-dasharray:5.0,5.0;" x1="1771.5" x2="1771.5" y1="104.9766" y2="971.9824"/><line style="stroke:#181818;stroke-width:0.5;stroke-dasharray:5.0,5.0;" x1="2020.5" x2="2020.5" y1="104.9766" y2="971.9824"/><line style="stroke:#181818;stroke-width:0.5;stroke-dasharray:5.0,5.0;" x1="2259.5" x2="2259.5" y1="104.9766" y2="971.9824"/><line style="stroke:#181818;stroke-width:0.5;stroke-dasharray:5.0,5.0;" x1="2320.5" x2="2320.5" y1="104.9766" y2="971.9824"/><rect fill="#E2E2F0" height="30.4883" rx="2.5" ry="2.5" style="stroke:#181818;stroke-width:0.5;" width="39" x="105" y="73.4883"/><text fill="#000000" font-family="sans-serif" font-size="14" lengthAdjust="spacing" textLength="25" x="112" y="94.0234">ccw</text><rect fill="#E2E2F0" height="30.4883" rx="2.5" ry="2.5" style="stroke:#181818;stroke-width:0.5;" width="39" x="105" y="970.9824"/><text fill="#000000" font-family="sans-serif" font-size="14" lengthAdjust="spacing" textLength="25" x="112" y="991.5176">ccw</text><text fill="#000000" font-family="sans-serif" font-size="14" lengthAdjust="spacing" textLength="16" x="524.5" y="102.0234">s3</text><path d="M517.5,52.4883 C517.5,42.4883 535.5,42.4883 535.5,42.4883 C535.5,42.4883 553.5,42.4883 553.5,52.4883 L553.5,78.4883 C553.5,88.4883 535.5,88.4883 535.5,88.4883 C535.5,88.4883 517.5,88.4883 517.5,78.4883 L517.5,52.4883 " fill="#E2E2F0" style="stroke:#181818;stroke-width:1.5;"/><path d="M517.5,52.4883 C517.5,62.4883 535.5,62.4883 535.5,62.4883 C535.5,62.4883 553.5,62.4883 553.5,52.4883 " fill="none" style="stroke:#181818;stroke-width:1.5;"/><text fill="#000000" font-family="sans-serif" font-size="14" lengthAdjust="spacing" textLength="16" x="524.5" y="984.5176">s3</text><path d="M517.5,997.4707 C517.5,987.4707 535.5,987.4707 535.5,987.4707 C535.5,987.4707 553.5,987.4707 553.5,997.4707 L553.5,1023.4707 C553.5,1033.4707 535.5,1033.4707 535.5,1033.4707 C535.5,1033.4707 517.5,1033.4707 517.5,1023.4707 L517.5,997.4707 " fill="#E2E2F0" style="stroke:#181818;stroke-width:1.5;"/><path d="M517.5,997.4707 C517.5,1007.4707 535.5,1007.4707 535.5,1007.4707 C535.5,1007.4707 553.5,1007.4707 553.5,997.4707 " fill="none" style="stroke:#181818;stroke-width:1.5;"/><rect fill="#E2E2F0" height="30.4883" rx="2.5" ry="2.5" style="stroke:#181818;stroke-width:0.5;" width="65" x="921" y="73.4883"/><text fill="#000000" font-family="sans-serif" font-size="14" lengthAdjust="spacing" textLength="51" x="928" y="94.0234">lambda</text><rect fill="#E2E2F0" height="30.4883" rx="2.5" ry="2.5" style="stroke:#181818;stroke-width:0.5;" width="65" x="921" y="970.9824"/><text fill="#000000" font-family="sans-serif" font-size="14" lengthAdjust="spacing" textLength="51" x="928" y="991.5176">lambda</text><rect fill="#E2E2F0" height="30.4883" rx="2.5" ry="2.5" style="stroke:#181818;stroke-width:0.5;" width="38" x="1407.5" y="73.4883"/><text fill="#000000" font-family="sans-serif" font-size="14" lengthAdjust="spacing" textLength="24" x="1414.5" y="94.0234">asg</text><rect fill="#E2E2F0" height="30.4883" rx="2.5" ry="2.5" style="stroke:#181818;stroke-width:0.5;" width="38" x="1407.5" y="970.9824"/><text fill="#000000" font-family="sans-serif" font-size="14" lengthAdjust="spacing" textLength="24" x="1414.5" y="991.5176">asg</text><rect fill="#E2E2F0" height="30.4883" rx="2.5" ry="2.5" style="stroke:#181818;stroke-width:0.5;" width="100" x="1721.5" y="73.4883"/><text fill="#000000" font-family="sans-serif" font-size="14" lengthAdjust="spacing" textLength="86" x="1728.5" y="94.0234">bfd-pipeline</text><rect fill="#E2E2F0" height="30.4883" rx="2.5" ry="2.5" style="stroke:#181818;stroke-width:0.5;" width="100" x="1721.5" y="970.9824"/><text fill="#000000" font-family="sans-serif" font-size="14" lengthAdjust="spacing" textLength="86" x="1728.5" y="991.5176">bfd-pipeline</text><rect fill="#E2E2F0" height="30.4883" rx="2.5" ry="2.5" style="stroke:#181818;stroke-width:0.5;" width="60" x="1990.5" y="73.4883"/><text fill="#000000" font-family="sans-serif" font-size="14" lengthAdjust="spacing" textLength="46" x="1997.5" y="94.0234">splunk</text><rect fill="#E2E2F0" height="30.4883" rx="2.5" ry="2.5" style="stroke:#181818;stroke-width:0.5;" width="60" x="1990.5" y="970.9824"/><text fill="#000000" font-family="sans-serif" font-size="14" lengthAdjust="spacing" textLength="46" x="1997.5" y="991.5176">splunk</text><rect fill="#E2E2F0" height="30.4883" rx="2.5" ry="2.5" style="stroke:#181818;stroke-width:0.5;" width="48" x="2235.5" y="73.4883"/><text fill="#000000" font-family="sans-serif" font-size="14" lengthAdjust="spacing" textLength="34" x="2242.5" y="94.0234">slack</text><rect fill="#E2E2F0" height="30.4883" rx="2.5" ry="2.5" style="stroke:#181818;stroke-width:0.5;" width="48" x="2235.5" y="970.9824"/><text fill="#000000" font-family="sans-serif" font-size="14" lengthAdjust="spacing" textLength="34" x="2242.5" y="991.5176">slack</text><text fill="#000000" font-family="sans-serif" font-size="14" lengthAdjust="spacing" textLength="49" x="2293.5" y="102.0234">bfd-db</text><path d="M2303,52.4883 C2303,42.4883 2321,42.4883 2321,42.4883 C2321,42.4883 2339,42.4883 2339,52.4883 L2339,78.4883 C2339,88.4883 2321,88.4883 2321,88.4883 C2321,88.4883 2303,88.4883 2303,78.4883 L2303,52.4883 " fill="#E2E2F0" style="stroke:#181818;stroke-width:1.5;"/><path d="M2303,52.4883 C2303,62.4883 2321,62.4883 2321,62.4883 C2321,62.4883 2339,62.4883 2339,52.4883 " fill="none" style="stroke:#181818;stroke-width:1.5;"/><text fill="#000000" font-family="sans-serif" font-size="14" lengthAdjust="spacing" textLength="49" x="2293.5" y="984.5176">bfd-db</text><path d="M2303,997.4707 C2303,987.4707 2321,987.4707 2321,987.4707 C2321,987.4707 2339,987.4707 2339,997.4707 L2339,1023.4707 C2339,1033.4707 2321,1033.4707 2321,1033.4707 C2321,1033.4707 2303,1033.4707 2303,1023.4707 L2303,997.4707 " fill="#E2E2F0" style="stroke:#181818;stroke-width:1.5;"/><path d="M2303,997.4707 C2303,1007.4707 2321,1007.4707 2321,1007.4707 C2321,1007.4707 2339,1007.4707 2339,997.4707 " fill="none" style="stroke:#181818;stroke-width:1.5;"/><rect fill="#FFFFFF" height="406.0371" style="stroke:#181818;stroke-width:1.0;" width="10" x="2015.5" y="423.7031"/><path d="M5,119.9766 L5,159.9766 L245,159.9766 L245,129.9766 L235,119.9766 L5,119.9766 " fill="#FEFFDD" style="stroke:#181818;stroke-width:0.5;"/><path d="M235,119.9766 L235,129.9766 L245,129.9766 L235,119.9766 " fill="#FEFFDD" style="stroke:#181818;stroke-width:0.5;"/><text fill="#000000" font-family="sans-serif" font-size="13" lengthAdjust="spacing" textLength="60" x="11" y="137.5449">Schedule:</text><text fill="#000000" font-family="sans-serif" font-size="13" lengthAdjust="spacing" textLength="215" x="15" y="152.8555">Every Friday - check #bfd-notices</text><path d="M1844,170.5977 L1844,210.5977 L2197,210.5977 L2197,180.5977 L2187,170.5977 L1844,170.5977 " fill="#FEFFDD" style="stroke:#181818;stroke-width:0.5;"/><path d="M2187,170.5977 L2187,180.5977 L2197,180.5977 L2187,170.5977 " fill="#FEFFDD" style="stroke:#181818;stroke-width:0.5;"/><text fill="#000000" font-family="sans-serif" font-size="13" lengthAdjust="spacing" textLength="184" x="1850" y="188.166">Specific Splunk Components:</text><text fill="#000000" font-family="sans-serif" font-size="13" lengthAdjust="spacing" textLength="328" x="1854" y="203.4766">forwarders/indexers/search heads/ui/configuration</text><polygon fill="#181818" points="523.5,248.8398,533.5,252.8398,523.5,256.8398,527.5,252.8398" style="stroke:#181818;stroke-width:1.0;"/><line style="stroke:#181818;stroke-width:1.0;" x1="124.5" x2="529.5" y1="252.8398" y2="252.8398"/><text fill="#000000" font-family="sans-serif" font-size="13" lengthAdjust="spacing" textLength="383" x="131.5" y="232.7871">Delivery of RIF and manifest files to 'bfd-prod-etl' S3 bucket</text><text fill="#000000" font-family="sans-serif" font-size="13" lengthAdjust="spacing" textLength="240" x="135.5" y="248.0977">under 'Incoming/&lt;timestamp&gt;' prefix</text><polygon fill="#181818" points="135.5,262.8398,125.5,266.8398,135.5,270.8398,131.5,266.8398" style="stroke:#181818;stroke-width:1.0;"/><line style="stroke:#181818;stroke-width:1.0;stroke-dasharray:2.0,2.0;" x1="129.5" x2="534.5" y1="266.8398" y2="266.8398"/><polygon fill="#181818" points="941.5,292.1504,951.5,296.1504,941.5,300.1504,945.5,296.1504" style="stroke:#181818;stroke-width:1.0;"/><line style="stroke:#181818;stroke-width:1.0;" x1="535.5" x2="947.5" y1="296.1504" y2="296.1504"/><text fill="#000000" font-family="sans-serif" font-size="13" lengthAdjust="spacing" textLength="332" x="542.5" y="291.4082">S3 Event Notification generated from Incoming/ RIFs</text><polygon fill="#181818" points="1414.5,321.4609,1424.5,325.4609,1414.5,329.4609,1418.5,325.4609" style="stroke:#181818;stroke-width:1.0;"/><line style="stroke:#181818;stroke-width:1.0;" x1="953.5" x2="1420.5" y1="325.4609" y2="325.4609"/><text fill="#000000" font-family="sans-serif" font-size="13" lengthAdjust="spacing" textLength="445" x="960.5" y="320.7188">Create Scheduled Action to scale-out single bfd-pipeline EC2 instance</text><polygon fill="#181818" points="1759.5,350.7715,1769.5,354.7715,1759.5,358.7715,1763.5,354.7715" style="stroke:#181818;stroke-width:1.0;"/><line style="stroke:#181818;stroke-width:1.0;" x1="1426.5" x2="1765.5" y1="354.7715" y2="354.7715"/><text fill="#000000" font-family="sans-serif" font-size="13" lengthAdjust="spacing" textLength="321" x="1433.5" y="350.0293">Scheduled Action scales-out bfd-pipeline instance</text><path d="M507.5,369.7715 L577.5,369.7715 L577.5,377.082 L567.5,387.082 L507.5,387.082 L507.5,369.7715 " fill="#EEEEEE" style="stroke:#000000;stroke-width:1.5;"/><rect fill="none" height="467.9688" style="stroke:#000000;stroke-width:1.5;" width="1851" x="507.5" y="369.7715"/><text fill="#000000" font-family="sans-serif" font-size="13" font-weight="bold" lengthAdjust="spacing" textLength="25" x="522.5" y="383.3398">ETL</text><polygon fill="#181818" points="1782.5,419.7031,1772.5,423.7031,1782.5,427.7031,1778.5,423.7031" style="stroke:#181818;stroke-width:1.0;"/><polygon fill="#181818" points="2003.5,419.7031,2013.5,423.7031,2003.5,427.7031,2007.5,423.7031" style="stroke:#181818;stroke-width:1.0;"/><line style="stroke:#181818;stroke-width:1.0;" x1="1776.5" x2="2009.5" y1="423.7031" y2="423.7031"/><text fill="#000000" font-family="sans-serif" font-size="13" lengthAdjust="spacing" textLength="177" x="1788.5" y="403.6504">bfd-pipeline logs forwarded</text><text fill="#000000" font-family="sans-serif" font-size="13" lengthAdjust="spacing" textLength="197" x="1792.5" y="418.9609">to splunk via splunk-forwarder</text><polygon fill="#181818" points="546.5,449.0137,536.5,453.0137,546.5,457.0137,542.5,453.0137" style="stroke:#181818;stroke-width:1.0;"/><line style="stroke:#181818;stroke-width:1.0;" x1="540.5" x2="1770.5" y1="453.0137" y2="453.0137"/><text fill="#000000" font-family="sans-serif" font-size="13" lengthAdjust="spacing" textLength="140" x="552.5" y="448.2715">query for new RIF data</text><polygon fill="#181818" points="1759.5,478.3242,1769.5,482.3242,1759.5,486.3242,1763.5,482.3242" style="stroke:#181818;stroke-width:1.0;"/><line style="stroke:#181818;stroke-width:1.0;stroke-dasharray:2.0,2.0;" x1="535.5" x2="1765.5" y1="482.3242" y2="482.3242"/><text fill="#000000" font-family="sans-serif" font-size="13" lengthAdjust="spacing" textLength="99" x="542.5" y="477.582">data discovered</text><line style="stroke:#181818;stroke-width:1.0;" x1="2025.5" x2="2067.5" y1="511.6348" y2="511.6348"/><line style="stroke:#181818;stroke-width:1.0;" x1="2067.5" x2="2067.5" y1="511.6348" y2="524.6348"/><line style="stroke:#181818;stroke-width:1.0;" x1="2026.5" x2="2067.5" y1="524.6348" y2="524.6348"/><polygon fill="#181818" points="2036.5,520.6348,2026.5,524.6348,2036.5,528.6348,2032.5,524.6348" style="stroke:#181818;stroke-width:1.0;"/><text fill="#000000" font-family="sans-serif" font-size="13" lengthAdjust="spacing" textLength="215" x="2032.5" y="506.8926">data discovery messages detected</text><polygon fill="#181818" points="2247.5,565.2559,2257.5,569.2559,2247.5,573.2559,2251.5,569.2559" style="stroke:#181818;stroke-width:1.0;"/><line style="stroke:#181818;stroke-width:1.0;" x1="2025.5" x2="2253.5" y1="569.2559" y2="569.2559"/><text fill="#000000" font-family="sans-serif" font-size="13" lengthAdjust="spacing" textLength="165" x="2032.5" y="549.2031">data discovery status sent</text><text fill="#000000" font-family="sans-serif" font-size="13" lengthAdjust="spacing" textLength="153" x="2036.5" y="564.5137">to #bfd-notices channel</text><polygon fill="#181818" points="546.5,594.5664,536.5,598.5664,546.5,602.5664,542.5,598.5664" style="stroke:#181818;stroke-width:1.0;"/><line style="stroke:#181818;stroke-width:1.0;" x1="540.5" x2="1770.5" y1="598.5664" y2="598.5664"/><text fill="#000000" font-family="sans-serif" font-size="13" lengthAdjust="spacing" textLength="164" x="552.5" y="593.8242">request manifest, RIF files</text><polygon fill="#181818" points="1759.5,623.877,1769.5,627.877,1759.5,631.877,1763.5,627.877" style="stroke:#181818;stroke-width:1.0;"/><line style="stroke:#181818;stroke-width:1.0;stroke-dasharray:2.0,2.0;" x1="535.5" x2="1765.5" y1="627.877" y2="627.877"/><text fill="#000000" font-family="sans-serif" font-size="13" lengthAdjust="spacing" textLength="183" x="542.5" y="623.1348">delivery of manifest, RIF files</text><polygon fill="#181818" points="2309,653.1875,2319,657.1875,2309,661.1875,2313,657.1875" style="stroke:#181818;stroke-width:1.0;"/><line style="stroke:#181818;stroke-width:1.0;" x1="1771.5" x2="2315" y1="657.1875" y2="657.1875"/><text fill="#000000" font-family="sans-serif" font-size="13" lengthAdjust="spacing" textLength="225" x="1778.5" y="652.4453">DB operations applied for resources</text><polygon fill="#181818" points="1782.5,667.1875,1772.5,671.1875,1782.5,675.1875,1778.5,671.1875" style="stroke:#181818;stroke-width:1.0;"/><line style="stroke:#181818;stroke-width:1.0;stroke-dasharray:2.0,2.0;" x1="1776.5" x2="2320" y1="671.1875" y2="671.1875"/><line style="stroke:#181818;stroke-width:1.0;" x1="1771.5" x2="1813.5" y1="700.498" y2="700.498"/><line style="stroke:#181818;stroke-width:1.0;" x1="1813.5" x2="1813.5" y1="700.498" y2="713.498"/><line style="stroke:#181818;stroke-width:1.0;" x1="1772.5" x2="1813.5" y1="713.498" y2="713.498"/><polygon fill="#181818" points="1782.5,709.498,1772.5,713.498,1782.5,717.498,1778.5,713.498" style="stroke:#181818;stroke-width:1.0;"/><text fill="#000000" font-family="sans-serif" font-size="13" lengthAdjust="spacing" textLength="235" x="1778.5" y="695.7559">Process complete, load status logged</text><polygon fill="#181818" points="546.5,738.8086,536.5,742.8086,546.5,746.8086,542.5,742.8086" style="stroke:#181818;stroke-width:1.0;"/><line style="stroke:#181818;stroke-width:1.0;" x1="540.5" x2="1770.5" y1="742.8086" y2="742.8086"/><text fill="#000000" font-family="sans-serif" font-size="13" lengthAdjust="spacing" textLength="389" x="552.5" y="738.0664">move completed RIFs, manifests to 'Done/&lt;timestamp' prefix</text><line style="stroke:#181818;stroke-width:1.0;" x1="2025.5" x2="2067.5" y1="772.1191" y2="772.1191"/><line style="stroke:#181818;stroke-width:1.0;" x1="2067.5" x2="2067.5" y1="772.1191" y2="785.1191"/><line style="stroke:#181818;stroke-width:1.0;" x1="2026.5" x2="2067.5" y1="785.1191" y2="785.1191"/><polygon fill="#181818" points="2036.5,781.1191,2026.5,785.1191,2036.5,789.1191,2032.5,785.1191" style="stroke:#181818;stroke-width:1.0;"/><text fill="#000000" font-family="sans-serif" font-size="13" lengthAdjust="spacing" textLength="182" x="2032.5" y="767.377">data load messages detected</text><polygon fill="#181818" points="2247.5,825.7402,2257.5,829.7402,2247.5,833.7402,2251.5,829.7402" style="stroke:#181818;stroke-width:1.0;"/><line style="stroke:#181818;stroke-width:1.0;" x1="2020.5" x2="2253.5" y1="829.7402" y2="829.7402"/><text fill="#000000" font-family="sans-serif" font-size="13" lengthAdjust="spacing" textLength="132" x="2027.5" y="809.6875">data load status sent</text><text fill="#000000" font-family="sans-serif" font-size="13" lengthAdjust="spacing" textLength="153" x="2031.5" y="824.998">to #bfd-notices channel</text><polygon fill="#181818" points="546.5,862.0508,536.5,866.0508,546.5,870.0508,542.5,866.0508" style="stroke:#181818;stroke-width:1.0;"/><line style="stroke:#181818;stroke-width:1.0;" x1="540.5" x2="1770.5" y1="866.0508" y2="866.0508"/><text fill="#000000" font-family="sans-serif" font-size="13" lengthAdjust="spacing" textLength="247" x="552.5" y="861.3086">Final loaded RIF moved to Done/ folder</text><polygon fill="#181818" points="941.5,891.3613,951.5,895.3613,941.5,899.3613,945.5,895.3613" style="stroke:#181818;stroke-width:1.0;"/><line style="stroke:#181818;stroke-width:1.0;" x1="535.5" x2="947.5" y1="895.3613" y2="895.3613"/><text fill="#000000" font-family="sans-serif" font-size="13" lengthAdjust="spacing" textLength="394" x="542.5" y="890.6191">S3 Event Notification generated from final RIF moved to Done/</text><polygon fill="#181818" points="1414.5,920.6719,1424.5,924.6719,1414.5,928.6719,1418.5,924.6719" style="stroke:#181818;stroke-width:1.0;"/><line style="stroke:#181818;stroke-width:1.0;" x1="953.5" x2="1420.5" y1="924.6719" y2="924.6719"/><text fill="#000000" font-family="sans-serif" font-size="13" lengthAdjust="spacing" textLength="449" x="960.5" y="919.9297">Create Scheduled Action to scale-in bfd-pipeline instance in 5 minutes</text><polygon fill="#181818" points="1759.5,949.9824,1769.5,953.9824,1759.5,957.9824,1763.5,953.9824" style="stroke:#181818;stroke-width:1.0;"/><line style="stroke:#181818;stroke-width:1.0;" x1="1426.5" x2="1765.5" y1="953.9824" y2="953.9824"/><text fill="#000000" font-family="sans-serif" font-size="13" lengthAdjust="spacing" textLength="192" x="1433.5" y="949.2402">Scale-in bfd-pipeline instance</text><!--SRC=[dLHBQnin4BxlhnZIWozP30szc12exHW2fOIcq4ilOsbsBQoLL4cRnF- -8zcxsVKZBRbffPrFypr6KKLDC5yjoqVbI2j3vMBn2nvCJI4gQy1MC2T3bH8A_MwwqAWQM694UA8_BHb1XKCV-TYXYI34Is5i9B3FvDFN39x4XcIhQGQ_3TppzWvMNadSGGby9BRmQLt9agkKe025PF0r1e9mCuA-qjYi9LwDDp7KHpi9p1t8Z8-2qwtP3lhRRt2BZeHYYhn86x2mZRE6J0ovwShw5_IIV9Wg8-arBGAX5nlO4CemRTLKM5EfklMOL1lVgb5itrZb_kJwgc1neBnZbZDOShDP65RxnyCAq4XeqAYAJO1AQPObMfXaPjxAagAUmDCDh5knfPXQRBal3vC78soZJ3szZQhXOcpStGISP_zUYt039L-OB4hBkrxHMS9YPxZPx-m22v5PGCt6Co6IK7dRG0-UUWn5LvsHaWqpM7ZYttl79NmL6OYR3m8rbRPbFHY2CpUq2UuNdq4PxZVbAODbr96LirFS31eowWYkWuAYzhPrSF_pMp46Wzia_S7-KQssTUWTbqdRrFq-5yyA3ykopqI1tCjpeds8rz551ujvLjXVhW93Bzdab8ZEasEcwGoa2YB5b6Hnk7_Gy-YF7R3P0NbcGL8a4SSbAO0d5QnGR0E4vFgUv6WCnGQD8Ns1ZK-ppzdiGdgT6UMaNgGqoFYvijEBkadX-PY3TRIVhG3ed5Ofb2ocfs1RBxfw_llCvPUm1zqzUiiWJ9idNxE4rvm3b9r8d8cQ9JslHSDwzdKopyPrpt0_k4j-J0OZ-JQHvstDL_-leyC-_sMcfEEmahb4QwKCweo-9vLvoWITsR3wEgN_Goz9bR5FGJ_qfYXpOVZvu0lmWzN658_BZyfx87y1]--></g></svg>