<?xml version="1.0" encoding="us-ascii" standalone="no"?><svg xmlns="http://www.w3.org/2000/svg" xmlns:xlink="http://www.w3.org/1999/xlink" contentStyleType="text/css" height="435px" preserveAspectRatio="none" style="width:1153px;height:435px;background:#FFFFFF;" version="1.1" viewBox="0 0 1153 435" width="1153px" zoomAndPan="magnify"><defs/><g><text fill="#000000" font-family="sans-serif" font-size="14" font-weight="bold" lengthAdjust="spacing" textLength="336" x="406.75" y="28.5352">BFD-Server FHIR Resource Digestion Sequence</text><line style="stroke:#181818;stroke-width:0.5;stroke-dasharray:5.0,5.0;" x1="66" x2="66" y1="104.9766" y2="357.4609"/><line style="stroke:#181818;stroke-width:0.5;stroke-dasharray:5.0,5.0;" x1="554.5" x2="554.5" y1="104.9766" y2="357.4609"/><line style="stroke:#181818;stroke-width:0.5;stroke-dasharray:5.0,5.0;" x1="1117.5" x2="1117.5" y1="104.9766" y2="357.4609"/><rect fill="#E2E2F0" height="30.4883" rx="2.5" ry="2.5" style="stroke:#181818;stroke-width:0.5;" width="122" x="5" y="73.4883"/><text fill="#000000" font-family="sans-serif" font-size="14" lengthAdjust="spacing" textLength="108" x="12" y="94.0234">peering partner</text><rect fill="#E2E2F0" height="30.4883" rx="2.5" ry="2.5" style="stroke:#181818;stroke-width:0.5;" width="122" x="5" y="356.4609"/><text fill="#000000" font-family="sans-serif" font-size="14" lengthAdjust="spacing" textLength="108" x="12" y="376.9961">peering partner</text><rect fill="#E2E2F0" height="30.4883" rx="2.5" ry="2.5" style="stroke:#181818;stroke-width:0.5;" width="87" x="511.5" y="73.4883"/><text fill="#000000" font-family="sans-serif" font-size="14" lengthAdjust="spacing" textLength="73" x="518.5" y="94.0234">bfd-server</text><rect fill="#E2E2F0" height="30.4883" rx="2.5" ry="2.5" style="stroke:#181818;stroke-width:0.5;" width="87" x="511.5" y="356.4609"/><text fill="#000000" font-family="sans-serif" font-size="14" lengthAdjust="spacing" textLength="73" x="518.5" y="376.9961">bfd-server</text><text fill="#000000" font-family="sans-serif" font-size="14" lengthAdjust="spacing" textLength="49" x="1090.5" y="102.0234">bfd-db</text><path d="M1100,52.4883 C1100,42.4883 1118,42.4883 1118,42.4883 C1118,42.4883 1136,42.4883 1136,52.4883 L1136,78.4883 C1136,88.4883 1118,88.4883 1118,88.4883 C1118,88.4883 1100,88.4883 1100,78.4883 L1100,52.4883 " fill="#E2E2F0" style="stroke:#181818;stroke-width:1.5;"/><path d="M1100,52.4883 C1100,62.4883 1118,62.4883 1118,62.4883 C1118,62.4883 1136,62.4883 1136,52.4883 " fill="none" style="stroke:#181818;stroke-width:1.5;"/><text fill="#000000" font-family="sans-serif" font-size="14" lengthAdjust="spacing" textLength="49" x="1090.5" y="369.9961">bfd-db</text><path d="M1100,382.9492 C1100,372.9492 1118,372.9492 1118,372.9492 C1118,372.9492 1136,372.9492 1136,382.9492 L1136,408.9492 C1136,418.9492 1118,418.9492 1118,418.9492 C1118,418.9492 1100,418.9492 1100,408.9492 L1100,382.9492 " fill="#E2E2F0" style="stroke:#181818;stroke-width:1.5;"/><path d="M1100,382.9492 C1100,392.9492 1118,392.9492 1118,392.9492 C1118,392.9492 1136,392.9492 1136,382.9492 " fill="none" style="stroke:#181818;stroke-width:1.5;"/><polygon fill="#181818" points="543,147.5977,553,151.5977,543,155.5977,547,151.5977" style="stroke:#181818;stroke-width:1.0;"/><line style="stroke:#181818;stroke-width:1.0;" x1="66" x2="549" y1="151.5977" y2="151.5977"/><text fill="#000000" font-family="sans-serif" font-size="13" lengthAdjust="spacing" textLength="188" x="73" y="131.5449">Endpoint for a resource called</text><text fill="#000000" font-family="sans-serif" font-size="13" lengthAdjust="spacing" textLength="223" x="77" y="146.8555">e.g. '/v2/fhir/ExplanationOfBenefit'</text><line style="stroke:#181818;stroke-width:1.0;" x1="555" x2="597" y1="196.2188" y2="196.2188"/><line style="stroke:#181818;stroke-width:1.0;" x1="597" x2="597" y1="196.2188" y2="209.2188"/><line style="stroke:#181818;stroke-width:1.0;" x1="556" x2="597" y1="209.2188" y2="209.2188"/><polygon fill="#181818" points="566,205.2188,556,209.2188,566,213.2188,562,209.2188" style="stroke:#181818;stroke-width:1.0;"/><text fill="#000000" font-family="sans-serif" font-size="13" lengthAdjust="spacing" textLength="316" x="562" y="176.166">Resource provider 'read' OR 'search' method called</text><text fill="#000000" font-family="sans-serif" font-size="13" lengthAdjust="spacing" textLength="268" x="566" y="191.4766">(Depending on params; See OpenAPI Docs)</text><polygon fill="#181818" points="1106,234.5293,1116,238.5293,1106,242.5293,1110,238.5293" style="stroke:#181818;stroke-width:1.0;"/><line style="stroke:#181818;stroke-width:1.0;" x1="555" x2="1112" y1="238.5293" y2="238.5293"/><text fill="#000000" font-family="sans-serif" font-size="13" lengthAdjust="spacing" textLength="539" x="562" y="233.7871">A single resource (for read) or collection of resources (for search) queried from the db</text><polygon fill="#181818" points="566,248.5293,556,252.5293,566,256.5293,562,252.5293" style="stroke:#181818;stroke-width:1.0;"/><line style="stroke:#181818;stroke-width:1.0;stroke-dasharray:2.0,2.0;" x1="560" x2="1117" y1="252.5293" y2="252.5293"/><line style="stroke:#181818;stroke-width:1.0;" x1="555" x2="597" y1="297.1504" y2="297.1504"/><line style="stroke:#181818;stroke-width:1.0;" x1="597" x2="597" y1="297.1504" y2="310.1504"/><line style="stroke:#181818;stroke-width:1.0;" x1="556" x2="597" y1="310.1504" y2="310.1504"/><polygon fill="#181818" points="566,306.1504,556,310.1504,566,314.1504,562,310.1504" style="stroke:#181818;stroke-width:1.0;"/><text fill="#000000" font-family="sans-serif" font-size="13" lengthAdjust="spacing" textLength="443" x="562" y="277.0977">Transformer method for resource is retrieved and invoked to generate:</text><text fill="#000000" font-family="sans-serif" font-size="13" lengthAdjust="spacing" textLength="380" x="566" y="292.4082">a single FHIR resource (for read) or a FHIR bundle(for search)</text><polygon fill="#181818" points="77,335.4609,67,339.4609,77,343.4609,73,339.4609" style="stroke:#181818;stroke-width:1.0;"/><line style="stroke:#181818;stroke-width:1.0;" x1="71" x2="554" y1="339.4609" y2="339.4609"/><text fill="#000000" font-family="sans-serif" font-size="13" lengthAdjust="spacing" textLength="465" x="83" y="334.7188">Serialized FHIR data (Plus a pointer if returning bundle) sent as a response</text><!--SRC=[XL8xRy8m4DxpAqvPGWP0waYbIY10PG91nowN-4Ai9dPwTgAglxxd112FLjrEjkzx-VFQLmIBzN9y8Ew8OVswsSEUd6qv9rZg8pclhO43VRPaSeeQPAzptQ3n43T4hCqHmg4XZczliqADNGyRHmezPkXeE5LP73qim_ZbPcS6AwCQgmMgi0m8V9QLOrMHWdS3D3bE89bsJzEYr3nTVJKL6WoAjyM231NQ9n1TepwoNDmsR3kj98I42LK2spqaZf3pCe6QV6dL5VDeIGqP5Gn8FE81Q_SiCH5ivNo-sy3IvYxzdLlyps0EJhOb_eklKV0Pk5EG8RV2bVVfs-Boo0sl1bqfoA-m5aK5snfyIQ2ow4m1upkl_mJnncYSWDSImSdl8EWaJpkPlT1rGeX6WJQT_P3PMpXAs8oUPY4RF3lhs_I7FHnkizQeYguzFQgyRyfCScQDbVuMyXubr0j6kwfrWjjtHZpea9flsOJTWISL4kaJkg5EZJMEVW00]--></g></svg>