<?xml version="1.0" encoding="UTF-8" standalone="no"?><svg xmlns="http://www.w3.org/2000/svg" xmlns:xlink="http://www.w3.org/1999/xlink" contentStyleType="text/css" height="423px" preserveAspectRatio="none" style="width:1588px;height:423px;background:#FFFFFF;" version="1.1" viewBox="0 0 1588 423" width="1588px" zoomAndPan="magnify"><defs/><g><rect fill="none" height="26.4883" id="_title" style="stroke:none;stroke-width:1.0;" width="346" x="620.25" y="10"/><text fill="#000000" font-family="sans-serif" font-size="14" font-weight="bold" lengthAdjust="spacing" textLength="336" x="625.25" y="28.5352">BFD-Server FHIR Resource Digestion Sequence</text><line style="stroke:#181818;stroke-width:0.5;stroke-dasharray:5.0,5.0;" x1="30" x2="30" y1="104.9766" y2="345.4609"/><line style="stroke:#181818;stroke-width:0.5;stroke-dasharray:5.0,5.0;" x1="519.5" x2="519.5" y1="104.9766" y2="345.4609"/><line style="stroke:#181818;stroke-width:0.5;stroke-dasharray:5.0,5.0;" x1="863.5" x2="863.5" y1="104.9766" y2="345.4609"/><line style="stroke:#181818;stroke-width:0.5;stroke-dasharray:5.0,5.0;" x1="1426.5" x2="1426.5" y1="104.9766" y2="345.4609"/><line style="stroke:#181818;stroke-width:0.5;stroke-dasharray:5.0,5.0;" x1="1518.5" x2="1518.5" y1="104.9766" y2="345.4609"/><rect fill="#E2E2F0" height="30.4883" rx="2.5" ry="2.5" style="stroke:#181818;stroke-width:0.5;" width="51" x="5" y="73.4883"/><text fill="#000000" font-family="sans-serif" font-size="14" lengthAdjust="spacing" textLength="37" x="12" y="94.0234">client</text><rect fill="#E2E2F0" height="30.4883" rx="2.5" ry="2.5" style="stroke:#181818;stroke-width:0.5;" width="51" x="5" y="344.4609"/><text fill="#000000" font-family="sans-serif" font-size="14" lengthAdjust="spacing" textLength="37" x="12" y="364.9961">client</text><rect fill="#E2E2F0" height="30.4883" rx="2.5" ry="2.5" style="stroke:#181818;stroke-width:0.5;" width="76" x="481.5" y="73.4883"/><text fill="#000000" font-family="sans-serif" font-size="14" lengthAdjust="spacing" textLength="62" x="488.5" y="94.0234">endpoint</text><rect fill="#E2E2F0" height="30.4883" rx="2.5" ry="2.5" style="stroke:#181818;stroke-width:0.5;" width="76" x="481.5" y="344.4609"/><text fill="#000000" font-family="sans-serif" font-size="14" lengthAdjust="spacing" textLength="62" x="488.5" y="364.9961">endpoint</text><rect fill="#E2E2F0" height="30.4883" rx="2.5" ry="2.5" style="stroke:#181818;stroke-width:0.5;" width="140" x="793.5" y="73.4883"/><text fill="#000000" font-family="sans-serif" font-size="14" lengthAdjust="spacing" textLength="126" x="800.5" y="94.0234">resource-provider</text><rect fill="#E2E2F0" height="30.4883" rx="2.5" ry="2.5" style="stroke:#181818;stroke-width:0.5;" width="140" x="793.5" y="344.4609"/><text fill="#000000" font-family="sans-serif" font-size="14" lengthAdjust="spacing" textLength="126" x="800.5" y="364.9961">resource-provider</text><text fill="#000000" font-family="sans-serif" font-size="14" lengthAdjust="spacing" textLength="18" x="1414.5" y="102.0234">db</text><path d="M1408.5,52.4883 C1408.5,42.4883 1426.5,42.4883 1426.5,42.4883 C1426.5,42.4883 1444.5,42.4883 1444.5,52.4883 L1444.5,78.4883 C1444.5,88.4883 1426.5,88.4883 1426.5,88.4883 C1426.5,88.4883 1408.5,88.4883 1408.5,78.4883 L1408.5,52.4883 " fill="#E2E2F0" style="stroke:#181818;stroke-width:1.5;"/><path d="M1408.5,52.4883 C1408.5,62.4883 1426.5,62.4883 1426.5,62.4883 C1426.5,62.4883 1444.5,62.4883 1444.5,52.4883 " fill="none" style="stroke:#181818;stroke-width:1.5;"/><text fill="#000000" font-family="sans-serif" font-size="14" lengthAdjust="spacing" textLength="18" x="1414.5" y="357.9961">db</text><path d="M1408.5,370.9492 C1408.5,360.9492 1426.5,360.9492 1426.5,360.9492 C1426.5,360.9492 1444.5,360.9492 1444.5,370.9492 L1444.5,396.9492 C1444.5,406.9492 1426.5,406.9492 1426.5,406.9492 C1426.5,406.9492 1408.5,406.9492 1408.5,396.9492 L1408.5,370.9492 " fill="#E2E2F0" style="stroke:#181818;stroke-width:1.5;"/><path d="M1408.5,370.9492 C1408.5,380.9492 1426.5,380.9492 1426.5,380.9492 C1426.5,380.9492 1444.5,380.9492 1444.5,370.9492 " fill="none" style="stroke:#181818;stroke-width:1.5;"/><rect fill="#E2E2F0" height="30.4883" rx="2.5" ry="2.5" style="stroke:#181818;stroke-width:0.5;" width="128" x="1454.5" y="73.4883"/><text fill="#000000" font-family="sans-serif" font-size="14" lengthAdjust="spacing" textLength="114" x="1461.5" y="94.0234">fhir-transformer</text><rect fill="#E2E2F0" height="30.4883" rx="2.5" ry="2.5" style="stroke:#181818;stroke-width:0.5;" width="128" x="1454.5" y="344.4609"/><text fill="#000000" font-family="sans-serif" font-size="14" lengthAdjust="spacing" textLength="114" x="1461.5" y="364.9961">fhir-transformer</text><polygon fill="#181818" points="507.5,147.5977,517.5,151.5977,507.5,155.5977,511.5,151.5977" style="stroke:#181818;stroke-width:1.0;"/><line style="stroke:#181818;stroke-width:1.0;" x1="30.5" x2="513.5" y1="151.5977" y2="151.5977"/><text fill="#000000" font-family="sans-serif" font-size="13" lengthAdjust="spacing" textLength="188" x="37.5" y="131.5449">Endpoint for a resource called</text><text fill="#000000" font-family="sans-serif" font-size="13" lengthAdjust="spacing" textLength="223" x="41.5" y="146.8555">e.g. '/v2/fhir/ExplanationOfBenefit'</text><polygon fill="#181818" points="851.5,192.2188,861.5,196.2188,851.5,200.2188,855.5,196.2188" style="stroke:#181818;stroke-width:1.0;"/><line style="stroke:#181818;stroke-width:1.0;" x1="519.5" x2="857.5" y1="196.2188" y2="196.2188"/><text fill="#000000" font-family="sans-serif" font-size="13" lengthAdjust="spacing" textLength="316" x="526.5" y="176.166">Resource provider 'read' OR 'search' method called</text><text fill="#000000" font-family="sans-serif" font-size="13" lengthAdjust="spacing" textLength="268" x="530.5" y="191.4766">(Depending on params; See OpenAPI Docs)</text><polygon fill="#181818" points="1414.5,221.5293,1424.5,225.5293,1414.5,229.5293,1418.5,225.5293" style="stroke:#181818;stroke-width:1.0;"/><line style="stroke:#181818;stroke-width:1.0;" x1="863.5" x2="1420.5" y1="225.5293" y2="225.5293"/><text fill="#000000" font-family="sans-serif" font-size="13" lengthAdjust="spacing" textLength="539" x="870.5" y="220.7871">A single resource (for read) or collection of resources (for search) queried from the db</text><polygon fill="#181818" points="874.5,235.5293,864.5,239.5293,874.5,243.5293,870.5,239.5293" style="stroke:#181818;stroke-width:1.0;"/><line style="stroke:#181818;stroke-width:1.0;stroke-dasharray:2.0,2.0;" x1="868.5" x2="1425.5" y1="239.5293" y2="239.5293"/><polygon fill="#181818" points="1506.5,280.1504,1516.5,284.1504,1506.5,288.1504,1510.5,284.1504" style="stroke:#181818;stroke-width:1.0;"/><line style="stroke:#181818;stroke-width:1.0;" x1="863.5" x2="1512.5" y1="284.1504" y2="284.1504"/><text fill="#000000" font-family="sans-serif" font-size="13" lengthAdjust="spacing" textLength="443" x="870.5" y="264.0977">Transformer method for resource is retrieved and invoked to generate:</text><text fill="#000000" font-family="sans-serif" font-size="13" lengthAdjust="spacing" textLength="380" x="874.5" y="279.4082">a single FHIR resource (for read) or a FHIR bundle(for search)</text><polygon fill="#181818" points="530.5,294.1504,520.5,298.1504,530.5,302.1504,526.5,298.1504" style="stroke:#181818;stroke-width:1.0;"/><line style="stroke:#181818;stroke-width:1.0;stroke-dasharray:2.0,2.0;" x1="524.5" x2="1517.5" y1="298.1504" y2="298.1504"/><polygon fill="#181818" points="41.5,323.4609,31.5,327.4609,41.5,331.4609,37.5,327.4609" style="stroke:#181818;stroke-width:1.0;"/><line style="stroke:#181818;stroke-width:1.0;" x1="35.5" x2="518.5" y1="327.4609" y2="327.4609"/><text fill="#000000" font-family="sans-serif" font-size="13" lengthAdjust="spacing" textLength="465" x="47.5" y="322.7188">Serialized FHIR data (Plus a pointer if returning bundle) sent as a response</text><!--MD5=[fe396e8fb6e8bcb2058ffafcf46fc964]
@startuml
title BFD-Server FHIR Resource Digestion Sequence
participant client
participant endpoint
participant "resource-provider"
database db
participant "fhir-transformer"
client -> endpoint: Endpoint for a resource called \n e.g. '/v2/fhir/ExplanationOfBenefit' 
endpoint -> "resource-provider": Resource provider 'read' OR 'search' method called \n (Depending on params; See OpenAPI Docs)
"resource-provider" -> db: A single resource (for read) or collection of resources (for search) queried from the db
db - -> "resource-provider"
"resource-provider" -> "fhir-transformer": Transformer method for resource is retrieved and invoked to generate: \n a single FHIR resource (for read) or a FHIR bundle(for search)
"fhir-transformer" - -> endpoint
endpoint -> client: Serialized FHIR data (Plus a pointer if returning bundle) sent as a response
@enduml

PlantUML version 1.2022.7(Mon Aug 22 10:01:30 PDT 2022)
(GPL source distribution)
Java Runtime: Java(TM) SE Runtime Environment
JVM: Java HotSpot(TM) 64-Bit Server VM
Default Encoding: UTF-8
Language: en
Country: US
--></g></svg>